<svg viewBox="0 0 12 12" fill="none" xmlns="http://www.w3.org/2000/svg">
    <g id="alert warning triangle">
        <path id="Vector" d="M5.97 1C6.21058 1.00017 6.44756 1.05839 6.66082 1.16972C6.87409 1.28105 7.05733 1.44221 7.195 1.6395L7.249 1.7215L11.4645 8.7585C11.5908 8.9775 11.6595 9.22497 11.6641 9.47775C11.6688 9.73052 11.6092 9.98034 11.491 10.2038C11.3728 10.4273 11.1999 10.6172 10.9884 10.7556C10.7768 10.8941 10.5336 10.9766 10.2815 10.9955L10.1815 11H1.7535C1.5011 10.997 1.25356 10.9301 1.03398 10.8056C0.814398 10.6811 0.629916 10.503 0.497732 10.288C0.365549 10.0729 0.289969 9.82791 0.278038 9.57577C0.266107 9.32363 0.318215 9.07257 0.429502 8.846L0.480002 8.7515L4.6925 1.719C4.82574 1.49951 5.01328 1.31804 5.23704 1.19211C5.4608 1.06617 5.71323 1.00001 5.97 1ZM6.005 8L5.9415 8.0035C5.81998 8.01795 5.70797 8.07648 5.62671 8.16798C5.54544 8.25949 5.50056 8.37762 5.50056 8.5C5.50056 8.62238 5.54544 8.74051 5.62671 8.83202C5.70797 8.92352 5.81998 8.98205 5.9415 8.9965L6 9L6.0635 8.9965C6.18503 8.98205 6.29703 8.92352 6.3783 8.83202C6.45956 8.74051 6.50444 8.62238 6.50444 8.5C6.50444 8.37762 6.45956 8.25949 6.3783 8.16798C6.29703 8.07648 6.18503 8.01795 6.0635 8.0035L6.005 8ZM6 4C5.87754 4.00002 5.75933 4.04498 5.66782 4.12636C5.5763 4.20774 5.51783 4.31987 5.5035 4.4415L5.5 4.5V6.5L5.5035 6.5585C5.51796 6.68002 5.57648 6.79203 5.66798 6.87329C5.75949 6.95456 5.87762 6.99944 6 6.99944C6.12238 6.99944 6.24051 6.95456 6.33202 6.87329C6.42352 6.79203 6.48205 6.68002 6.4965 6.5585L6.5 6.5V4.5L6.4965 4.4415C6.48217 4.31987 6.42371 4.20774 6.33219 4.12636C6.24067 4.04498 6.12247 4.00002 6 4Z" fill="#E00A00"/>
    </g>
</svg>
