<svg xmlns="http://www.w3.org/2000/svg" fill="none" viewBox="0 0 24 24">
  <path stroke="none" d="M0 0h24v24H0z" fill="none"/>
  <path d="M4 4m0 1a1 1 0 0 1 1 -1h4a1 1 0 0 1 1 1v4a1 1 0 0 1 -1 1h-4a1 1 0 0 1 -1 -1z" stroke="currentColor" stroke-linecap="round" stroke-linejoin="round" stroke-width="2" />
  <path d="M4 14m0 1a1 1 0 0 1 1 -1h4a1 1 0 0 1 1 1v4a1 1 0 0 1 -1 1h-4a1 1 0 0 1 -1 -1z" stroke="currentColor" stroke-linecap="round" stroke-linejoin="round" stroke-width="2" />
  <path d="M14 14m0 1a1 1 0 0 1 1 -1h4a1 1 0 0 1 1 1v4a1 1 0 0 1 -1 1h-4a1 1 0 0 1 -1 -1z" stroke="currentColor" stroke-linecap="round" stroke-linejoin="round" stroke-width="2" />
  <path d="M14 7l6 0" stroke="currentColor" stroke-linecap="round" stroke-linejoin="round" stroke-width="2" />
  <path d="M17 4l0 6" stroke="currentColor" stroke-linecap="round" stroke-linejoin="round" stroke-width="2" />
</svg>
