<svg width="24" height="24" viewBox="0 0 24 24" fill="none" xmlns="http://www.w3.org/2000/svg">
<path d="M10.9999 18.9998V7.41383L6.70696 11.7068C6.31643 12.0973 5.68342 12.0973 5.29289 11.7068C4.90237 11.3163 4.90237 10.6833 5.29289 10.2927L11.2929 4.29273L11.3691 4.22437C11.7618 3.90402 12.3408 3.92662 12.707 4.29273L18.707 10.2927L18.7753 10.3689C19.0957 10.7617 19.0731 11.3407 18.707 11.7068C18.3408 12.0729 17.7618 12.0955 17.3691 11.7752L17.2929 11.7068L12.9999 7.41383V18.9998C12.9999 19.5521 12.5522 19.9998 11.9999 19.9998C11.4476 19.9998 10.9999 19.5521 10.9999 18.9998Z" fill="#0B1013"/>
</svg>
