<svg width="24" height="24" viewBox="0 0 24 24" fill="none" xmlns="http://www.w3.org/2000/svg">
<path d="M11.2073 15.7929C11.5734 16.159 11.596 16.738 11.2756 17.1308L11.2073 17.207L8.20727 20.207L8.13109 20.2753C7.76451 20.5743 7.23596 20.5743 6.86938 20.2753L6.7932 20.207L3.7932 17.207C3.40268 16.8164 3.40268 16.1834 3.7932 15.7929C4.18373 15.4024 4.81674 15.4024 5.20727 15.7929L7.50023 18.0859L9.7932 15.7929L9.86937 15.7245C10.2621 15.4042 10.8411 15.4268 11.2073 15.7929Z" fill="#0B1013"/>
<path d="M8.5 19.5C8.5 20.0523 8.05228 20.5 7.5 20.5C6.94771 20.5 6.5 20.0523 6.5 19.5L6.5 4.5C6.5 3.94772 6.94772 3.5 7.5 3.5C8.05228 3.5 8.5 3.94772 8.5 4.5L8.5 19.5Z" fill="#0B1013"/>
<path d="M20.2071 6.79289C20.5976 7.18342 20.5976 7.81643 20.2071 8.20696C19.8166 8.59748 19.1836 8.59748 18.793 8.20696L16.5001 5.91399L14.2071 8.20696L14.1309 8.27532C13.7382 8.59567 13.1592 8.57307 12.793 8.20696C12.4269 7.84084 12.4043 7.26184 12.7247 6.86906L12.793 6.79289L15.793 3.79289C16.1836 3.40237 16.8166 3.40237 17.2071 3.79289L20.2071 6.79289Z" fill="#0B1013"/>
<path d="M17.5 19.5C17.5 20.0523 17.0523 20.5 16.5 20.5C15.9477 20.5 15.5 20.0523 15.5 19.5L15.5 4.5C15.5 3.94772 15.9477 3.5 16.5 3.5C17.0523 3.5 17.5 3.94772 17.5 4.5L17.5 19.5Z" fill="#0B1013"/>
</svg>
