<svg width="48" height="18" viewBox="0 0 48 18" fill="none" xmlns="http://www.w3.org/2000/svg">
    <rect x="0.5" y="0.5" width="47" height="17" rx="3.5" stroke="white" stroke-opacity="0.4" stroke-linecap="round"/>
    <g clip-path="url(#clip0_3693_9219)">
        <path d="M5.5 9H14.5M10 13.5V4.5M7.75 6.75L12.25 11.25M7.75 11.25L12.25 6.75" stroke="white" stroke-width="1.25" stroke-linecap="round" stroke-linejoin="round"/>
    </g>
    <path d="M23.2807 7.98C23.2807 7.66667 23.1774 7.42333 22.9707 7.25C22.7707 7.07667 22.4874 6.99 22.1207 6.99H20.3307V8.96H22.1207C22.4874 8.96 22.7707 8.87667 22.9707 8.71C23.1774 8.53667 23.2807 8.29333 23.2807 7.98ZM19.1407 13V6H22.2407C22.7341 6 23.1441 6.08333 23.4707 6.25C23.8041 6.41667 24.0541 6.64 24.2207 6.92C24.3941 7.19333 24.4807 7.49667 24.4807 7.83C24.4807 8.13667 24.4241 8.39667 24.3107 8.61C24.1974 8.82333 24.0441 8.99333 23.8507 9.12C23.6574 9.24667 23.4407 9.33667 23.2007 9.39V9.47C23.4874 9.51 23.7407 9.59333 23.9607 9.72C24.1807 9.84667 24.3507 10.0267 24.4707 10.26C24.5907 10.4933 24.6507 10.7833 24.6507 11.13C24.6507 11.4833 24.5574 11.8033 24.3707 12.09C24.1907 12.37 23.9307 12.5933 23.5907 12.76C23.2507 12.92 22.8441 13 22.3707 13H19.1407ZM20.3307 12.01H22.2507C22.6307 12.01 22.9274 11.9233 23.1407 11.75C23.3541 11.5767 23.4607 11.3267 23.4607 11C23.4607 10.6533 23.3441 10.39 23.1107 10.21C22.8841 10.03 22.5841 9.94 22.2107 9.94H20.3307V12.01ZM30.5493 6.99H26.9593V8.96H29.6493V9.95H26.9593V12.01H30.5493V13H25.7693V6H30.5493V6.99ZM31.3639 6H36.8639V6.99H34.7139V13H33.5239V6.99H31.3639V6ZM40.2106 6.99H39.8506L37.7506 13H36.5306L39.0106 6H41.0306L43.5206 13H42.3006L40.2106 6.99ZM37.8906 10.31H41.9706V11.29H37.8906V10.31Z" fill="white"/>
    <defs>
        <clipPath id="clip0_3693_9219">
            <rect width="12" height="12" fill="white" transform="translate(4 3)"/>
        </clipPath>
    </defs>
</svg>