<svg viewBox="0 0 32 32" fill="none" xmlns="http://www.w3.org/2000/svg">
  <path
    d="M16.3928 23.0733H15.0061V25.2493H12.8941V23.0733H10.6968V9.036H12.8941V6.86H15.0061V9.036H16.3928V6.86H18.4834V9.1C19.4363 9.24222 20.1759 9.62622 20.7021 10.252C21.2283 10.8636 21.4914 11.66 21.4914 12.6413C21.4914 13.6227 21.2568 14.3409 20.7874 14.796C20.3323 15.2511 19.6781 15.5356 18.8248 15.6493V15.7773C19.2656 15.82 19.6781 15.9124 20.0621 16.0547C20.4603 16.1827 20.8016 16.3747 21.0861 16.6307C21.3705 16.8867 21.5981 17.2138 21.7688 17.612C21.9394 18.0102 22.0248 18.4867 22.0248 19.0413C22.0248 19.596 21.9323 20.1151 21.7474 20.5987C21.5768 21.068 21.3279 21.4876 21.0008 21.8573C20.6879 22.2129 20.3181 22.5044 19.8914 22.732C19.4648 22.9453 18.9954 23.0591 18.4834 23.0733V25.2493H16.3928V23.0733ZM13.3848 14.8813H17.1821C18.2061 14.8813 18.7181 14.4049 18.7181 13.452V12.7693C18.7181 11.8164 18.2061 11.34 17.1821 11.34H13.3848V14.8813ZM13.3848 20.7693H17.5661C18.0923 20.7693 18.5048 20.6413 18.8034 20.3853C19.1021 20.1293 19.2514 19.7596 19.2514 19.276V18.572C19.2514 18.0742 19.1021 17.7044 18.8034 17.4627C18.5048 17.2067 18.0923 17.0787 17.5661 17.0787H13.3848V20.7693Z"
    fill="currentColor" />
</svg>
