<svg xmlns="http://www.w3.org/2000/svg" fill="none" viewBox="0 0 32 32">
    <path fill="currentColor"
        d="M17.182 14.881h-3.797V11.34h3.797c1.024 0 1.536.476 1.536 1.43v.682c0 .953-.512 1.43-1.536 1.43ZM17.566 20.77h-4.181v-3.691h4.181c.526 0 .939.128 1.237.384.3.241.448.611.448 1.109v.704c0 .484-.149.853-.448 1.11-.298.255-.71.383-1.237.383Z" />
    <path fill="currentColor" fill-rule="evenodd"
        d="M16 0c8.837 0 16 7.163 16 16s-7.163 16-16 16S0 24.837 0 16 7.163 0 16 0Zm-.994 23.073h1.387v2.176h2.09v-2.176a3.314 3.314 0 0 0 1.408-.341 3.923 3.923 0 0 0 1.856-2.133 4.324 4.324 0 0 0 .278-1.558c0-.554-.086-1.03-.256-1.429a2.759 2.759 0 0 0-.683-.981 2.78 2.78 0 0 0-1.024-.576 4.908 4.908 0 0 0-1.237-.278v-.128c.853-.113 1.507-.398 1.962-.853.47-.455.704-1.173.704-2.155 0-.981-.263-1.777-.789-2.389-.526-.626-1.266-1.01-2.219-1.152V6.86h-2.09v2.176h-1.387V6.86h-2.112v2.176h-2.197v14.037h2.197v2.176h2.112v-2.176Z"
        clip-rule="evenodd" />
</svg>