<svg width="24" height="24" viewBox="0 0 24 24" fill="none" xmlns="http://www.w3.org/2000/svg">
<path d="M19.4974 12.5717L11.9974 19.9997L4.49737 12.5717C4.00268 12.0903 3.61301 11.5117 3.35292 10.8723C3.09282 10.2329 2.96793 9.54664 2.98611 8.85662C3.00428 8.1666 3.16513 7.48782 3.45853 6.86303C3.75192 6.23823 4.17151 5.68094 4.69086 5.22627C5.21021 4.77159 5.81808 4.42938 6.47618 4.22117C7.13429 4.01296 7.82838 3.94327 8.51474 4.01649C9.2011 4.08971 9.86487 4.30425 10.4642 4.64659C11.0636 4.98894 11.5856 5.45169 11.9974 6.00569C12.4109 5.45571 12.9335 4.99701 13.5325 4.65829C14.1314 4.31958 14.7939 4.10814 15.4783 4.03721C16.1627 3.96628 16.8545 4.03739 17.5101 4.24608C18.1658 4.45477 18.7714 4.79656 19.2889 5.25005C19.8064 5.70354 20.2248 6.25897 20.5178 6.88158C20.8108 7.50419 20.9721 8.18057 20.9917 8.8684C21.0112 9.55622 20.8886 10.2407 20.6315 10.8789C20.3744 11.5172 19.9883 12.0955 19.4974 12.5777M12 5.99951L10 9.99951L14 12.9995L12 16.9995V19.9995" stroke="currentColor" stroke-width="2" stroke-linecap="round" stroke-linejoin="round"/>
</svg>
