<svg width="24" height="24" viewBox="0 0 24 24" fill="none" xmlns="http://www.w3.org/2000/svg">
<path d="M21.9068 20.8791C22.1262 20.8791 22.3156 20.9571 22.4751 21.1131C22.6342 21.2691 22.7138 21.4566 22.7138 21.6758C22.7138 21.8952 22.6342 22.0845 22.4751 22.2436C22.3442 22.3806 22.1676 22.4647 21.9788 22.4798L21.9068 22.4828H2.08235C1.86292 22.4828 1.67521 22.4031 1.51921 22.2436C1.444 22.1696 1.38452 22.0811 1.34431 21.9836C1.3041 21.886 1.284 21.7813 1.28521 21.6758C1.28521 21.4566 1.36321 21.2691 1.51921 21.1131C1.649 20.9783 1.8238 20.8959 2.01035 20.8816L2.08235 20.8791H21.9068ZM6.21678 9.40234C6.42249 9.40234 6.58178 9.45877 6.69464 9.57163C6.79321 9.67049 6.84892 9.79977 6.86178 9.95949L6.86392 10.0302V10.2693C6.86392 10.4685 6.80749 10.6245 6.69464 10.7373C6.59578 10.8359 6.46149 10.8915 6.29178 10.9041L6.21635 10.9066H5.69821V18.4979H6.21678C6.39678 18.4979 6.54121 18.5412 6.65006 18.6278L6.69464 18.6672C6.79321 18.7658 6.84892 18.8951 6.86178 19.0551L6.86392 19.1253V19.3645C6.86392 19.5702 6.80749 19.7279 6.69464 19.8376C6.59578 19.9336 6.46149 19.9876 6.29178 19.9996L6.21635 20.0022H3.66635C3.46064 20.0022 3.30278 19.9473 3.19278 19.8376C3.09678 19.7419 3.04292 19.6092 3.03121 19.4395L3.02864 19.3645V19.1253C3.02864 18.9331 3.08335 18.7803 3.19278 18.6672C3.28878 18.5686 3.42164 18.5131 3.59135 18.5005L3.66635 18.4979H4.19392V10.9066H3.66635C3.48635 10.9066 3.34306 10.8635 3.23649 10.7772L3.19278 10.7373C3.09678 10.6388 3.04292 10.5069 3.03121 10.3418L3.02864 10.2689V10.0302C3.02864 9.83734 3.08335 9.68449 3.19278 9.57163C3.28878 9.47306 3.42164 9.41749 3.59135 9.40492L3.66635 9.40234H6.21678ZM10.9585 9.40234C11.1579 9.40234 11.3141 9.45877 11.4269 9.57163C11.5255 9.67049 11.5811 9.79977 11.5936 9.95949L11.5962 10.0302V10.2693C11.5962 10.4685 11.5398 10.6245 11.4269 10.7373C11.3278 10.8359 11.1959 10.8915 11.0314 10.9041L10.9585 10.9066H10.4403V18.4979H10.9585C11.1328 18.4979 11.2741 18.5412 11.3823 18.6278L11.4269 18.6672C11.5255 18.7658 11.5811 18.8951 11.5936 19.0551L11.5962 19.1253V19.3645C11.5962 19.5702 11.5398 19.7279 11.4269 19.8376C11.3278 19.9336 11.1959 19.9876 11.0314 19.9996L10.9585 20.0022H8.39821C8.19878 20.0022 8.04264 19.9473 7.92978 19.8376C7.83121 19.7419 7.77578 19.6092 7.76349 19.4395L7.76049 19.3645V19.1253C7.76049 18.9331 7.81692 18.7803 7.92978 18.6672C8.02892 18.5686 8.16078 18.5131 8.32535 18.5005L8.39821 18.4979H8.93606V10.9066H8.39821C8.22392 10.9066 8.08264 10.8635 7.97435 10.7772L7.92978 10.7373C7.83121 10.6388 7.77578 10.5069 7.76349 10.3418L7.76049 10.2689V10.0302C7.76049 9.83734 7.81692 9.68449 7.92978 9.57163C8.02892 9.47306 8.16078 9.41749 8.32535 9.40492L8.39821 9.40234H10.9585ZM15.7006 9.40234C15.8998 9.40234 16.0558 9.45877 16.1686 9.57163C16.2672 9.67049 16.3229 9.79977 16.3358 9.95949L16.3379 10.0302V10.2693C16.3379 10.4685 16.2815 10.6245 16.1686 10.7373C16.0701 10.8359 15.9382 10.8915 15.7731 10.9041L15.7002 10.9066H15.1821V18.4979H15.7006C15.8749 18.4979 16.0162 18.5412 16.1245 18.6278L16.1686 18.6672C16.2672 18.7658 16.3229 18.8951 16.3358 19.0551L16.3379 19.1253V19.3645C16.3379 19.5702 16.2815 19.7279 16.1686 19.8376C16.0701 19.9336 15.9382 19.9876 15.7731 19.9996L15.7002 20.0022H13.1404C12.9409 20.0022 12.7848 19.9473 12.6719 19.8376C12.5733 19.7419 12.5178 19.6092 12.5052 19.4395L12.5026 19.3645V19.1253C12.5026 18.9331 12.5591 18.7803 12.6719 18.6672C12.7705 18.5686 12.9024 18.5131 13.0675 18.5005L13.1404 18.4979H13.6778V10.9066H13.1404C12.9661 10.9066 12.8246 10.8635 12.7161 10.7772L12.6719 10.7373C12.5733 10.6388 12.5178 10.5069 12.5052 10.3418L12.5026 10.2689V10.0302C12.5026 9.83734 12.5591 9.68449 12.6719 9.57163C12.7705 9.47306 12.9024 9.41749 13.0675 9.40492L13.1404 9.40234H15.7006ZM20.4325 9.40234C20.6382 9.40234 20.7959 9.45877 20.9056 9.57163C21.0016 9.67049 21.0556 9.79977 21.0676 9.95949L21.0702 10.0302V10.2693C21.0702 10.4685 21.0153 10.6245 20.9056 10.7373C20.8099 10.8359 20.6772 10.8915 20.5075 10.9041L20.4325 10.9066H19.9143V18.4979H20.4329C20.6129 18.4979 20.7561 18.5412 20.8623 18.6278L20.9056 18.6672C21.0016 18.7658 21.0556 18.8951 21.0676 19.0551L21.0702 19.1253V19.3645C21.0702 19.5702 21.0153 19.7279 20.9056 19.8376C20.8099 19.9336 20.6772 19.9876 20.5075 19.9996L20.4325 20.0022H17.8825C17.6762 20.0022 17.5183 19.9473 17.4089 19.8376C17.3129 19.7419 17.2591 19.6092 17.2473 19.4395L17.2448 19.3645V19.1253C17.2448 18.9331 17.2995 18.7803 17.4089 18.6672C17.5049 18.5686 17.6378 18.5131 17.8075 18.5005L17.8821 18.4979H18.4101V10.9066H17.8821C17.7021 10.9066 17.5588 10.8635 17.4522 10.7772L17.4093 10.7373C17.3131 10.6388 17.2591 10.5069 17.2473 10.3418L17.2448 10.2689V10.0302C17.2448 9.83734 17.2995 9.68449 17.4089 9.57163C17.5049 9.47306 17.6378 9.41749 17.8075 9.40492L17.8821 9.40234H20.4325Z" fill="currentColor"/>
<path d="M11.9951 2.71094C12.1885 2.71094 12.399 2.75776 12.6357 2.87891L12.7217 2.92578V2.92676L20.7217 7.53516H3.26855L11.2686 2.92578C11.543 2.76862 11.7809 2.71096 11.9951 2.71094Z" stroke="currentColor" stroke-width="2"/>
</svg>
