<svg width="41" height="40" viewBox="0 0 41 40" fill="none" xmlns="http://www.w3.org/2000/svg">
  <path
    d="M32.1667 15H15.5001C13.6591 15 12.1667 16.4924 12.1667 18.3333V28.3333C12.1667 30.1743 13.6591 31.6667 15.5001 31.6667H32.1667C34.0077 31.6667 35.5001 30.1743 35.5001 28.3333V18.3333C35.5001 16.4924 34.0077 15 32.1667 15Z"
    stroke="currentColor" stroke-width="3.33333" stroke-linecap="round" stroke-linejoin="round" />
  <path
    d="M23.8333 26.6667C25.6743 26.6667 27.1667 25.1743 27.1667 23.3333C27.1667 21.4924 25.6743 20 23.8333 20C21.9924 20 20.5 21.4924 20.5 23.3333C20.5 25.1743 21.9924 26.6667 23.8333 26.6667Z"
    stroke="currentColor" stroke-width="3.33333" stroke-linecap="round" stroke-linejoin="round" />
  <path
    d="M28.8333 14.9999V11.6666C28.8333 10.7825 28.4821 9.93468 27.857 9.30956C27.2319 8.68444 26.3841 8.33325 25.5 8.33325H8.83333C7.94928 8.33325 7.10143 8.68444 6.47631 9.30956C5.85119 9.93468 5.5 10.7825 5.5 11.6666V21.6666C5.5 22.5506 5.85119 23.3985 6.47631 24.0236C7.10143 24.6487 7.94928 24.9999 8.83333 24.9999H12.1667"
    stroke="currentColor" stroke-width="3.33333" stroke-linecap="round" stroke-linejoin="round" />
</svg>
