<svg width="38" height="38" viewBox="0 0 38 38" fill="none" xmlns="http://www.w3.org/2000/svg">
  <path d="M38 19C38 29.4934 29.4934 38 19 38C8.50659 38 0 29.4934 0 19C0 8.50659 8.50659 0 19 0C29.4934 0 38 8.50659 38 19Z" fill="currentColor"/>
  <path d="M27.125 11.6667H14.2083C13.1742 11.6667 12.3333 12.5075 12.3333 13.5417V21.0417C12.3333 22.0758 13.1742 22.9167 14.2083 22.9167H27.125C28.1592 22.9167 29 22.0758 29 21.0417V13.5417C29 12.5075 28.1592 11.6667 27.125 11.6667ZM20.6667 19.7917C19.2883 19.7917 18.1667 18.67 18.1667 17.2917C18.1667 15.9133 19.2883 14.7917 20.6667 14.7917C22.045 14.7917 23.1667 15.9133 23.1667 17.2917C23.1667 18.67 22.045 19.7917 20.6667 19.7917Z" fill="white"/>
  <path d="M25.875 24.1667H12.9583C11.9242 24.1667 11.0833 23.3258 11.0833 22.2917V14.9883L9.06167 22.525C8.80167 23.5175 9.39417 24.5467 10.3883 24.8208L23.2742 28.2717C23.4342 28.3133 23.595 28.3333 23.7525 28.3333C24.5833 28.3333 25.3433 27.7792 25.5617 26.9458L26.3283 24.1042C26.1825 24.1417 26.0325 24.1667 25.875 24.1667Z" fill="white"/>
</svg>
