<svg width="24" height="24" viewBox="0 0 24 24" fill="none" xmlns="http://www.w3.org/2000/svg">
    <path fill-rule="evenodd" clip-rule="evenodd"
        d="M5.82116 4.91069C7.71448 3.56748 10.0751 2.89119 12.4646 2.98807C14.8542 3.08496 17.1404 3.94983 18.8942 5.44574C20.6506 6.94384 21.7591 8.98036 21.9753 11.1875C22.1917 13.3963 21.4953 15.5843 20.0455 17.3432C18.5988 19.0984 16.5042 20.3051 14.1661 20.7683C11.9447 21.2084 9.62136 20.9545 7.58162 20.0476L3.20813 20.9781C2.85732 21.0528 2.49341 20.9338 2.25441 20.6664C2.0154 20.399 1.93792 20.024 2.05133 19.6838L3.20113 16.2344C2.13814 14.4499 1.76779 12.3812 2.17611 10.3639C2.61673 8.1871 3.92573 6.2554 5.82116 4.91069ZM13 12C13 11.4477 12.5523 11 12 11C11.4477 11 11 11.4477 11 12V12.01C11 12.5623 11.4477 13.01 12 13.01C12.5523 13.01 13 12.5623 13 12.01V12ZM8 11C8.55228 11 9 11.4477 9 12V12.01C9 12.5623 8.55228 13.01 8 13.01C7.44772 13.01 7 12.5623 7 12.01V12C7 11.4477 7.44772 11 8 11ZM17 12C17 11.4477 16.5523 11 16 11C15.4477 11 15 11.4477 15 12V12.01C15 12.5623 15.4477 13.01 16 13.01C16.5523 13.01 17 12.5623 17 12.01V12Z"
        fill="currentColor" />
</svg>
