<svg width="24" height="24" viewBox="0 0 24 24" fill="none" xmlns="http://www.w3.org/2000/svg">
  <path
    d="M10.992 4.317C11.418 2.561 13.916 2.561 14.342 4.317C14.4059 4.5808 14.5312 4.82578 14.7077 5.032C14.8842 5.23822 15.1069 5.39985 15.3576 5.50375C15.6084 5.60764 15.8802 5.65085 16.1508 5.62987C16.4214 5.60889 16.6832 5.5243 16.915 5.383C18.458 4.443 20.225 6.209 19.285 7.753C19.1439 7.98466 19.0594 8.24634 19.0385 8.51677C19.0176 8.78721 19.0607 9.05877 19.1645 9.30938C19.2683 9.55999 19.4297 9.78258 19.6357 9.95905C19.8417 10.1355 20.0864 10.2609 20.35 10.325C22.106 10.751 22.106 13.249 20.35 13.675C20.0862 13.7389 19.8412 13.8642 19.635 14.0407C19.4288 14.2172 19.2671 14.4399 19.1632 14.6907C19.0594 14.9414 19.0161 15.2132 19.0371 15.4838C19.0581 15.7544 19.1427 16.0162 19.284 16.248C20.224 17.791 18.458 19.558 16.914 18.618C16.6823 18.4769 16.4207 18.3924 16.1502 18.3715C15.8798 18.3506 15.6082 18.3938 15.3576 18.4975C15.107 18.6013 14.8844 18.7627 14.7079 18.9687C14.5315 19.1747 14.4061 19.4194 14.342 19.683C13.916 21.439 11.418 21.439 10.992 19.683C10.9281 19.4192 10.8028 19.1742 10.6263 18.968C10.4498 18.7618 10.2271 18.6001 9.97634 18.4963C9.72558 18.3924 9.45383 18.3491 9.18321 18.3701C8.91259 18.3911 8.65074 18.4757 8.41899 18.617C6.87599 19.557 5.10899 17.791 6.04899 16.247C6.19009 16.0153 6.27454 15.7537 6.29548 15.4832C6.31641 15.2128 6.27324 14.9412 6.16946 14.6906C6.06569 14.44 5.90425 14.2174 5.69827 14.0409C5.49228 13.8645 5.24756 13.7391 4.98399 13.675C3.22799 13.249 3.22799 10.751 4.98399 10.325C5.24779 10.2611 5.49277 10.1358 5.69899 9.95929C5.90521 9.7828 6.06685 9.56011 6.17074 9.30935C6.27463 9.05859 6.31784 8.78683 6.29686 8.51621C6.27588 8.24559 6.19129 7.98375 6.04999 7.752C5.10999 6.209 6.87599 4.442 8.41999 5.382C9.41999 5.99 10.716 5.452 10.992 4.317Z"
    stroke="currentColor" stroke-width="2" stroke-linecap="round" stroke-linejoin="round" />
  <path
    d="M12.667 15C14.3238 15 15.667 13.6569 15.667 12C15.667 10.3431 14.3238 9 12.667 9C11.0101 9 9.66699 10.3431 9.66699 12C9.66699 13.6569 11.0101 15 12.667 15Z"
    stroke="currentColor" stroke-width="2" stroke-linecap="round" stroke-linejoin="round" />
</svg>
