<svg width="25" height="24" viewBox="0 0 25 24" fill="none" xmlns="http://www.w3.org/2000/svg">
<path stroke="currentColor" stroke-width="1" fill="currentColor" d="M12.3333 6.49695C13.4093 6.49695 14.4618 6.81244 15.3602 7.40435C16.2587 7.99625 16.9637 8.83857 17.3879 9.82696C17.8121 10.8154 17.9368 11.9064 17.7467 12.965C17.5566 14.0236 17.06 15.0031 16.3184 15.7824C15.5767 16.5617 14.6227 17.1064 13.5743 17.3491C12.526 17.5917 11.4295 17.5217 10.4206 17.1477C9.41164 16.7737 8.53466 16.1121 7.89824 15.2449C7.26183 14.3777 6.89393 13.3429 6.84013 12.2687L6.83325 11.9939L6.84013 11.719C6.91068 10.3105 7.52021 8.98296 8.54264 8.01097C9.56506 7.03899 10.9222 6.49694 12.3333 6.49695Z" />
<path stroke="currentColor" stroke-width="1" fill="currentColor" d="M12.3333 1C12.67 1.00004 12.9951 1.12362 13.2468 1.34729C13.4984 1.57096 13.6592 1.87917 13.6986 2.21345L13.7083 2.38798C13.7079 2.73824 13.5737 3.07514 13.3331 3.32984C13.0925 3.58453 12.7637 3.7378 12.4138 3.75833C12.064 3.77886 11.7195 3.66509 11.4507 3.44028C11.182 3.21547 11.0093 2.89658 10.9679 2.54876L10.9583 2.37424C10.9583 2.00977 11.1031 1.66022 11.361 1.4025C11.6188 1.14479 11.9686 1 12.3333 1Z" />
<path stroke="currentColor" stroke-width="1" fill="currentColor" d="M19.2083 3.74847C19.545 3.74852 19.8701 3.87209 20.1218 4.09576C20.3734 4.31943 20.5342 4.62764 20.5736 4.96192L20.5833 5.13645C20.5829 5.48672 20.4487 5.82361 20.2081 6.07831C19.9675 6.33301 19.6387 6.48627 19.2888 6.5068C18.939 6.52733 18.5945 6.41356 18.3257 6.18875C18.057 5.96394 17.8843 5.64505 17.8429 5.29724L17.8333 5.12271C17.8333 4.75824 17.9781 4.4087 18.236 4.15098C18.4938 3.89326 18.8436 3.74847 19.2083 3.74847Z" />
<path stroke="currentColor" stroke-width="1" fill="currentColor" d="M21.9583 10.6197C22.295 10.6197 22.6201 10.7433 22.8718 10.9669C23.1234 11.1906 23.2842 11.4988 23.3236 11.8331L23.3333 12.0076C23.3329 12.3579 23.1987 12.6948 22.9581 12.9495C22.7175 13.2042 22.3887 13.3575 22.0388 13.378C21.689 13.3985 21.3445 13.2847 21.0757 13.0599C20.807 12.8351 20.6343 12.5162 20.5929 12.1684L20.5833 11.9939C20.5833 11.6294 20.7281 11.2799 20.986 11.0222C21.2438 10.7644 21.5936 10.6197 21.9583 10.6197Z" />
<path stroke="currentColor" stroke-width="1" fill="currentColor" d="M19.2083 17.4908C19.545 17.4909 19.8701 17.6145 20.1218 17.8381C20.3734 18.0618 20.5342 18.37 20.5736 18.7043L20.5833 18.8788C20.5829 19.2291 20.4487 19.566 20.2081 19.8207C19.9675 20.0754 19.6387 20.2286 19.2888 20.2492C18.939 20.2697 18.5945 20.1559 18.3257 19.9311C18.057 19.7063 17.8843 19.3874 17.8429 19.0396L17.8333 18.8651C17.8333 18.5006 17.9781 18.1511 18.236 17.8933C18.4938 17.6356 18.8436 17.4908 19.2083 17.4908Z" />
<path stroke="currentColor" stroke-width="1" fill="currentColor" d="M12.3333 20.2393C12.67 20.2394 12.9951 20.3629 13.2468 20.5866C13.4984 20.8103 13.6592 21.1185 13.6986 21.4528L13.7083 21.6273C13.7079 21.9776 13.5737 22.3145 13.3331 22.5691C13.0925 22.8238 12.7637 22.9771 12.4138 22.9976C12.064 23.0182 11.7195 22.9044 11.4507 22.6796C11.182 22.4548 11.0093 22.1359 10.9679 21.7881L10.9583 21.6135C10.9583 21.2491 11.1031 20.8995 11.361 20.6418C11.6188 20.3841 11.9686 20.2393 12.3333 20.2393Z" />
<path stroke="currentColor" stroke-width="1" fill="currentColor" d="M5.45825 17.4908C5.79504 17.4909 6.12009 17.6145 6.37176 17.8381C6.62344 18.0618 6.78422 18.37 6.82363 18.7043L6.83325 18.8788C6.83286 19.2291 6.69867 19.566 6.45809 19.8207C6.2175 20.0754 5.88869 20.2286 5.53883 20.2492C5.18898 20.2697 4.84448 20.1559 4.57573 19.9311C4.30698 19.7063 4.13427 19.3874 4.09288 19.0396L4.08325 18.8651C4.08325 18.5006 4.22812 18.1511 4.48598 17.8933C4.74384 17.6356 5.09358 17.4908 5.45825 17.4908Z" />
<path stroke="currentColor" stroke-width="1" fill="currentColor" d="M2.70825 10.6197C3.04504 10.6197 3.37009 10.7433 3.62176 10.9669C3.87344 11.1906 4.03422 11.4988 4.07363 11.8331L4.08325 12.0076C4.08286 12.3579 3.94867 12.6948 3.70809 12.9495C3.4675 13.2042 3.13869 13.3575 2.78883 13.378C2.43898 13.3985 2.09448 13.2847 1.82573 13.0599C1.55698 12.8351 1.38427 12.5162 1.34288 12.1684L1.33325 11.9939C1.33325 11.6294 1.47812 11.2799 1.73598 11.0222C1.99384 10.7644 2.34358 10.6197 2.70825 10.6197Z" />
<path stroke="currentColor" stroke-width="1" fill="currentColor" d="M5.45825 3.74847C5.79504 3.74852 6.12009 3.87209 6.37176 4.09576C6.62344 4.31943 6.78422 4.62764 6.82363 4.96192L6.83325 5.13645C6.83286 5.48672 6.69867 5.82361 6.45809 6.07831C6.2175 6.33301 5.88869 6.48627 5.53883 6.5068C5.18898 6.52733 4.84448 6.41356 4.57573 6.18875C4.30698 5.96394 4.13427 5.64505 4.09288 5.29724L4.08325 5.12271C4.08325 4.75824 4.22812 4.4087 4.48598 4.15098C4.74384 3.89326 5.09358 3.74847 5.45825 3.74847Z" />
</svg>
