<svg width="24" height="24" viewBox="0 0 24 24" fill="none" xmlns="http://www.w3.org/2000/svg">
<path fill-rule="evenodd" clip-rule="evenodd" d="M13.7678 10.9822C14.7441 11.9585 14.7441 13.5415 13.7678 14.5178C12.7915 15.4941 11.2085 15.4941 10.2322 14.5178C9.25592 13.5415 9.25592 11.9585 10.2322 10.9822C11.2085 10.0059 12.7915 10.0059 13.7678 10.9822Z" fill="currentColor"/>
<path d="M13.7678 10.9822C14.7441 11.9585 14.7441 13.5415 13.7678 14.5178C12.7915 15.4941 11.2085 15.4941 10.2322 14.5178C9.25592 13.5415 9.25592 11.9585 10.2322 10.9822C11.2085 10.0059 12.7915 10.0059 13.7678 10.9822" stroke="currentColor" stroke-width="2" stroke-linecap="round" stroke-linejoin="round"/>
<path fill-rule="evenodd" clip-rule="evenodd" d="M19.2541 4.98223C20.2304 5.95854 20.2304 7.54145 19.2541 8.51776C18.2778 9.49407 16.6949 9.49407 15.7186 8.51776C14.7423 7.54145 14.7423 5.95854 15.7186 4.98223C16.6949 4.00592 18.2778 4.00592 19.2541 4.98223Z" fill="currentColor"/>
<path d="M19.2541 4.98223C20.2304 5.95854 20.2304 7.54145 19.2541 8.51776C18.2778 9.49407 16.6949 9.49407 15.7186 8.51776C14.7423 7.54145 14.7423 5.95854 15.7186 4.98223C16.6949 4.00592 18.2778 4.00592 19.2541 4.98223" stroke="currentColor" stroke-width="2" stroke-linecap="round" stroke-linejoin="round"/>
<path d="M18 12.25C19.533 12.25 21 12.783 22 13.583" stroke="currentColor" stroke-width="2" stroke-linecap="round" stroke-linejoin="round"/>
<path fill-rule="evenodd" clip-rule="evenodd" d="M8.28144 4.98223C9.25775 5.95854 9.25775 7.54145 8.28144 8.51776C7.30512 9.49407 5.72222 9.49407 4.74591 8.51776C3.76959 7.54145 3.76959 5.95854 4.74591 4.98223C5.72222 4.00592 7.30512 4.00592 8.28144 4.98223Z" fill="currentColor"/>
<path d="M8.28144 4.98223C9.25775 5.95854 9.25775 7.54145 8.28144 8.51776C7.30512 9.49407 5.72222 9.49407 4.74591 8.51776C3.76959 7.54145 3.76959 5.95854 4.74591 4.98223C5.72222 4.00592 7.30512 4.00592 8.28144 4.98223" stroke="currentColor" stroke-width="2" stroke-linecap="round" stroke-linejoin="round"/>
<path d="M2 13.583C3 12.783 4.467 12.25 6 12.25" stroke="currentColor" stroke-width="2" stroke-linecap="round" stroke-linejoin="round"/>
<path d="M16.5912 19.75C15.4262 18.849 13.7522 18.25 12.0002 18.25C10.2482 18.25 8.57418 18.849 7.40918 19.75" stroke="currentColor" stroke-width="2" stroke-linecap="round" stroke-linejoin="round"/>
</svg>
