<svg width="24" height="24" viewBox="0 0 24 24" fill="none" xmlns="http://www.w3.org/2000/svg">
<path d="M11 4H13M12 18.5V18.51M6 5C6 4.46957 6.21071 3.96086 6.58579 3.58579C6.96086 3.21071 7.46957 3 8 3H16C16.5304 3 17.0391 3.21071 17.4142 3.58579C17.7893 3.96086 18 4.46957 18 5V19C18 19.5304 17.7893 20.0391 17.4142 20.4142C17.0391 20.7893 16.5304 21 16 21H8C7.46957 21 6.96086 20.7893 6.58579 20.4142C6.21071 20.0391 6 19.5304 6 19V5Z" stroke="currentColor" stroke-width="2" stroke-linecap="round" stroke-linejoin="round"/>
<path d="M11 4H13M12 18.5V18.51M6 5C6 4.46957 6.21071 3.96086 6.58579 3.58579C6.96086 3.21071 7.46957 3 8 3H16C16.5304 3 17.0391 3.21071 17.4142 3.58579C17.7893 3.96086 18 4.46957 18 5V19C18 19.5304 17.7893 20.0391 17.4142 20.4142C17.0391 20.7893 16.5304 21 16 21H8C7.46957 21 6.96086 20.7893 6.58579 20.4142C6.21071 20.0391 6 19.5304 6 19V5Z" stroke="url(#paint0_radial_2060_225)" stroke-opacity="0.25" stroke-width="2" stroke-linecap="round" stroke-linejoin="round"/>
<path d="M11 4H13M12 18.5V18.51M6 5C6 4.46957 6.21071 3.96086 6.58579 3.58579C6.96086 3.21071 7.46957 3 8 3H16C16.5304 3 17.0391 3.21071 17.4142 3.58579C17.7893 3.96086 18 4.46957 18 5V19C18 19.5304 17.7893 20.0391 17.4142 20.4142C17.0391 20.7893 16.5304 21 16 21H8C7.46957 21 6.96086 20.7893 6.58579 20.4142C6.21071 20.0391 6 19.5304 6 19V5Z" stroke="url(#paint1_linear_2060_225)" stroke-opacity="0.15" stroke-width="2" stroke-linecap="round" stroke-linejoin="round"/>
<path d="M14.0719 12.1736C13.9977 12.1736 13.9252 12.1509 13.8635 12.1083C13.8019 12.0657 13.7538 12.0051 13.7254 11.9343C13.697 11.8634 13.6896 11.7855 13.7041 11.7102C13.7186 11.635 13.7543 11.5659 13.8067 11.5117C13.8592 11.4575 13.926 11.4206 13.9987 11.4056C14.0715 11.3906 14.1469 11.3983 14.2154 11.4277C14.2839 11.457 14.3425 11.5067 14.3837 11.5705C14.4249 11.6342 14.4469 11.7092 14.4469 11.7859C14.4469 11.8887 14.4074 11.9873 14.337 12.0601C14.2667 12.1328 14.1713 12.1736 14.0719 12.1736ZM9.92969 12.1736C9.85552 12.1736 9.78302 12.1509 9.72135 12.1083C9.65968 12.0657 9.61162 12.0051 9.58323 11.9343C9.55485 11.8634 9.54742 11.7855 9.56189 11.7102C9.57636 11.635 9.61208 11.5659 9.66452 11.5117C9.71697 11.4575 9.78379 11.4206 9.85653 11.4056C9.92927 11.3906 10.0047 11.3983 10.0732 11.4277C10.1417 11.457 10.2003 11.5067 10.2415 11.5705C10.2827 11.6342 10.3047 11.7092 10.3047 11.7859C10.3047 11.8887 10.2652 11.9873 10.1949 12.0601C10.1245 12.1328 10.0291 12.1736 9.92969 12.1736ZM14.2063 9.83914L14.9547 8.49823C14.966 8.47984 14.9736 8.45928 14.977 8.43778C14.9804 8.41628 14.9796 8.39428 14.9746 8.37312C14.9696 8.35196 14.9605 8.33206 14.9478 8.31463C14.9352 8.2972 14.9193 8.28259 14.901 8.27169C14.8828 8.26078 14.8626 8.25381 14.8417 8.25118C14.8207 8.24855 14.7995 8.25033 14.7793 8.2564C14.7591 8.26247 14.7402 8.27271 14.7239 8.2865C14.7076 8.3003 14.6941 8.31736 14.6844 8.33667L13.9266 9.69536C13.3206 9.41437 12.6641 9.26911 12 9.26911C11.3359 9.26911 10.6794 9.41437 10.0734 9.69536L9.31562 8.33829C9.30586 8.31898 9.29241 8.30192 9.2761 8.28812C9.25979 8.27432 9.24095 8.26408 9.22071 8.25801C9.20047 8.25194 9.17925 8.25017 9.15833 8.25279C9.13741 8.25542 9.11722 8.2624 9.09898 8.2733C9.08074 8.28421 9.06481 8.29881 9.05217 8.31624C9.03953 8.33368 9.03042 8.35357 9.02541 8.37474C9.0204 8.3959 9.01958 8.41789 9.023 8.43939C9.02642 8.46089 9.03401 8.48145 9.04531 8.49984L9.79375 9.84076C8.50781 10.5629 7.62812 11.9103 7.5 13.5H16.5C16.3719 11.9087 15.4922 10.5629 14.2047 9.83914" fill="currentColor"/>
<path d="M14.0719 12.1736C13.9977 12.1736 13.9252 12.1509 13.8635 12.1083C13.8019 12.0657 13.7538 12.0051 13.7254 11.9343C13.697 11.8634 13.6896 11.7855 13.7041 11.7102C13.7186 11.635 13.7543 11.5659 13.8067 11.5117C13.8592 11.4575 13.926 11.4206 13.9987 11.4056C14.0715 11.3906 14.1469 11.3983 14.2154 11.4277C14.2839 11.457 14.3425 11.5067 14.3837 11.5705C14.4249 11.6342 14.4469 11.7092 14.4469 11.7859C14.4469 11.8887 14.4074 11.9873 14.337 12.0601C14.2667 12.1328 14.1713 12.1736 14.0719 12.1736ZM9.92969 12.1736C9.85552 12.1736 9.78302 12.1509 9.72135 12.1083C9.65968 12.0657 9.61162 12.0051 9.58323 11.9343C9.55485 11.8634 9.54742 11.7855 9.56189 11.7102C9.57636 11.635 9.61208 11.5659 9.66452 11.5117C9.71697 11.4575 9.78379 11.4206 9.85653 11.4056C9.92927 11.3906 10.0047 11.3983 10.0732 11.4277C10.1417 11.457 10.2003 11.5067 10.2415 11.5705C10.2827 11.6342 10.3047 11.7092 10.3047 11.7859C10.3047 11.8887 10.2652 11.9873 10.1949 12.0601C10.1245 12.1328 10.0291 12.1736 9.92969 12.1736ZM14.2063 9.83914L14.9547 8.49823C14.966 8.47984 14.9736 8.45928 14.977 8.43778C14.9804 8.41628 14.9796 8.39428 14.9746 8.37312C14.9696 8.35196 14.9605 8.33206 14.9478 8.31463C14.9352 8.2972 14.9193 8.28259 14.901 8.27169C14.8828 8.26078 14.8626 8.25381 14.8417 8.25118C14.8207 8.24855 14.7995 8.25033 14.7793 8.2564C14.7591 8.26247 14.7402 8.27271 14.7239 8.2865C14.7076 8.3003 14.6941 8.31736 14.6844 8.33667L13.9266 9.69536C13.3206 9.41437 12.6641 9.26911 12 9.26911C11.3359 9.26911 10.6794 9.41437 10.0734 9.69536L9.31562 8.33829C9.30586 8.31898 9.29241 8.30192 9.2761 8.28812C9.25979 8.27432 9.24095 8.26408 9.22071 8.25801C9.20047 8.25194 9.17925 8.25017 9.15833 8.25279C9.13741 8.25542 9.11722 8.2624 9.09898 8.2733C9.08074 8.28421 9.06481 8.29881 9.05217 8.31624C9.03953 8.33368 9.03042 8.35357 9.02541 8.37474C9.0204 8.3959 9.01958 8.41789 9.023 8.43939C9.02642 8.46089 9.03401 8.48145 9.04531 8.49984L9.79375 9.84076C8.50781 10.5629 7.62812 11.9103 7.5 13.5H16.5C16.3719 11.9087 15.4922 10.5629 14.2047 9.83914" fill="url(#paint2_radial_2060_225)" fill-opacity="0.25"/>
<path d="M14.0719 12.1736C13.9977 12.1736 13.9252 12.1509 13.8635 12.1083C13.8019 12.0657 13.7538 12.0051 13.7254 11.9343C13.697 11.8634 13.6896 11.7855 13.7041 11.7102C13.7186 11.635 13.7543 11.5659 13.8067 11.5117C13.8592 11.4575 13.926 11.4206 13.9987 11.4056C14.0715 11.3906 14.1469 11.3983 14.2154 11.4277C14.2839 11.457 14.3425 11.5067 14.3837 11.5705C14.4249 11.6342 14.4469 11.7092 14.4469 11.7859C14.4469 11.8887 14.4074 11.9873 14.337 12.0601C14.2667 12.1328 14.1713 12.1736 14.0719 12.1736ZM9.92969 12.1736C9.85552 12.1736 9.78302 12.1509 9.72135 12.1083C9.65968 12.0657 9.61162 12.0051 9.58323 11.9343C9.55485 11.8634 9.54742 11.7855 9.56189 11.7102C9.57636 11.635 9.61208 11.5659 9.66452 11.5117C9.71697 11.4575 9.78379 11.4206 9.85653 11.4056C9.92927 11.3906 10.0047 11.3983 10.0732 11.4277C10.1417 11.457 10.2003 11.5067 10.2415 11.5705C10.2827 11.6342 10.3047 11.7092 10.3047 11.7859C10.3047 11.8887 10.2652 11.9873 10.1949 12.0601C10.1245 12.1328 10.0291 12.1736 9.92969 12.1736ZM14.2063 9.83914L14.9547 8.49823C14.966 8.47984 14.9736 8.45928 14.977 8.43778C14.9804 8.41628 14.9796 8.39428 14.9746 8.37312C14.9696 8.35196 14.9605 8.33206 14.9478 8.31463C14.9352 8.2972 14.9193 8.28259 14.901 8.27169C14.8828 8.26078 14.8626 8.25381 14.8417 8.25118C14.8207 8.24855 14.7995 8.25033 14.7793 8.2564C14.7591 8.26247 14.7402 8.27271 14.7239 8.2865C14.7076 8.3003 14.6941 8.31736 14.6844 8.33667L13.9266 9.69536C13.3206 9.41437 12.6641 9.26911 12 9.26911C11.3359 9.26911 10.6794 9.41437 10.0734 9.69536L9.31562 8.33829C9.30586 8.31898 9.29241 8.30192 9.2761 8.28812C9.25979 8.27432 9.24095 8.26408 9.22071 8.25801C9.20047 8.25194 9.17925 8.25017 9.15833 8.25279C9.13741 8.25542 9.11722 8.2624 9.09898 8.2733C9.08074 8.28421 9.06481 8.29881 9.05217 8.31624C9.03953 8.33368 9.03042 8.35357 9.02541 8.37474C9.0204 8.3959 9.01958 8.41789 9.023 8.43939C9.02642 8.46089 9.03401 8.48145 9.04531 8.49984L9.79375 9.84076C8.50781 10.5629 7.62812 11.9103 7.5 13.5H16.5C16.3719 11.9087 15.4922 10.5629 14.2047 9.83914" fill="url(#paint3_linear_2060_225)" fill-opacity="0.15"/>
<defs>
<radialGradient id="paint0_radial_2060_225" cx="0" cy="0" r="1" gradientUnits="userSpaceOnUse" gradientTransform="translate(6.88333 7.35432) rotate(49.5218) scale(16.6177 32.3897)">
<stop offset="0.025951" stop-color="#E02020" stop-opacity="0.3"/>
<stop offset="0.197364" stop-color="#F7B500" stop-opacity="0.3"/>
<stop offset="0.33762" stop-color="#6DD400" stop-opacity="0.3"/>
<stop offset="0.470811" stop-color="#0091FF" stop-opacity="0.3"/>
<stop offset="0.591474" stop-color="#FA6400" stop-opacity="0.3"/>
<stop offset="0.736251" stop-color="white" stop-opacity="0.1"/>
<stop offset="0.840157" stop-color="#6236FF" stop-opacity="0.3"/>
<stop offset="1" stop-color="#B620E0" stop-opacity="0.3"/>
</radialGradient>
<linearGradient id="paint1_linear_2060_225" x1="12" y1="3" x2="12" y2="13.125" gradientUnits="userSpaceOnUse">
<stop stop-color="white"/>
<stop offset="1" stop-color="white" stop-opacity="0"/>
</linearGradient>
<radialGradient id="paint2_radial_2060_225" cx="0" cy="0" r="1" gradientUnits="userSpaceOnUse" gradientTransform="translate(8.1625 9.52001) rotate(24.4979) scale(8.89103 13.2426)">
<stop offset="0.025951" stop-color="#E02020" stop-opacity="0.3"/>
<stop offset="0.197364" stop-color="#F7B500" stop-opacity="0.3"/>
<stop offset="0.33762" stop-color="#6DD400" stop-opacity="0.3"/>
<stop offset="0.470811" stop-color="#0091FF" stop-opacity="0.3"/>
<stop offset="0.591474" stop-color="#FA6400" stop-opacity="0.3"/>
<stop offset="0.736251" stop-color="white" stop-opacity="0.1"/>
<stop offset="0.840157" stop-color="#6236FF" stop-opacity="0.3"/>
<stop offset="1" stop-color="#B620E0" stop-opacity="0.3"/>
</radialGradient>
<linearGradient id="paint3_linear_2060_225" x1="12" y1="8.25" x2="12" y2="11.2031" gradientUnits="userSpaceOnUse">
<stop stop-color="white"/>
<stop offset="1" stop-color="white" stop-opacity="0"/>
</linearGradient>
</defs>
</svg>
