<svg width="24" height="24" viewBox="0 0 24 24" fill="none" xmlns="http://www.w3.org/2000/svg">
<path d="M11 4H13M12 18.5V18.51M6 5C6 4.46957 6.21071 3.96086 6.58579 3.58579C6.96086 3.21071 7.46957 3 8 3H16C16.5304 3 17.0391 3.21071 17.4142 3.58579C17.7893 3.96086 18 4.46957 18 5V19C18 19.5304 17.7893 20.0391 17.4142 20.4142C17.0391 20.7893 16.5304 21 16 21H8C7.46957 21 6.96086 20.7893 6.58579 20.4142C6.21071 20.0391 6 19.5304 6 19V5Z" stroke="currentColor" stroke-width="2" stroke-linecap="round" stroke-linejoin="round"/>
<path d="M11 4H13M12 18.5V18.51M6 5C6 4.46957 6.21071 3.96086 6.58579 3.58579C6.96086 3.21071 7.46957 3 8 3H16C16.5304 3 17.0391 3.21071 17.4142 3.58579C17.7893 3.96086 18 4.46957 18 5V19C18 19.5304 17.7893 20.0391 17.4142 20.4142C17.0391 20.7893 16.5304 21 16 21H8C7.46957 21 6.96086 20.7893 6.58579 20.4142C6.21071 20.0391 6 19.5304 6 19V5Z" stroke="url(#paint0_radial_2060_1067)" stroke-opacity="0.25" stroke-width="2" stroke-linecap="round" stroke-linejoin="round"/>
<path d="M11 4H13M12 18.5V18.51M6 5C6 4.46957 6.21071 3.96086 6.58579 3.58579C6.96086 3.21071 7.46957 3 8 3H16C16.5304 3 17.0391 3.21071 17.4142 3.58579C17.7893 3.96086 18 4.46957 18 5V19C18 19.5304 17.7893 20.0391 17.4142 20.4142C17.0391 20.7893 16.5304 21 16 21H8C7.46957 21 6.96086 20.7893 6.58579 20.4142C6.21071 20.0391 6 19.5304 6 19V5Z" stroke="url(#paint1_linear_2060_1067)" stroke-opacity="0.15" stroke-width="2" stroke-linecap="round" stroke-linejoin="round"/>
<path d="M14.0165 10.7133C14.0133 10.0988 14.2779 9.63501 14.8135 9.29343C14.5138 8.84301 14.0611 8.5952 13.4633 8.54664C12.8974 8.49976 12.279 8.89325 12.0526 8.89325C11.8135 8.89325 11.2651 8.56339 10.8348 8.56339C9.94527 8.57846 9 9.3085 9 10.7937C9 11.2324 9.07651 11.6856 9.22954 12.1533C9.43358 12.7678 10.17 14.2748 10.9384 14.2497C11.3401 14.2396 11.6238 13.95 12.1467 13.95C12.6536 13.95 12.9166 14.2497 13.3645 14.2497C14.1392 14.238 14.8055 12.8683 15 12.2521C13.9607 11.7381 14.0165 10.7451 14.0165 10.7133ZM13.1142 7.96395C13.5494 7.42144 13.5096 6.92749 13.4968 6.75C13.1126 6.77344 12.6679 7.0246 12.4145 7.33437C12.1355 7.6659 11.9713 8.07613 12.0064 8.53827C12.4224 8.57176 12.8018 8.34739 13.1142 7.96395Z" fill="currentColor"/>
<path d="M14.0165 10.7133C14.0133 10.0988 14.2779 9.63501 14.8135 9.29343C14.5138 8.84301 14.0611 8.5952 13.4633 8.54664C12.8974 8.49976 12.279 8.89325 12.0526 8.89325C11.8135 8.89325 11.2651 8.56339 10.8348 8.56339C9.94527 8.57846 9 9.3085 9 10.7937C9 11.2324 9.07651 11.6856 9.22954 12.1533C9.43358 12.7678 10.17 14.2748 10.9384 14.2497C11.3401 14.2396 11.6238 13.95 12.1467 13.95C12.6536 13.95 12.9166 14.2497 13.3645 14.2497C14.1392 14.238 14.8055 12.8683 15 12.2521C13.9607 11.7381 14.0165 10.7451 14.0165 10.7133ZM13.1142 7.96395C13.5494 7.42144 13.5096 6.92749 13.4968 6.75C13.1126 6.77344 12.6679 7.0246 12.4145 7.33437C12.1355 7.6659 11.9713 8.07613 12.0064 8.53827C12.4224 8.57176 12.8018 8.34739 13.1142 7.96395Z" fill="url(#paint2_radial_2060_1067)" fill-opacity="0.25"/>
<path d="M14.0165 10.7133C14.0133 10.0988 14.2779 9.63501 14.8135 9.29343C14.5138 8.84301 14.0611 8.5952 13.4633 8.54664C12.8974 8.49976 12.279 8.89325 12.0526 8.89325C11.8135 8.89325 11.2651 8.56339 10.8348 8.56339C9.94527 8.57846 9 9.3085 9 10.7937C9 11.2324 9.07651 11.6856 9.22954 12.1533C9.43358 12.7678 10.17 14.2748 10.9384 14.2497C11.3401 14.2396 11.6238 13.95 12.1467 13.95C12.6536 13.95 12.9166 14.2497 13.3645 14.2497C14.1392 14.238 14.8055 12.8683 15 12.2521C13.9607 11.7381 14.0165 10.7451 14.0165 10.7133ZM13.1142 7.96395C13.5494 7.42144 13.5096 6.92749 13.4968 6.75C13.1126 6.77344 12.6679 7.0246 12.4145 7.33437C12.1355 7.6659 11.9713 8.07613 12.0064 8.53827C12.4224 8.57176 12.8018 8.34739 13.1142 7.96395Z" fill="url(#paint3_linear_2060_1067)" fill-opacity="0.15"/>
<defs>
<radialGradient id="paint0_radial_2060_1067" cx="0" cy="0" r="1" gradientUnits="userSpaceOnUse" gradientTransform="translate(6.88333 7.35432) rotate(49.5218) scale(16.6177 32.3897)">
<stop offset="0.025951" stop-color="#E02020" stop-opacity="0.3"/>
<stop offset="0.197364" stop-color="#F7B500" stop-opacity="0.3"/>
<stop offset="0.33762" stop-color="#6DD400" stop-opacity="0.3"/>
<stop offset="0.470811" stop-color="#0091FF" stop-opacity="0.3"/>
<stop offset="0.591474" stop-color="#FA6400" stop-opacity="0.3"/>
<stop offset="0.736251" stop-color="white" stop-opacity="0.1"/>
<stop offset="0.840157" stop-color="#6236FF" stop-opacity="0.3"/>
<stop offset="1" stop-color="#B620E0" stop-opacity="0.3"/>
</radialGradient>
<linearGradient id="paint1_linear_2060_1067" x1="12" y1="3" x2="12" y2="13.125" gradientUnits="userSpaceOnUse">
<stop stop-color="white"/>
<stop offset="1" stop-color="white" stop-opacity="0"/>
</linearGradient>
<radialGradient id="paint2_radial_2060_1067" cx="0" cy="0" r="1" gradientUnits="userSpaceOnUse" gradientTransform="translate(9.44167 8.5643) rotate(44.3177) scale(7.53867 14.8744)">
<stop offset="0.025951" stop-color="#E02020" stop-opacity="0.3"/>
<stop offset="0.197364" stop-color="#F7B500" stop-opacity="0.3"/>
<stop offset="0.33762" stop-color="#6DD400" stop-opacity="0.3"/>
<stop offset="0.470811" stop-color="#0091FF" stop-opacity="0.3"/>
<stop offset="0.591474" stop-color="#FA6400" stop-opacity="0.3"/>
<stop offset="0.736251" stop-color="white" stop-opacity="0.1"/>
<stop offset="0.840157" stop-color="#6236FF" stop-opacity="0.3"/>
<stop offset="1" stop-color="#B620E0" stop-opacity="0.3"/>
</radialGradient>
<linearGradient id="paint3_linear_2060_1067" x1="12" y1="6.75" x2="12" y2="10.9687" gradientUnits="userSpaceOnUse">
<stop stop-color="white"/>
<stop offset="1" stop-color="white" stop-opacity="0"/>
</linearGradient>
</defs>
</svg>
