<svg width="38" height="38" viewBox="0 0 38 38" fill="none" xmlns="http://www.w3.org/2000/svg">
  <defs>
    <mask id="dollar-mask">
      <rect width="38" height="38" fill="white"/>
      <path d="M21.4936 17.9854C20.6238 17.5047 19.699 17.1384 18.7834 16.7585C18.2523 16.5387 17.7441 16.2823 17.2955 15.9252C16.4119 15.2202 16.5813 14.0757 17.6159 13.6224C17.9089 13.4942 18.2157 13.453 18.527 13.4347C19.7265 13.3706 20.8664 13.5904 21.9515 14.1123C22.4917 14.3732 22.6702 14.2908 22.8533 13.7277C23.0456 13.1326 23.2059 12.5282 23.3844 11.9285C23.5034 11.5256 23.3569 11.2601 22.977 11.0907C22.2811 10.784 21.5669 10.5642 20.8161 10.4452C19.8363 10.2941 19.8363 10.2895 19.8318 9.30523C19.8272 7.91805 19.8272 7.91805 18.4354 7.91805C18.234 7.91805 18.0326 7.91347 17.8311 7.91805C17.181 7.93636 17.0711 8.05082 17.0528 8.70549C17.0437 8.99849 17.0528 9.2915 17.0483 9.58908C17.0437 10.4589 17.0391 10.4452 16.2059 10.7473C14.1915 11.4799 12.9462 12.8533 12.8135 15.0508C12.6944 16.9965 13.7108 18.3105 15.3086 19.2673C16.2929 19.8579 17.3825 20.2058 18.4263 20.6682C18.8337 20.8468 19.2229 21.0528 19.5617 21.3366C20.5643 22.1653 20.3811 23.5433 19.1908 24.0652C18.5545 24.3445 17.8815 24.4131 17.1902 24.3261C16.1235 24.1934 15.1025 23.9141 14.1411 23.4151C13.578 23.1221 13.4132 23.1999 13.2209 23.8088C13.0561 24.3353 12.9096 24.8664 12.7631 25.3974C12.5662 26.1116 12.6395 26.281 13.3216 26.6152C14.1915 27.0364 15.1209 27.2516 16.0685 27.4027C16.8102 27.5217 16.8331 27.5537 16.8422 28.3229C16.8468 28.6708 16.8468 29.0233 16.8514 29.3713C16.856 29.8108 17.0666 30.0671 17.5198 30.0763C18.0326 30.0855 18.5499 30.0855 19.0626 30.0717C19.4838 30.0626 19.699 29.8337 19.699 29.4079C19.699 28.9318 19.7219 28.4511 19.7036 27.9749C19.6807 27.4896 19.8913 27.2424 20.3583 27.1142C21.4341 26.8212 22.3498 26.2444 23.0548 25.3837C25.0142 23.0031 24.268 19.5191 21.4936 17.9854Z" fill="black"/>
    </mask>
  </defs>
  <circle cx="19" cy="19" r="19" fill="currentColor" mask="url(#dollar-mask)"/>
</svg>
