<svg width="24" height="24" viewBox="0 0 24 24" fill="none" xmlns="http://www.w3.org/2000/svg">
<path d="M3 12C3 11.4696 3.21087 10.961 3.58594 10.5859C3.96101 10.2109 4.46957 10 5 10C5.53043 10 6.03899 10.2109 6.41406 10.5859C6.78913 10.961 7 11.4696 7 12C7 12.5304 6.78913 13.039 6.41406 13.4141C6.03899 13.7891 5.53043 14 5 14C4.46957 14 3.96101 13.7891 3.58594 13.4141C3.21087 13.039 3 12.5304 3 12Z" fill="currentColor"/>
<path d="M10 12C10 11.4696 10.2109 10.961 10.5859 10.5859C10.961 10.2109 11.4696 10 12 10C12.5304 10 13.039 10.2109 13.4141 10.5859C13.7891 10.961 14 11.4696 14 12C14 12.5304 13.7891 13.039 13.4141 13.4141C13.039 13.7891 12.5304 14 12 14C11.4696 14 10.961 13.7891 10.5859 13.4141C10.2109 13.039 10 12.5304 10 12Z" fill="currentColor"/>
<path d="M17 12C17 11.4696 17.2109 10.961 17.5859 10.5859C17.961 10.2109 18.4696 10 19 10C19.5304 10 20.039 10.2109 20.4141 10.5859C20.7891 10.961 21 11.4696 21 12C21 12.5304 20.7891 13.039 20.4141 13.4141C20.039 13.7891 19.5304 14 19 14C18.4696 14 17.961 13.7891 17.5859 13.4141C17.2109 13.039 17 12.5304 17 12Z" fill="currentColor"/>
</svg>
