<svg xmlns="http://www.w3.org/2000/svg" width="17" height="17" viewBox="0 0 17 17" fill="none">
  <path d="M5.16797 5.16602H4.5013C4.14768 5.16602 3.80854 5.30649 3.55849 5.55654C3.30844 5.80659 3.16797 6.14573 3.16797 6.49935V12.4993C3.16797 12.853 3.30844 13.1921 3.55849 13.4422C3.80854 13.6922 4.14768 13.8327 4.5013 13.8327H10.5013C10.8549 13.8327 11.1941 13.6922 11.4441 13.4422C11.6942 13.1921 11.8346 12.853 11.8346 12.4993V11.8327" stroke="currentColor" stroke-width="1.5" stroke-linecap="round" stroke-linejoin="round"/>
  <path d="M14.09 4.89007C14.3526 4.62751 14.5001 4.27139 14.5001 3.90007C14.5001 3.52875 14.3526 3.17264 14.09 2.91007C13.8274 2.64751 13.4713 2.5 13.1 2.5C12.7287 2.5 12.3726 2.64751 12.11 2.91007L6.5 8.50007V10.5001H8.5L14.09 4.89007V4.89007Z" stroke="currentColor" stroke-width="1.5" stroke-linecap="round" stroke-linejoin="round"/>
  <path d="M11.168 3.83398L13.168 5.83398" stroke="currentColor" stroke-width="1.5" stroke-linecap="round" stroke-linejoin="round"/>
</svg>
