<svg width="16" height="16" viewBox="0 0 16 16" fill="none" xmlns="http://www.w3.org/2000/svg">
<path d="M8 1.25C11.7279 1.25 14.75 4.27208 14.75 8C14.75 11.7279 11.7279 14.75 8 14.75C4.27208 14.75 1.25 11.7279 1.25 8C1.25 4.27208 4.27208 1.25 8 1.25Z" fill="#FF3026"/>
<path d="M8 1.25C11.7279 1.25 14.75 4.27208 14.75 8C14.75 11.7279 11.7279 14.75 8 14.75C4.27208 14.75 1.25 11.7279 1.25 8C1.25 4.27208 4.27208 1.25 8 1.25Z" stroke="white" stroke-width="1.5"/>
<rect x="7.25" y="4.25" width="1.5" height="4.5" rx="0.75" fill="white"/>
<circle cx="8" cy="10.4375" r="0.9375" fill="white"/>
</svg>
