<svg width="24" height="24" viewBox="0 0 24 24" fill="none" xmlns="http://www.w3.org/2000/svg">
<path d="M20.5 19.5C20.5 19.9641 20.3155 20.4091 19.9873 20.7373C19.6591 21.0655 19.2141 21.25 18.75 21.25H5.25C4.78587 21.25 4.34089 21.0655 4.0127 20.7373C3.68451 20.4091 3.5 19.9641 3.5 19.5V10.5C3.5 10.0359 3.68451 9.59088 4.0127 9.2627L4.14062 9.14648C4.45207 8.8912 4.84377 8.75 5.25 8.75H7.5C8.05228 8.75 8.5 9.19772 8.5 9.75C8.5 10.3023 8.05228 10.75 7.5 10.75H5.5V19.25H18.5V10.75H16.5C15.9477 10.75 15.5 10.3023 15.5 9.75C15.5 9.19772 15.9477 8.75 16.5 8.75H18.75C19.1562 8.75 19.5479 8.8912 19.8594 9.14648L19.9873 9.2627L20.1035 9.39062C20.3588 9.70207 20.5 10.0938 20.5 10.5V19.5Z" fill="currentColor"/>
<path d="M11.3691 1.47437C11.7618 1.15402 12.3408 1.17662 12.707 1.54273L16.457 5.29273L16.5253 5.36891C16.8457 5.76168 16.8231 6.34068 16.457 6.7068C16.0908 7.07291 15.5118 7.09551 15.1191 6.77516L15.0429 6.7068L11.9999 3.66383L8.95696 6.7068C8.56643 7.09732 7.93342 7.09732 7.54289 6.7068C7.15237 6.31627 7.15237 5.68326 7.54289 5.29273L11.2929 1.54273L11.3691 1.47437Z" fill="currentColor"/>
<path d="M11 12.75V2.25C11 1.69772 11.4477 1.25 12 1.25C12.5523 1.25 13 1.69772 13 2.25V12.75C13 13.3023 12.5523 13.75 12 13.75C11.4477 13.75 11 13.3023 11 12.75Z" fill="currentColor"/>
</svg>
