<svg width="24" height="24" viewBox="0 0 24 24" fill="none" xmlns="http://www.w3.org/2000/svg">
<rect width="24" height="24" fill="white"/>
<path d="M10.42 0.418094C11.3975 -0.139364 12.602 -0.139365 13.5795 0.418094L21.365 4.85775C22.3426 5.41521 22.9448 6.44543 22.9448 7.56035V16.4397C22.9448 17.5546 22.3426 18.5848 21.365 19.1423L13.5795 23.5819C12.602 24.1394 11.3975 24.1394 10.42 23.5819L2.63447 19.1423C1.6569 18.5848 1.05469 17.5546 1.05469 16.4397V7.56035C1.05469 6.44543 1.6569 5.41521 2.63447 4.85775L10.42 0.418094Z" fill="white"/>
<path d="M10.42 0.418094C11.3975 -0.139364 12.602 -0.139365 13.5795 0.418094L21.365 4.85775C22.3426 5.41521 22.9448 6.44543 22.9448 7.56035V16.4397C22.9448 17.5546 22.3426 18.5848 21.365 19.1423L13.5795 23.5819C12.602 24.1394 11.3975 24.1394 10.42 23.5819L2.63447 19.1423C1.6569 18.5848 1.05469 17.5546 1.05469 16.4397V7.56035C1.05469 6.44543 1.6569 5.41521 2.63447 4.85775L10.42 0.418094Z" fill="url(#paint0_radial_7392_15372)" fill-opacity="0.6"/>
<defs>
<radialGradient id="paint0_radial_7392_15372" cx="0" cy="0" r="1" gradientUnits="userSpaceOnUse" gradientTransform="translate(2.66604 5.80575) rotate(40.5788) scale(25.9091 50.5276)">
<stop offset="0.025951" stop-color="#E02020" stop-opacity="0.3"/>
<stop offset="0.197364" stop-color="#F7B500" stop-opacity="0.3"/>
<stop offset="0.33762" stop-color="#6DD400" stop-opacity="0.3"/>
<stop offset="0.470811" stop-color="#0091FF" stop-opacity="0.3"/>
<stop offset="0.591474" stop-color="#FA6400" stop-opacity="0.3"/>
<stop offset="0.736251" stop-color="white" stop-opacity="0.1"/>
<stop offset="0.840157" stop-color="#6236FF" stop-opacity="0.3"/>
<stop offset="1" stop-color="#B620E0" stop-opacity="0.3"/>
</radialGradient>
</defs>
</svg>
