<svg width="24" height="24" viewBox="0 0 24 24" fill="none" xmlns="http://www.w3.org/2000/svg">

  <path
    d="M19 6.85858C19.3062 7.03538 19.5601 7.29021 19.7358 7.5971C19.9115 7.90399 20.0026 8.25197 20 8.60558V15.1416C19.9999 15.4982 19.9045 15.8484 19.7235 16.1557C19.5426 16.4631 19.2828 16.7164 18.971 16.8896L12.971 20.7226C12.674 20.8875 12.3398 20.9741 12 20.9741C11.6602 20.9741 11.326 20.8875 11.029 20.7226L5.029 16.8896C4.71736 16.7165 4.45763 16.4633 4.27671 16.1561C4.0958 15.849 4.00026 15.4991 4 15.1426V8.60558C4.00008 8.24893 4.09553 7.8988 4.27646 7.59145C4.45739 7.2841 4.71721 7.03073 5.029 6.85758L11.029 3.28558C11.3348 3.11535 11.679 3.026 12.029 3.026C12.379 3.026 12.7232 3.11535 13.029 3.28558L19.029 6.85858H19Z"
    stroke="currentColor" stroke-width="1.5" stroke-linecap="round" stroke-linejoin="round" />
</svg>
