<svg width="132" height="83" viewBox="0 0 132 83" fill="none" xmlns="http://www.w3.org/2000/svg">
<g filter="url(#filter0_d_5221_5648)">
<g clip-path="url(#clip0_5221_5648)">
<rect x="21.3333" y="18.6667" width="40" height="40" rx="4.66667" fill="#0B1013"/>
<rect x="21.3333" y="18.6667" width="40" height="40" rx="4.66667" fill="url(#paint0_linear_5221_5648)" fill-opacity="0.2"/>
<path d="M44.5925 31.7666H34.4294V49.5361H30.029V27.3623H44.5925V31.7666ZM52.2028 27.3623V49.5361H37.6393V45.1357H47.7985V27.3623H52.2028ZM41.1188 34.9111C43.0682 34.9114 44.654 36.5028 44.654 38.4521C44.6537 40.4013 43.068 41.9871 41.1188 41.9873C39.1645 41.9873 37.578 40.4065 37.5778 38.4521C37.5778 36.4976 39.1693 34.9111 41.1188 34.9111Z" fill="#D2E7F6"/>
<path d="M44.5925 31.7666H34.4294V49.5361H30.029V27.3623H44.5925V31.7666ZM52.2028 27.3623V49.5361H37.6393V45.1357H47.7985V27.3623H52.2028ZM41.1188 34.9111C43.0682 34.9114 44.654 36.5028 44.654 38.4521C44.6537 40.4013 43.068 41.9871 41.1188 41.9873C39.1645 41.9873 37.578 40.4065 37.5778 38.4521C37.5778 36.4976 39.1693 34.9111 41.1188 34.9111Z" fill="url(#paint1_radial_5221_5648)"/>
<path d="M44.5925 31.7666H34.4294V49.5361H30.029V27.3623H44.5925V31.7666ZM52.2028 27.3623V49.5361H37.6393V45.1357H47.7985V27.3623H52.2028ZM41.1188 34.9111C43.0682 34.9114 44.654 36.5028 44.654 38.4521C44.6537 40.4013 43.068 41.9871 41.1188 41.9873C39.1645 41.9873 37.578 40.4065 37.5778 38.4521C37.5778 36.4976 39.1693 34.9111 41.1188 34.9111Z" fill="url(#paint2_radial_5221_5648)"/>
</g>
</g>
<path d="M122.529 50.2585H118.498L118.267 48.3591L118.184 47.6492L117.815 48.2605C117.388 48.9661 116.73 49.5482 115.851 49.9919C114.962 50.4461 113.956 50.6726 112.851 50.6726C111.374 50.6725 110.073 50.3372 108.988 49.6814C107.912 49.0308 107.059 48.088 106.45 46.8845C105.846 45.6706 105.537 44.2258 105.536 42.5828C105.536 40.9397 105.851 39.4748 106.469 38.2214C107.088 36.9784 107.971 35.992 109.101 35.2966C110.244 34.5961 111.599 34.24 113.136 34.24C114.123 34.24 115.046 34.4234 115.885 34.783C116.71 35.1332 117.353 35.6112 117.79 36.1931L118.232 36.781H118.233V27.0574H122.529V50.2585ZM94.8929 34.2371C96.5282 34.2371 97.9416 34.5767 99.097 35.2429C100.255 35.9195 101.163 36.87 101.79 38.0798C102.43 39.302 102.752 40.7736 102.752 42.4519V43.7234H91.1253L91.1341 43.7937C91.2592 44.7445 91.5594 45.5045 92.0257 46.0574C92.6887 46.8493 93.7221 47.2507 95.0863 47.2507C96.0802 47.2507 96.9205 47.0734 97.5804 46.7273C98.0561 46.4716 98.4175 46.1423 98.6585 45.738H102.649C102.291 47.1408 101.516 48.263 100.284 49.1453C98.881 50.1534 97.0976 50.6686 94.9866 50.6687C93.4703 50.6687 92.09 50.3125 90.8861 49.614C89.6895 48.9125 88.7331 47.9362 88.0443 46.7078C87.3585 45.4844 87.0052 44.0516 87.0052 42.4509C87.0052 40.8504 87.3439 39.4206 88.013 38.1921C88.6822 36.9636 89.6152 35.9861 90.7933 35.2908C91.9744 34.5925 93.3582 34.2371 94.8929 34.2371ZM85.8958 31.2458H75.974V36.8992H84.3353V40.9587H75.974V50.2585H71.4232V27.0574H85.8958V31.2458ZM131.043 50.2488H126.747V34.7449H131.043V50.2488ZM113.999 38.0437C113.166 38.0437 112.433 38.231 111.82 38.6062C111.196 38.9762 110.706 39.4988 110.367 40.1648C110.032 40.8102 109.861 41.5452 109.861 42.3943C109.861 43.2434 110.032 44.0024 110.367 44.6541C110.706 45.3108 111.191 45.8333 111.82 46.2126C112.442 46.5878 113.199 46.7751 113.999 46.7751C114.8 46.7751 115.526 46.5921 116.164 46.2273C116.793 45.8718 117.299 45.344 117.662 44.6736C118.02 44.0022 118.202 43.2423 118.202 42.3943C118.202 41.5464 118.02 40.7815 117.662 40.1257C117.299 39.4647 116.793 38.9512 116.164 38.5916C115.537 38.2267 114.833 38.0437 113.999 38.0437ZM94.9232 37.656C94.0533 37.656 93.3198 37.8331 92.7406 38.1824C92.1479 38.5482 91.7166 39.1043 91.4466 39.8318C91.3504 40.0843 91.2726 40.366 91.2054 40.6892L91.2064 40.6882H98.4866C98.467 39.78 98.1388 39.0464 97.5111 38.4998C96.877 37.9406 96.0041 37.656 94.9232 37.656ZM128.863 26.6667C129.549 26.6668 130.119 26.8986 130.605 27.3816C131.095 27.8649 131.331 28.4529 131.331 29.1482C131.331 29.8433 131.091 30.4401 130.605 30.9285C130.18 31.3556 129.69 31.5903 129.115 31.6423L128.862 31.6541C128.145 31.6541 127.541 31.4063 127.06 30.9285C126.579 30.4453 126.333 29.8537 126.333 29.1482C126.333 28.4425 126.574 27.8649 127.055 27.3816C127.536 26.9087 128.176 26.6667 128.863 26.6667Z" fill="#0B1013"/>
<path d="M122.529 50.2585H118.498L118.267 48.3591L118.184 47.6492L117.815 48.2605C117.388 48.9661 116.73 49.5482 115.851 49.9919C114.962 50.4461 113.956 50.6726 112.851 50.6726C111.374 50.6725 110.073 50.3372 108.988 49.6814C107.912 49.0308 107.059 48.088 106.45 46.8845C105.846 45.6706 105.537 44.2258 105.536 42.5828C105.536 40.9397 105.851 39.4748 106.469 38.2214C107.088 36.9784 107.971 35.992 109.101 35.2966C110.244 34.5961 111.599 34.24 113.136 34.24C114.123 34.24 115.046 34.4234 115.885 34.783C116.71 35.1332 117.353 35.6112 117.79 36.1931L118.232 36.781H118.233V27.0574H122.529V50.2585ZM94.8929 34.2371C96.5282 34.2371 97.9416 34.5767 99.097 35.2429C100.255 35.9195 101.163 36.87 101.79 38.0798C102.43 39.302 102.752 40.7736 102.752 42.4519V43.7234H91.1253L91.1341 43.7937C91.2592 44.7445 91.5594 45.5045 92.0257 46.0574C92.6887 46.8493 93.7221 47.2507 95.0863 47.2507C96.0802 47.2507 96.9205 47.0734 97.5804 46.7273C98.0561 46.4716 98.4175 46.1423 98.6585 45.738H102.649C102.291 47.1408 101.516 48.263 100.284 49.1453C98.881 50.1534 97.0976 50.6686 94.9866 50.6687C93.4703 50.6687 92.09 50.3125 90.8861 49.614C89.6895 48.9125 88.7331 47.9362 88.0443 46.7078C87.3585 45.4844 87.0052 44.0516 87.0052 42.4509C87.0052 40.8504 87.3439 39.4206 88.013 38.1921C88.6822 36.9636 89.6152 35.9861 90.7933 35.2908C91.9744 34.5925 93.3582 34.2371 94.8929 34.2371ZM85.8958 31.2458H75.974V36.8992H84.3353V40.9587H75.974V50.2585H71.4232V27.0574H85.8958V31.2458ZM131.043 50.2488H126.747V34.7449H131.043V50.2488ZM113.999 38.0437C113.166 38.0437 112.433 38.231 111.82 38.6062C111.196 38.9762 110.706 39.4988 110.367 40.1648C110.032 40.8102 109.861 41.5452 109.861 42.3943C109.861 43.2434 110.032 44.0024 110.367 44.6541C110.706 45.3108 111.191 45.8333 111.82 46.2126C112.442 46.5878 113.199 46.7751 113.999 46.7751C114.8 46.7751 115.526 46.5921 116.164 46.2273C116.793 45.8718 117.299 45.344 117.662 44.6736C118.02 44.0022 118.202 43.2423 118.202 42.3943C118.202 41.5464 118.02 40.7815 117.662 40.1257C117.299 39.4647 116.793 38.9512 116.164 38.5916C115.537 38.2267 114.833 38.0437 113.999 38.0437ZM94.9232 37.656C94.0533 37.656 93.3198 37.8331 92.7406 38.1824C92.1479 38.5482 91.7166 39.1043 91.4466 39.8318C91.3504 40.0843 91.2726 40.366 91.2054 40.6892L91.2064 40.6882H98.4866C98.467 39.78 98.1388 39.0464 97.5111 38.4998C96.877 37.9406 96.0041 37.656 94.9232 37.656ZM128.863 26.6667C129.549 26.6668 130.119 26.8986 130.605 27.3816C131.095 27.8649 131.331 28.4529 131.331 29.1482C131.331 29.8433 131.091 30.4401 130.605 30.9285C130.18 31.3556 129.69 31.5903 129.115 31.6423L128.862 31.6541C128.145 31.6541 127.541 31.4063 127.06 30.9285C126.579 30.4453 126.333 29.8537 126.333 29.1482C126.333 28.4425 126.574 27.8649 127.055 27.3816C127.536 26.9087 128.176 26.6667 128.863 26.6667Z" fill="url(#paint3_radial_5221_5648)" fill-opacity="0.25"/>
<path d="M122.529 50.2585H118.498L118.267 48.3591L118.184 47.6492L117.815 48.2605C117.388 48.9661 116.73 49.5482 115.851 49.9919C114.962 50.4461 113.956 50.6726 112.851 50.6726C111.374 50.6725 110.073 50.3372 108.988 49.6814C107.912 49.0308 107.059 48.088 106.45 46.8845C105.846 45.6706 105.537 44.2258 105.536 42.5828C105.536 40.9397 105.851 39.4748 106.469 38.2214C107.088 36.9784 107.971 35.992 109.101 35.2966C110.244 34.5961 111.599 34.24 113.136 34.24C114.123 34.24 115.046 34.4234 115.885 34.783C116.71 35.1332 117.353 35.6112 117.79 36.1931L118.232 36.781H118.233V27.0574H122.529V50.2585ZM94.8929 34.2371C96.5282 34.2371 97.9416 34.5767 99.097 35.2429C100.255 35.9195 101.163 36.87 101.79 38.0798C102.43 39.302 102.752 40.7736 102.752 42.4519V43.7234H91.1253L91.1341 43.7937C91.2592 44.7445 91.5594 45.5045 92.0257 46.0574C92.6887 46.8493 93.7221 47.2507 95.0863 47.2507C96.0802 47.2507 96.9205 47.0734 97.5804 46.7273C98.0561 46.4716 98.4175 46.1423 98.6585 45.738H102.649C102.291 47.1408 101.516 48.263 100.284 49.1453C98.881 50.1534 97.0976 50.6686 94.9866 50.6687C93.4703 50.6687 92.09 50.3125 90.8861 49.614C89.6895 48.9125 88.7331 47.9362 88.0443 46.7078C87.3585 45.4844 87.0052 44.0516 87.0052 42.4509C87.0052 40.8504 87.3439 39.4206 88.013 38.1921C88.6822 36.9636 89.6152 35.9861 90.7933 35.2908C91.9744 34.5925 93.3582 34.2371 94.8929 34.2371ZM85.8958 31.2458H75.974V36.8992H84.3353V40.9587H75.974V50.2585H71.4232V27.0574H85.8958V31.2458ZM131.043 50.2488H126.747V34.7449H131.043V50.2488ZM113.999 38.0437C113.166 38.0437 112.433 38.231 111.82 38.6062C111.196 38.9762 110.706 39.4988 110.367 40.1648C110.032 40.8102 109.861 41.5452 109.861 42.3943C109.861 43.2434 110.032 44.0024 110.367 44.6541C110.706 45.3108 111.191 45.8333 111.82 46.2126C112.442 46.5878 113.199 46.7751 113.999 46.7751C114.8 46.7751 115.526 46.5921 116.164 46.2273C116.793 45.8718 117.299 45.344 117.662 44.6736C118.02 44.0022 118.202 43.2423 118.202 42.3943C118.202 41.5464 118.02 40.7815 117.662 40.1257C117.299 39.4647 116.793 38.9512 116.164 38.5916C115.537 38.2267 114.833 38.0437 113.999 38.0437ZM94.9232 37.656C94.0533 37.656 93.3198 37.8331 92.7406 38.1824C92.1479 38.5482 91.7166 39.1043 91.4466 39.8318C91.3504 40.0843 91.2726 40.366 91.2054 40.6892L91.2064 40.6882H98.4866C98.467 39.78 98.1388 39.0464 97.5111 38.4998C96.877 37.9406 96.0041 37.656 94.9232 37.656ZM128.863 26.6667C129.549 26.6668 130.119 26.8986 130.605 27.3816C131.095 27.8649 131.331 28.4529 131.331 29.1482C131.331 29.8433 131.091 30.4401 130.605 30.9285C130.18 31.3556 129.69 31.5903 129.115 31.6423L128.862 31.6541C128.145 31.6541 127.541 31.4063 127.06 30.9285C126.579 30.4453 126.333 29.8537 126.333 29.1482C126.333 28.4425 126.574 27.8649 127.055 27.3816C127.536 26.9087 128.176 26.6667 128.863 26.6667Z" fill="url(#paint4_linear_5221_5648)" fill-opacity="0.15"/>
<defs>
<filter id="filter0_d_5221_5648" x="-3.8147e-06" y="8.24928e-05" width="82.6667" height="82.6667" filterUnits="userSpaceOnUse" color-interpolation-filters="sRGB">
<feFlood flood-opacity="0" result="BackgroundImageFix"/>
<feColorMatrix in="SourceAlpha" type="matrix" values="0 0 0 0 0 0 0 0 0 0 0 0 0 0 0 0 0 0 127 0" result="hardAlpha"/>
<feOffset dy="2.66667"/>
<feGaussianBlur stdDeviation="10.6667"/>
<feComposite in2="hardAlpha" operator="out"/>
<feColorMatrix type="matrix" values="0 0 0 0 1 0 0 0 0 1 0 0 0 0 1 0 0 0 1 0"/>
<feBlend mode="normal" in2="BackgroundImageFix" result="effect1_dropShadow_5221_5648"/>
<feBlend mode="normal" in="SourceGraphic" in2="effect1_dropShadow_5221_5648" result="shape"/>
</filter>
<linearGradient id="paint0_linear_5221_5648" x1="41.3333" y1="6.58342" x2="41.3333" y2="58.6667" gradientUnits="userSpaceOnUse">
<stop stop-color="white"/>
<stop offset="1" stop-color="white" stop-opacity="0.04"/>
</linearGradient>
<radialGradient id="paint1_radial_5221_5648" cx="0" cy="0" r="1" gradientTransform="matrix(15.4634 14.3793 -14.3793 17.4046 34.0606 32.3711)" gradientUnits="userSpaceOnUse">
<stop stop-color="#F9EFD2"/>
<stop offset="1" stop-color="#F9EFD2" stop-opacity="0"/>
</radialGradient>
<radialGradient id="paint2_radial_5221_5648" cx="0" cy="0" r="1" gradientTransform="matrix(-13.8189 13.0567 -13.0567 -15.5537 50.5319 29.8949)" gradientUnits="userSpaceOnUse">
<stop stop-color="#FDE7D7"/>
<stop offset="1" stop-color="#FDE9DA" stop-opacity="0"/>
</radialGradient>
<radialGradient id="paint3_radial_5221_5648" cx="0" cy="0" r="1" gradientTransform="matrix(53.855 16.8578 -42.0698 53.3739 75.8331 32.4739)" gradientUnits="userSpaceOnUse">
<stop offset="0.025951" stop-color="#E02020" stop-opacity="0.3"/>
<stop offset="0.197364" stop-color="#F7B500" stop-opacity="0.3"/>
<stop offset="0.33762" stop-color="#6DD400" stop-opacity="0.3"/>
<stop offset="0.470811" stop-color="#0091FF" stop-opacity="0.3"/>
<stop offset="0.591474" stop-color="#FA6400" stop-opacity="0.3"/>
<stop offset="0.736251" stop-color="white" stop-opacity="0.1"/>
<stop offset="0.840157" stop-color="#6236FF" stop-opacity="0.3"/>
<stop offset="1" stop-color="#B620E0" stop-opacity="0.3"/>
</radialGradient>
<linearGradient id="paint4_linear_5221_5648" x1="101.377" y1="26.6667" x2="101.377" y2="40.17" gradientUnits="userSpaceOnUse">
<stop stop-color="white"/>
<stop offset="1" stop-color="white" stop-opacity="0.04"/>
</linearGradient>
<clipPath id="clip0_5221_5648">
<rect x="21.3333" y="18.6667" width="40" height="40" rx="8" fill="white"/>
</clipPath>
</defs>
</svg>
