<svg width="120" height="32" viewBox="0 0 120 32" fill="none" xmlns="http://www.w3.org/2000/svg">
<path fill-rule="evenodd" clip-rule="evenodd" d="M116.652 6.64917C117.583 6.64917 118.356 6.3332 119.015 5.68187C119.675 5.03053 120 4.23507 120 3.30796C120 2.38084 119.68 1.59785 119.015 0.953445C118.356 0.309038 117.583 0 116.652 0C115.721 0 114.854 0.322896 114.202 0.953445C113.55 1.59785 113.223 2.36698 113.223 3.30796C113.223 4.24893 113.555 5.03746 114.208 5.68187C114.86 6.31934 115.679 6.64917 116.651 6.64917H116.652ZM44.9392 31.4471H38.7681V0.512754H58.392V6.09761H44.9392V13.6351H56.2756V19.0481H44.9392V31.4471ZM0 0.526612H20.5355V6.66303H6.2047V31.4207H0V0.526612ZM20.6225 15.9771C20.6225 18.6933 18.3855 20.9037 15.6366 20.9037C12.8806 20.9037 10.6436 18.7003 10.6436 15.9771C10.6436 13.254 12.8876 11.0436 15.6366 11.0436C18.3855 11.0436 20.6225 13.2609 20.6225 15.9771ZM25.0558 25.2899H10.7306V31.4207H31.2661V0.526612H25.0558V25.2899ZM102.233 13.4771L101.634 12.6941C101.041 11.9181 100.17 11.2806 99.0507 10.8136C97.9133 10.3341 96.6609 10.0902 95.3229 10.0902C93.2387 10.0902 91.4015 10.5641 89.8517 11.4982C88.3202 12.4253 87.1224 13.7404 86.2837 15.3979C85.445 17.0692 85.0186 19.0218 85.0186 21.2128C85.0186 23.4038 85.438 25.33 86.2571 26.9487C87.0831 28.5535 88.2402 29.8104 89.6988 30.6779C91.17 31.5524 92.9344 32 94.9372 32C96.4351 32 97.7997 31.6979 99.0045 31.0923C100.197 30.5005 101.089 29.7245 101.668 28.7835L102.167 27.9686L102.281 28.9152L102.593 31.4471H108.059V0.512754H102.234V13.4771H102.233ZM101.46 24.001C100.968 24.8949 100.282 25.5989 99.4294 26.0728C98.5641 26.5593 97.5795 26.8032 96.494 26.8032C95.4084 26.8032 94.3832 26.5537 93.5389 26.0534C92.6862 25.5476 92.0284 24.8505 91.5684 23.9747C91.1153 23.1058 90.8825 22.0942 90.8825 20.9619C90.8825 19.8297 91.1153 18.8499 91.5684 17.9893C92.0284 17.101 92.6932 16.404 93.5389 15.9106C94.3706 15.4103 95.3635 15.1609 96.494 15.1609C97.6244 15.1609 98.5781 15.4048 99.4294 15.8912C100.282 16.3707 100.968 17.0553 101.46 17.9367C101.946 18.8111 102.192 19.8311 102.192 20.9619C102.192 22.0928 101.946 23.1058 101.46 24.001ZM113.783 10.7734H119.607V31.4457H113.783V10.7734ZM70.5938 10.0902C72.8112 10.0902 74.727 10.5433 76.2936 11.4316C77.8644 12.3338 79.0945 13.6005 79.9458 15.2135C80.8139 16.8433 81.2501 18.8056 81.2501 21.0437V22.7386H65.4845L65.4971 22.8328C65.6668 24.1008 66.0736 25.1139 66.7061 25.8511C67.6051 26.9071 69.0062 27.442 70.8561 27.442C72.2039 27.442 73.3428 27.2051 74.2376 26.7436C74.8827 26.4027 75.3722 25.9634 75.699 25.4243H81.1099C80.6246 27.2951 79.5741 28.7918 77.9023 29.9684C76.0005 31.3126 73.5826 31.9986 70.7201 31.9986C68.664 31.9986 66.7931 31.5247 65.1605 30.5934C63.5378 29.658 62.2419 28.3553 61.3078 26.7172C60.378 25.0861 59.8983 23.1765 59.8983 21.0423C59.8983 18.9081 60.3569 17.0013 61.2644 15.3632C62.1718 13.7252 63.4369 12.4225 65.0343 11.4954C66.636 10.5641 68.5125 10.0902 70.5938 10.0902ZM65.9207 17.55C65.7903 17.8868 65.6851 18.2624 65.5939 18.6933L65.5953 18.692H75.4662C75.4395 17.4808 74.9949 16.5024 74.1436 15.7734C73.2839 15.0278 72.1001 14.6481 70.6345 14.6481C69.455 14.6481 68.4606 14.8851 67.6752 15.3507C66.8716 15.8386 66.2868 16.58 65.9207 17.55Z" fill="#0B1013"/>
<path fill-rule="evenodd" clip-rule="evenodd" d="M116.652 6.64917C117.583 6.64917 118.356 6.3332 119.015 5.68187C119.675 5.03053 120 4.23507 120 3.30796C120 2.38084 119.68 1.59785 119.015 0.953445C118.356 0.309038 117.583 0 116.652 0C115.721 0 114.854 0.322896 114.202 0.953445C113.55 1.59785 113.223 2.36698 113.223 3.30796C113.223 4.24893 113.555 5.03746 114.208 5.68187C114.86 6.31934 115.679 6.64917 116.651 6.64917H116.652ZM44.9392 31.4471H38.7681V0.512754H58.392V6.09761H44.9392V13.6351H56.2756V19.0481H44.9392V31.4471ZM0 0.526612H20.5355V6.66303H6.2047V31.4207H0V0.526612ZM20.6225 15.9771C20.6225 18.6933 18.3855 20.9037 15.6366 20.9037C12.8806 20.9037 10.6436 18.7003 10.6436 15.9771C10.6436 13.254 12.8876 11.0436 15.6366 11.0436C18.3855 11.0436 20.6225 13.2609 20.6225 15.9771ZM25.0558 25.2899H10.7306V31.4207H31.2661V0.526612H25.0558V25.2899ZM102.233 13.4771L101.634 12.6941C101.041 11.9181 100.17 11.2806 99.0507 10.8136C97.9133 10.3341 96.6609 10.0902 95.3229 10.0902C93.2387 10.0902 91.4015 10.5641 89.8517 11.4982C88.3202 12.4253 87.1224 13.7404 86.2837 15.3979C85.445 17.0692 85.0186 19.0218 85.0186 21.2128C85.0186 23.4038 85.438 25.33 86.2571 26.9487C87.0831 28.5535 88.2402 29.8104 89.6988 30.6779C91.17 31.5524 92.9344 32 94.9372 32C96.4351 32 97.7997 31.6979 99.0045 31.0923C100.197 30.5005 101.089 29.7245 101.668 28.7835L102.167 27.9686L102.281 28.9152L102.593 31.4471H108.059V0.512754H102.234V13.4771H102.233ZM101.46 24.001C100.968 24.8949 100.282 25.5989 99.4294 26.0728C98.5641 26.5593 97.5795 26.8032 96.494 26.8032C95.4084 26.8032 94.3832 26.5537 93.5389 26.0534C92.6862 25.5476 92.0284 24.8505 91.5684 23.9747C91.1153 23.1058 90.8825 22.0942 90.8825 20.9619C90.8825 19.8297 91.1153 18.8499 91.5684 17.9893C92.0284 17.101 92.6932 16.404 93.5389 15.9106C94.3706 15.4103 95.3635 15.1609 96.494 15.1609C97.6244 15.1609 98.5781 15.4048 99.4294 15.8912C100.282 16.3707 100.968 17.0553 101.46 17.9367C101.946 18.8111 102.192 19.8311 102.192 20.9619C102.192 22.0928 101.946 23.1058 101.46 24.001ZM113.783 10.7734H119.607V31.4457H113.783V10.7734ZM70.5938 10.0902C72.8112 10.0902 74.727 10.5433 76.2936 11.4316C77.8644 12.3338 79.0945 13.6005 79.9458 15.2135C80.8139 16.8433 81.2501 18.8056 81.2501 21.0437V22.7386H65.4845L65.4971 22.8328C65.6668 24.1008 66.0736 25.1139 66.7061 25.8511C67.6051 26.9071 69.0062 27.442 70.8561 27.442C72.2039 27.442 73.3428 27.2051 74.2376 26.7436C74.8827 26.4027 75.3722 25.9634 75.699 25.4243H81.1099C80.6246 27.2951 79.5741 28.7918 77.9023 29.9684C76.0005 31.3126 73.5826 31.9986 70.7201 31.9986C68.664 31.9986 66.7931 31.5247 65.1605 30.5934C63.5378 29.658 62.2419 28.3553 61.3078 26.7172C60.378 25.0861 59.8983 23.1765 59.8983 21.0423C59.8983 18.9081 60.3569 17.0013 61.2644 15.3632C62.1718 13.7252 63.4369 12.4225 65.0343 11.4954C66.636 10.5641 68.5125 10.0902 70.5938 10.0902ZM65.9207 17.55C65.7903 17.8868 65.6851 18.2624 65.5939 18.6933L65.5953 18.692H75.4662C75.4395 17.4808 74.9949 16.5024 74.1436 15.7734C73.2839 15.0278 72.1001 14.6481 70.6345 14.6481C69.455 14.6481 68.4606 14.8851 67.6752 15.3507C66.8716 15.8386 66.2868 16.58 65.9207 17.55Z" fill="url(#paint0_radial_7343_33088)" fill-opacity="0.25"/>
<path fill-rule="evenodd" clip-rule="evenodd" d="M116.652 6.64917C117.583 6.64917 118.356 6.3332 119.015 5.68187C119.675 5.03053 120 4.23507 120 3.30796C120 2.38084 119.68 1.59785 119.015 0.953445C118.356 0.309038 117.583 0 116.652 0C115.721 0 114.854 0.322896 114.202 0.953445C113.55 1.59785 113.223 2.36698 113.223 3.30796C113.223 4.24893 113.555 5.03746 114.208 5.68187C114.86 6.31934 115.679 6.64917 116.651 6.64917H116.652ZM44.9392 31.4471H38.7681V0.512754H58.392V6.09761H44.9392V13.6351H56.2756V19.0481H44.9392V31.4471ZM0 0.526612H20.5355V6.66303H6.2047V31.4207H0V0.526612ZM20.6225 15.9771C20.6225 18.6933 18.3855 20.9037 15.6366 20.9037C12.8806 20.9037 10.6436 18.7003 10.6436 15.9771C10.6436 13.254 12.8876 11.0436 15.6366 11.0436C18.3855 11.0436 20.6225 13.2609 20.6225 15.9771ZM25.0558 25.2899H10.7306V31.4207H31.2661V0.526612H25.0558V25.2899ZM102.233 13.4771L101.634 12.6941C101.041 11.9181 100.17 11.2806 99.0507 10.8136C97.9133 10.3341 96.6609 10.0902 95.3229 10.0902C93.2387 10.0902 91.4015 10.5641 89.8517 11.4982C88.3202 12.4253 87.1224 13.7404 86.2837 15.3979C85.445 17.0692 85.0186 19.0218 85.0186 21.2128C85.0186 23.4038 85.438 25.33 86.2571 26.9487C87.0831 28.5535 88.2402 29.8104 89.6988 30.6779C91.17 31.5524 92.9344 32 94.9372 32C96.4351 32 97.7997 31.6979 99.0045 31.0923C100.197 30.5005 101.089 29.7245 101.668 28.7835L102.167 27.9686L102.281 28.9152L102.593 31.4471H108.059V0.512754H102.234V13.4771H102.233ZM101.46 24.001C100.968 24.8949 100.282 25.5989 99.4294 26.0728C98.5641 26.5593 97.5795 26.8032 96.494 26.8032C95.4084 26.8032 94.3832 26.5537 93.5389 26.0534C92.6862 25.5476 92.0284 24.8505 91.5684 23.9747C91.1153 23.1058 90.8825 22.0942 90.8825 20.9619C90.8825 19.8297 91.1153 18.8499 91.5684 17.9893C92.0284 17.101 92.6932 16.404 93.5389 15.9106C94.3706 15.4103 95.3635 15.1609 96.494 15.1609C97.6244 15.1609 98.5781 15.4048 99.4294 15.8912C100.282 16.3707 100.968 17.0553 101.46 17.9367C101.946 18.8111 102.192 19.8311 102.192 20.9619C102.192 22.0928 101.946 23.1058 101.46 24.001ZM113.783 10.7734H119.607V31.4457H113.783V10.7734ZM70.5938 10.0902C72.8112 10.0902 74.727 10.5433 76.2936 11.4316C77.8644 12.3338 79.0945 13.6005 79.9458 15.2135C80.8139 16.8433 81.2501 18.8056 81.2501 21.0437V22.7386H65.4845L65.4971 22.8328C65.6668 24.1008 66.0736 25.1139 66.7061 25.8511C67.6051 26.9071 69.0062 27.442 70.8561 27.442C72.2039 27.442 73.3428 27.2051 74.2376 26.7436C74.8827 26.4027 75.3722 25.9634 75.699 25.4243H81.1099C80.6246 27.2951 79.5741 28.7918 77.9023 29.9684C76.0005 31.3126 73.5826 31.9986 70.7201 31.9986C68.664 31.9986 66.7931 31.5247 65.1605 30.5934C63.5378 29.658 62.2419 28.3553 61.3078 26.7172C60.378 25.0861 59.8983 23.1765 59.8983 21.0423C59.8983 18.9081 60.3569 17.0013 61.2644 15.3632C62.1718 13.7252 63.4369 12.4225 65.0343 11.4954C66.636 10.5641 68.5125 10.0902 70.5938 10.0902ZM65.9207 17.55C65.7903 17.8868 65.6851 18.2624 65.5939 18.6933L65.5953 18.692H75.4662C75.4395 17.4808 74.9949 16.5024 74.1436 15.7734C73.2839 15.0278 72.1001 14.6481 70.6345 14.6481C69.455 14.6481 68.4606 14.8851 67.6752 15.3507C66.8716 15.8386 66.2868 16.58 65.9207 17.55Z" fill="url(#paint1_linear_7343_33088)" fill-opacity="0.15"/>
<defs>
<radialGradient id="paint0_radial_7343_33088" cx="0" cy="0" r="1" gradientUnits="userSpaceOnUse" gradientTransform="translate(8.83334 7.741) rotate(11.7671) scale(110.191 86.8379)">
<stop offset="0.025951" stop-color="#E02020" stop-opacity="0.3"/>
<stop offset="0.197364" stop-color="#F7B500" stop-opacity="0.3"/>
<stop offset="0.33762" stop-color="#6DD400" stop-opacity="0.3"/>
<stop offset="0.470811" stop-color="#0091FF" stop-opacity="0.3"/>
<stop offset="0.591474" stop-color="#FA6400" stop-opacity="0.3"/>
<stop offset="0.736251" stop-color="white" stop-opacity="0.1"/>
<stop offset="0.840157" stop-color="#6236FF" stop-opacity="0.3"/>
<stop offset="1" stop-color="#B620E0" stop-opacity="0.3"/>
</radialGradient>
<linearGradient id="paint1_linear_7343_33088" x1="60" y1="0" x2="60" y2="18" gradientUnits="userSpaceOnUse">
<stop stop-color="white"/>
<stop offset="1" stop-color="white" stop-opacity="0"/>
</linearGradient>
</defs>
</svg>
