<svg width="48" height="48" viewBox="0 0 48 48" fill="none" xmlns="http://www.w3.org/2000/svg">
<path fill-rule="evenodd" clip-rule="evenodd" d="M31.5263 0H0V48H9.52549V9.53411H31.5263V0ZM24.0054 31.6598C28.2255 31.6598 31.6598 28.2255 31.6598 24.0053C31.6598 19.7852 28.2255 16.3402 24.0054 16.3402C19.7852 16.3402 16.3402 19.7744 16.3402 24.0053C16.3402 28.2363 19.7744 31.6598 24.0054 31.6598ZM16.4737 38.4745H38.4659V0H48V48H16.4737V38.4745Z" fill="#0B1013" fill-opacity="0.9"/>
<path fill-rule="evenodd" clip-rule="evenodd" d="M31.5263 0H0V48H9.52549V9.53411H31.5263V0ZM24.0054 31.6598C28.2255 31.6598 31.6598 28.2255 31.6598 24.0053C31.6598 19.7852 28.2255 16.3402 24.0054 16.3402C19.7852 16.3402 16.3402 19.7744 16.3402 24.0053C16.3402 28.2363 19.7744 31.6598 24.0054 31.6598ZM16.4737 38.4745H38.4659V0H48V48H16.4737V38.4745Z" fill="url(#paint0_radial_1521_22634)" fill-opacity="0.45"/>
<path fill-rule="evenodd" clip-rule="evenodd" d="M31.5263 0H0V48H9.52549V9.53411H31.5263V0ZM24.0054 31.6598C28.2255 31.6598 31.6598 28.2255 31.6598 24.0053C31.6598 19.7852 28.2255 16.3402 24.0054 16.3402C19.7852 16.3402 16.3402 19.7744 16.3402 24.0053C16.3402 28.2363 19.7744 31.6598 24.0054 31.6598ZM16.4737 38.4745H38.4659V0H48V48H16.4737V38.4745Z" fill="url(#paint1_linear_1521_22634)" fill-opacity="0.15"/>
<defs>
<radialGradient id="paint0_radial_1521_22634" cx="0" cy="0" r="1" gradientUnits="userSpaceOnUse" gradientTransform="translate(3.53333 11.6115) rotate(37.9959) scale(54.755 104.853)">
<stop offset="0.025951" stop-color="#E02020" stop-opacity="0.3"/>
<stop offset="0.197364" stop-color="#F7B500" stop-opacity="0.3"/>
<stop offset="0.33762" stop-color="#6DD400" stop-opacity="0.3"/>
<stop offset="0.470811" stop-color="#0091FF" stop-opacity="0.3"/>
<stop offset="0.591474" stop-color="#FA6400" stop-opacity="0.3"/>
<stop offset="0.736251" stop-color="white" stop-opacity="0.1"/>
<stop offset="0.840157" stop-color="#6236FF" stop-opacity="0.3"/>
<stop offset="1" stop-color="#B620E0" stop-opacity="0.3"/>
</radialGradient>
<linearGradient id="paint1_linear_1521_22634" x1="24" y1="0" x2="24" y2="27" gradientUnits="userSpaceOnUse">
<stop stop-color="white"/>
<stop offset="1" stop-color="white" stop-opacity="0"/>
</linearGradient>
</defs>
</svg>
