<svg width="24" height="24" viewBox="0 0 24 24" fill="none" xmlns="http://www.w3.org/2000/svg">
<path d="M12 6.49694C13.0761 6.49695 14.1285 6.81244 15.027 7.40434C15.9254 7.99625 16.6304 8.83856 17.0546 9.82696C17.4788 10.8154 17.6036 11.9064 17.4135 12.965C17.2234 14.0236 16.7268 15.0031 15.9851 15.7824C15.2435 16.5617 14.2894 17.1064 13.2411 17.3491C12.1928 17.5917 11.0962 17.5217 10.0873 17.1477C9.07838 16.7737 8.20141 16.1121 7.56499 15.2449C6.92857 14.3777 6.56068 13.3429 6.50688 12.2687L6.5 11.9939L6.50688 11.719C6.57743 10.3105 7.18696 8.98295 8.20938 8.01097C9.23181 7.03899 10.5889 6.49694 12 6.49694Z" fill="currentColor"/>
<path d="M12 6.49694C13.0761 6.49695 14.1285 6.81244 15.027 7.40434C15.9254 7.99625 16.6304 8.83856 17.0546 9.82696C17.4788 10.8154 17.6036 11.9064 17.4135 12.965C17.2234 14.0236 16.7268 15.0031 15.9851 15.7824C15.2435 16.5617 14.2894 17.1064 13.2411 17.3491C12.1928 17.5917 11.0962 17.5217 10.0873 17.1477C9.07838 16.7737 8.20141 16.1121 7.56499 15.2449C6.92857 14.3777 6.56068 13.3429 6.50688 12.2687L6.5 11.9939L6.50688 11.719C6.57743 10.3105 7.18696 8.98295 8.20938 8.01097C9.23181 7.03899 10.5889 6.49694 12 6.49694Z" fill="url(#paint0_radial_1502_19720)" fill-opacity="0.25"/>
<path d="M12 6.49694C13.0761 6.49695 14.1285 6.81244 15.027 7.40434C15.9254 7.99625 16.6304 8.83856 17.0546 9.82696C17.4788 10.8154 17.6036 11.9064 17.4135 12.965C17.2234 14.0236 16.7268 15.0031 15.9851 15.7824C15.2435 16.5617 14.2894 17.1064 13.2411 17.3491C12.1928 17.5917 11.0962 17.5217 10.0873 17.1477C9.07838 16.7737 8.20141 16.1121 7.56499 15.2449C6.92857 14.3777 6.56068 13.3429 6.50688 12.2687L6.5 11.9939L6.50688 11.719C6.57743 10.3105 7.18696 8.98295 8.20938 8.01097C9.23181 7.03899 10.5889 6.49694 12 6.49694Z" fill="url(#paint1_linear_1502_19720)" fill-opacity="0.15"/>
<path d="M12 1C12.3368 1.00004 12.6618 1.12362 12.9135 1.34729C13.1652 1.57096 13.326 1.87917 13.3654 2.21345L13.375 2.38798C13.3746 2.73824 13.2404 3.07514 12.9998 3.32984C12.7593 3.58453 12.4304 3.7378 12.0806 3.75833C11.7307 3.77886 11.3862 3.66509 11.1175 3.44028C10.8487 3.21547 10.676 2.89658 10.6346 2.54876L10.625 2.37424C10.625 2.00977 10.7699 1.66022 11.0277 1.4025C11.2856 1.14479 11.6353 1 12 1Z" fill="currentColor"/>
<path d="M12 1C12.3368 1.00004 12.6618 1.12362 12.9135 1.34729C13.1652 1.57096 13.326 1.87917 13.3654 2.21345L13.375 2.38798C13.3746 2.73824 13.2404 3.07514 12.9998 3.32984C12.7593 3.58453 12.4304 3.7378 12.0806 3.75833C11.7307 3.77886 11.3862 3.66509 11.1175 3.44028C10.8487 3.21547 10.676 2.89658 10.6346 2.54876L10.625 2.37424C10.625 2.00977 10.7699 1.66022 11.0277 1.4025C11.2856 1.14479 11.6353 1 12 1Z" fill="url(#paint2_radial_1502_19720)" fill-opacity="0.25"/>
<path d="M12 1C12.3368 1.00004 12.6618 1.12362 12.9135 1.34729C13.1652 1.57096 13.326 1.87917 13.3654 2.21345L13.375 2.38798C13.3746 2.73824 13.2404 3.07514 12.9998 3.32984C12.7593 3.58453 12.4304 3.7378 12.0806 3.75833C11.7307 3.77886 11.3862 3.66509 11.1175 3.44028C10.8487 3.21547 10.676 2.89658 10.6346 2.54876L10.625 2.37424C10.625 2.00977 10.7699 1.66022 11.0277 1.4025C11.2856 1.14479 11.6353 1 12 1Z" fill="url(#paint3_linear_1502_19720)" fill-opacity="0.15"/>
<path d="M18.875 3.74847C19.2118 3.74852 19.5368 3.87209 19.7885 4.09576C20.0402 4.31943 20.201 4.62764 20.2404 4.96192L20.25 5.13645C20.2496 5.48672 20.1154 5.82361 19.8748 6.07831C19.6343 6.333 19.3054 6.48627 18.9556 6.5068C18.6057 6.52733 18.2612 6.41356 17.9925 6.18875C17.7237 5.96394 17.551 5.64505 17.5096 5.29724L17.5 5.12271C17.5 4.75824 17.6449 4.4087 17.9027 4.15098C18.1606 3.89326 18.5103 3.74847 18.875 3.74847Z" fill="currentColor"/>
<path d="M18.875 3.74847C19.2118 3.74852 19.5368 3.87209 19.7885 4.09576C20.0402 4.31943 20.201 4.62764 20.2404 4.96192L20.25 5.13645C20.2496 5.48672 20.1154 5.82361 19.8748 6.07831C19.6343 6.333 19.3054 6.48627 18.9556 6.5068C18.6057 6.52733 18.2612 6.41356 17.9925 6.18875C17.7237 5.96394 17.551 5.64505 17.5096 5.29724L17.5 5.12271C17.5 4.75824 17.6449 4.4087 17.9027 4.15098C18.1606 3.89326 18.5103 3.74847 18.875 3.74847Z" fill="url(#paint4_radial_1502_19720)" fill-opacity="0.25"/>
<path d="M18.875 3.74847C19.2118 3.74852 19.5368 3.87209 19.7885 4.09576C20.0402 4.31943 20.201 4.62764 20.2404 4.96192L20.25 5.13645C20.2496 5.48672 20.1154 5.82361 19.8748 6.07831C19.6343 6.333 19.3054 6.48627 18.9556 6.5068C18.6057 6.52733 18.2612 6.41356 17.9925 6.18875C17.7237 5.96394 17.551 5.64505 17.5096 5.29724L17.5 5.12271C17.5 4.75824 17.6449 4.4087 17.9027 4.15098C18.1606 3.89326 18.5103 3.74847 18.875 3.74847Z" fill="url(#paint5_linear_1502_19720)" fill-opacity="0.15"/>
<path d="M21.625 10.6197C21.9618 10.6197 22.2868 10.7433 22.5385 10.9669C22.7902 11.1906 22.951 11.4988 22.9904 11.8331L23 12.0076C22.9996 12.3579 22.8654 12.6948 22.6248 12.9495C22.3843 13.2042 22.0554 13.3575 21.7056 13.378C21.3557 13.3985 21.0112 13.2847 20.7425 13.0599C20.4737 12.8351 20.301 12.5162 20.2596 12.1684L20.25 11.9939C20.25 11.6294 20.3949 11.2799 20.6527 11.0222C20.9106 10.7644 21.2603 10.6197 21.625 10.6197Z" fill="currentColor"/>
<path d="M21.625 10.6197C21.9618 10.6197 22.2868 10.7433 22.5385 10.9669C22.7902 11.1906 22.951 11.4988 22.9904 11.8331L23 12.0076C22.9996 12.3579 22.8654 12.6948 22.6248 12.9495C22.3843 13.2042 22.0554 13.3575 21.7056 13.378C21.3557 13.3985 21.0112 13.2847 20.7425 13.0599C20.4737 12.8351 20.301 12.5162 20.2596 12.1684L20.25 11.9939C20.25 11.6294 20.3949 11.2799 20.6527 11.0222C20.9106 10.7644 21.2603 10.6197 21.625 10.6197Z" fill="url(#paint6_radial_1502_19720)" fill-opacity="0.25"/>
<path d="M21.625 10.6197C21.9618 10.6197 22.2868 10.7433 22.5385 10.9669C22.7902 11.1906 22.951 11.4988 22.9904 11.8331L23 12.0076C22.9996 12.3579 22.8654 12.6948 22.6248 12.9495C22.3843 13.2042 22.0554 13.3575 21.7056 13.378C21.3557 13.3985 21.0112 13.2847 20.7425 13.0599C20.4737 12.8351 20.301 12.5162 20.2596 12.1684L20.25 11.9939C20.25 11.6294 20.3949 11.2799 20.6527 11.0222C20.9106 10.7644 21.2603 10.6197 21.625 10.6197Z" fill="url(#paint7_linear_1502_19720)" fill-opacity="0.15"/>
<path d="M18.875 17.4908C19.2118 17.4909 19.5368 17.6145 19.7885 17.8381C20.0402 18.0618 20.201 18.37 20.2404 18.7043L20.25 18.8788C20.2496 19.2291 20.1154 19.566 19.8748 19.8207C19.6343 20.0754 19.3054 20.2286 18.9556 20.2492C18.6057 20.2697 18.2612 20.1559 17.9925 19.9311C17.7237 19.7063 17.551 19.3874 17.5096 19.0396L17.5 18.8651C17.5 18.5006 17.6449 18.1511 17.9027 17.8933C18.1606 17.6356 18.5103 17.4908 18.875 17.4908Z" fill="currentColor"/>
<path d="M18.875 17.4908C19.2118 17.4909 19.5368 17.6145 19.7885 17.8381C20.0402 18.0618 20.201 18.37 20.2404 18.7043L20.25 18.8788C20.2496 19.2291 20.1154 19.566 19.8748 19.8207C19.6343 20.0754 19.3054 20.2286 18.9556 20.2492C18.6057 20.2697 18.2612 20.1559 17.9925 19.9311C17.7237 19.7063 17.551 19.3874 17.5096 19.0396L17.5 18.8651C17.5 18.5006 17.6449 18.1511 17.9027 17.8933C18.1606 17.6356 18.5103 17.4908 18.875 17.4908Z" fill="url(#paint8_radial_1502_19720)" fill-opacity="0.25"/>
<path d="M18.875 17.4908C19.2118 17.4909 19.5368 17.6145 19.7885 17.8381C20.0402 18.0618 20.201 18.37 20.2404 18.7043L20.25 18.8788C20.2496 19.2291 20.1154 19.566 19.8748 19.8207C19.6343 20.0754 19.3054 20.2286 18.9556 20.2492C18.6057 20.2697 18.2612 20.1559 17.9925 19.9311C17.7237 19.7063 17.551 19.3874 17.5096 19.0396L17.5 18.8651C17.5 18.5006 17.6449 18.1511 17.9027 17.8933C18.1606 17.6356 18.5103 17.4908 18.875 17.4908Z" fill="url(#paint9_linear_1502_19720)" fill-opacity="0.15"/>
<path d="M12 20.2393C12.3368 20.2394 12.6618 20.3629 12.9135 20.5866C13.1652 20.8103 13.326 21.1185 13.3654 21.4528L13.375 21.6273C13.3746 21.9776 13.2404 22.3144 12.9998 22.5691C12.7593 22.8238 12.4304 22.9771 12.0806 22.9976C11.7307 23.0182 11.3862 22.9044 11.1175 22.6796C10.8487 22.4548 10.676 22.1359 10.6346 21.7881L10.625 21.6135C10.625 21.2491 10.7699 20.8995 11.0277 20.6418C11.2856 20.3841 11.6353 20.2393 12 20.2393Z" fill="currentColor"/>
<path d="M12 20.2393C12.3368 20.2394 12.6618 20.3629 12.9135 20.5866C13.1652 20.8103 13.326 21.1185 13.3654 21.4528L13.375 21.6273C13.3746 21.9776 13.2404 22.3144 12.9998 22.5691C12.7593 22.8238 12.4304 22.9771 12.0806 22.9976C11.7307 23.0182 11.3862 22.9044 11.1175 22.6796C10.8487 22.4548 10.676 22.1359 10.6346 21.7881L10.625 21.6135C10.625 21.2491 10.7699 20.8995 11.0277 20.6418C11.2856 20.3841 11.6353 20.2393 12 20.2393Z" fill="url(#paint10_radial_1502_19720)" fill-opacity="0.25"/>
<path d="M12 20.2393C12.3368 20.2394 12.6618 20.3629 12.9135 20.5866C13.1652 20.8103 13.326 21.1185 13.3654 21.4528L13.375 21.6273C13.3746 21.9776 13.2404 22.3144 12.9998 22.5691C12.7593 22.8238 12.4304 22.9771 12.0806 22.9976C11.7307 23.0182 11.3862 22.9044 11.1175 22.6796C10.8487 22.4548 10.676 22.1359 10.6346 21.7881L10.625 21.6135C10.625 21.2491 10.7699 20.8995 11.0277 20.6418C11.2856 20.3841 11.6353 20.2393 12 20.2393Z" fill="url(#paint11_linear_1502_19720)" fill-opacity="0.15"/>
<path d="M5.125 17.4908C5.46178 17.4909 5.78684 17.6145 6.03851 17.8381C6.29018 18.0618 6.45097 18.37 6.49038 18.7043L6.5 18.8788C6.49961 19.2291 6.36542 19.566 6.12483 19.8207C5.88425 20.0754 5.55544 20.2286 5.20558 20.2492C4.85572 20.2697 4.51123 20.1559 4.24248 19.9311C3.97373 19.7063 3.80102 19.3874 3.75962 19.0396L3.75 18.8651C3.75 18.5006 3.89487 18.1511 4.15273 17.8933C4.41059 17.6356 4.76033 17.4908 5.125 17.4908Z" fill="currentColor"/>
<path d="M5.125 17.4908C5.46178 17.4909 5.78684 17.6145 6.03851 17.8381C6.29018 18.0618 6.45097 18.37 6.49038 18.7043L6.5 18.8788C6.49961 19.2291 6.36542 19.566 6.12483 19.8207C5.88425 20.0754 5.55544 20.2286 5.20558 20.2492C4.85572 20.2697 4.51123 20.1559 4.24248 19.9311C3.97373 19.7063 3.80102 19.3874 3.75962 19.0396L3.75 18.8651C3.75 18.5006 3.89487 18.1511 4.15273 17.8933C4.41059 17.6356 4.76033 17.4908 5.125 17.4908Z" fill="url(#paint12_radial_1502_19720)" fill-opacity="0.25"/>
<path d="M5.125 17.4908C5.46178 17.4909 5.78684 17.6145 6.03851 17.8381C6.29018 18.0618 6.45097 18.37 6.49038 18.7043L6.5 18.8788C6.49961 19.2291 6.36542 19.566 6.12483 19.8207C5.88425 20.0754 5.55544 20.2286 5.20558 20.2492C4.85572 20.2697 4.51123 20.1559 4.24248 19.9311C3.97373 19.7063 3.80102 19.3874 3.75962 19.0396L3.75 18.8651C3.75 18.5006 3.89487 18.1511 4.15273 17.8933C4.41059 17.6356 4.76033 17.4908 5.125 17.4908Z" fill="url(#paint13_linear_1502_19720)" fill-opacity="0.15"/>
<path d="M2.375 10.6197C2.71178 10.6197 3.03684 10.7433 3.28851 10.9669C3.54018 11.1906 3.70097 11.4988 3.74038 11.8331L3.75 12.0076C3.74961 12.3579 3.61542 12.6948 3.37483 12.9495C3.13425 13.2042 2.80544 13.3575 2.45558 13.378C2.10572 13.3985 1.76123 13.2847 1.49248 13.0599C1.22373 12.8351 1.05102 12.5162 1.00962 12.1684L1 11.9939C1 11.6294 1.14487 11.2799 1.40273 11.0222C1.66059 10.7644 2.01033 10.6197 2.375 10.6197Z" fill="currentColor"/>
<path d="M2.375 10.6197C2.71178 10.6197 3.03684 10.7433 3.28851 10.9669C3.54018 11.1906 3.70097 11.4988 3.74038 11.8331L3.75 12.0076C3.74961 12.3579 3.61542 12.6948 3.37483 12.9495C3.13425 13.2042 2.80544 13.3575 2.45558 13.378C2.10572 13.3985 1.76123 13.2847 1.49248 13.0599C1.22373 12.8351 1.05102 12.5162 1.00962 12.1684L1 11.9939C1 11.6294 1.14487 11.2799 1.40273 11.0222C1.66059 10.7644 2.01033 10.6197 2.375 10.6197Z" fill="url(#paint14_radial_1502_19720)" fill-opacity="0.25"/>
<path d="M2.375 10.6197C2.71178 10.6197 3.03684 10.7433 3.28851 10.9669C3.54018 11.1906 3.70097 11.4988 3.74038 11.8331L3.75 12.0076C3.74961 12.3579 3.61542 12.6948 3.37483 12.9495C3.13425 13.2042 2.80544 13.3575 2.45558 13.378C2.10572 13.3985 1.76123 13.2847 1.49248 13.0599C1.22373 12.8351 1.05102 12.5162 1.00962 12.1684L1 11.9939C1 11.6294 1.14487 11.2799 1.40273 11.0222C1.66059 10.7644 2.01033 10.6197 2.375 10.6197Z" fill="url(#paint15_linear_1502_19720)" fill-opacity="0.15"/>
<path d="M5.125 3.74847C5.46178 3.74852 5.78684 3.87209 6.03851 4.09576C6.29018 4.31943 6.45097 4.62764 6.49038 4.96192L6.5 5.13645C6.49961 5.48672 6.36542 5.82361 6.12483 6.07831C5.88425 6.333 5.55544 6.48627 5.20558 6.5068C4.85572 6.52733 4.51123 6.41356 4.24248 6.18875C3.97373 5.96394 3.80102 5.64505 3.75962 5.29724L3.75 5.12271C3.75 4.75824 3.89487 4.4087 4.15273 4.15098C4.41059 3.89326 4.76033 3.74847 5.125 3.74847Z" fill="currentColor"/>
<path d="M5.125 3.74847C5.46178 3.74852 5.78684 3.87209 6.03851 4.09576C6.29018 4.31943 6.45097 4.62764 6.49038 4.96192L6.5 5.13645C6.49961 5.48672 6.36542 5.82361 6.12483 6.07831C5.88425 6.333 5.55544 6.48627 5.20558 6.5068C4.85572 6.52733 4.51123 6.41356 4.24248 6.18875C3.97373 5.96394 3.80102 5.64505 3.75962 5.29724L3.75 5.12271C3.75 4.75824 3.89487 4.4087 4.15273 4.15098C4.41059 3.89326 4.76033 3.74847 5.125 3.74847Z" fill="url(#paint16_radial_1502_19720)" fill-opacity="0.25"/>
<path d="M5.125 3.74847C5.46178 3.74852 5.78684 3.87209 6.03851 4.09576C6.29018 4.31943 6.45097 4.62764 6.49038 4.96192L6.5 5.13645C6.49961 5.48672 6.36542 5.82361 6.12483 6.07831C5.88425 6.333 5.55544 6.48627 5.20558 6.5068C4.85572 6.52733 4.51123 6.41356 4.24248 6.18875C3.97373 5.96394 3.80102 5.64505 3.75962 5.29724L3.75 5.12271C3.75 4.75824 3.89487 4.4087 4.15273 4.15098C4.41059 3.89326 4.76033 3.74847 5.125 3.74847Z" fill="url(#paint17_linear_1502_19720)" fill-opacity="0.15"/>
<path d="M12 6.49694C13.0761 6.49695 14.1285 6.81244 15.027 7.40434C15.9254 7.99625 16.6304 8.83856 17.0546 9.82696C17.4788 10.8154 17.6036 11.9064 17.4135 12.965C17.2234 14.0236 16.7268 15.0031 15.9851 15.7824C15.2435 16.5617 14.2894 17.1064 13.2411 17.3491C12.1928 17.5917 11.0962 17.5217 10.0873 17.1477C9.07838 16.7737 8.20141 16.1121 7.56499 15.2449C6.92857 14.3777 6.56068 13.3429 6.50688 12.2687L6.5 11.9939L6.50688 11.719C6.57743 10.3105 7.18696 8.98295 8.20938 8.01097C9.23181 7.03899 10.5889 6.49694 12 6.49694Z" stroke="currentColor"/>
<path d="M12 6.49694C13.0761 6.49695 14.1285 6.81244 15.027 7.40434C15.9254 7.99625 16.6304 8.83856 17.0546 9.82696C17.4788 10.8154 17.6036 11.9064 17.4135 12.965C17.2234 14.0236 16.7268 15.0031 15.9851 15.7824C15.2435 16.5617 14.2894 17.1064 13.2411 17.3491C12.1928 17.5917 11.0962 17.5217 10.0873 17.1477C9.07838 16.7737 8.20141 16.1121 7.56499 15.2449C6.92857 14.3777 6.56068 13.3429 6.50688 12.2687L6.5 11.9939L6.50688 11.719C6.57743 10.3105 7.18696 8.98295 8.20938 8.01097C9.23181 7.03899 10.5889 6.49694 12 6.49694Z" stroke="url(#paint18_radial_1502_19720)" stroke-opacity="0.25"/>
<path d="M12 6.49694C13.0761 6.49695 14.1285 6.81244 15.027 7.40434C15.9254 7.99625 16.6304 8.83856 17.0546 9.82696C17.4788 10.8154 17.6036 11.9064 17.4135 12.965C17.2234 14.0236 16.7268 15.0031 15.9851 15.7824C15.2435 16.5617 14.2894 17.1064 13.2411 17.3491C12.1928 17.5917 11.0962 17.5217 10.0873 17.1477C9.07838 16.7737 8.20141 16.1121 7.56499 15.2449C6.92857 14.3777 6.56068 13.3429 6.50688 12.2687L6.5 11.9939L6.50688 11.719C6.57743 10.3105 7.18696 8.98295 8.20938 8.01097C9.23181 7.03899 10.5889 6.49694 12 6.49694Z" stroke="url(#paint19_linear_1502_19720)" stroke-opacity="0.15"/>
<path d="M12 1C12.3368 1.00004 12.6618 1.12362 12.9135 1.34729C13.1652 1.57096 13.326 1.87917 13.3654 2.21345L13.375 2.38798C13.3746 2.73824 13.2404 3.07514 12.9998 3.32984C12.7593 3.58453 12.4304 3.7378 12.0806 3.75833C11.7307 3.77886 11.3862 3.66509 11.1175 3.44028C10.8487 3.21547 10.676 2.89658 10.6346 2.54876L10.625 2.37424C10.625 2.00977 10.7699 1.66022 11.0277 1.4025C11.2856 1.14479 11.6353 1 12 1Z" stroke="currentColor"/>
<path d="M12 1C12.3368 1.00004 12.6618 1.12362 12.9135 1.34729C13.1652 1.57096 13.326 1.87917 13.3654 2.21345L13.375 2.38798C13.3746 2.73824 13.2404 3.07514 12.9998 3.32984C12.7593 3.58453 12.4304 3.7378 12.0806 3.75833C11.7307 3.77886 11.3862 3.66509 11.1175 3.44028C10.8487 3.21547 10.676 2.89658 10.6346 2.54876L10.625 2.37424C10.625 2.00977 10.7699 1.66022 11.0277 1.4025C11.2856 1.14479 11.6353 1 12 1Z" stroke="url(#paint20_radial_1502_19720)" stroke-opacity="0.25"/>
<path d="M12 1C12.3368 1.00004 12.6618 1.12362 12.9135 1.34729C13.1652 1.57096 13.326 1.87917 13.3654 2.21345L13.375 2.38798C13.3746 2.73824 13.2404 3.07514 12.9998 3.32984C12.7593 3.58453 12.4304 3.7378 12.0806 3.75833C11.7307 3.77886 11.3862 3.66509 11.1175 3.44028C10.8487 3.21547 10.676 2.89658 10.6346 2.54876L10.625 2.37424C10.625 2.00977 10.7699 1.66022 11.0277 1.4025C11.2856 1.14479 11.6353 1 12 1Z" stroke="url(#paint21_linear_1502_19720)" stroke-opacity="0.15"/>
<path d="M18.875 3.74847C19.2118 3.74852 19.5368 3.87209 19.7885 4.09576C20.0402 4.31943 20.201 4.62764 20.2404 4.96192L20.25 5.13645C20.2496 5.48672 20.1154 5.82361 19.8748 6.07831C19.6343 6.333 19.3054 6.48627 18.9556 6.5068C18.6057 6.52733 18.2612 6.41356 17.9925 6.18875C17.7237 5.96394 17.551 5.64505 17.5096 5.29724L17.5 5.12271C17.5 4.75824 17.6449 4.4087 17.9027 4.15098C18.1606 3.89326 18.5103 3.74847 18.875 3.74847Z" stroke="currentColor"/>
<path d="M18.875 3.74847C19.2118 3.74852 19.5368 3.87209 19.7885 4.09576C20.0402 4.31943 20.201 4.62764 20.2404 4.96192L20.25 5.13645C20.2496 5.48672 20.1154 5.82361 19.8748 6.07831C19.6343 6.333 19.3054 6.48627 18.9556 6.5068C18.6057 6.52733 18.2612 6.41356 17.9925 6.18875C17.7237 5.96394 17.551 5.64505 17.5096 5.29724L17.5 5.12271C17.5 4.75824 17.6449 4.4087 17.9027 4.15098C18.1606 3.89326 18.5103 3.74847 18.875 3.74847Z" stroke="url(#paint22_radial_1502_19720)" stroke-opacity="0.25"/>
<path d="M18.875 3.74847C19.2118 3.74852 19.5368 3.87209 19.7885 4.09576C20.0402 4.31943 20.201 4.62764 20.2404 4.96192L20.25 5.13645C20.2496 5.48672 20.1154 5.82361 19.8748 6.07831C19.6343 6.333 19.3054 6.48627 18.9556 6.5068C18.6057 6.52733 18.2612 6.41356 17.9925 6.18875C17.7237 5.96394 17.551 5.64505 17.5096 5.29724L17.5 5.12271C17.5 4.75824 17.6449 4.4087 17.9027 4.15098C18.1606 3.89326 18.5103 3.74847 18.875 3.74847Z" stroke="url(#paint23_linear_1502_19720)" stroke-opacity="0.15"/>
<path d="M21.625 10.6197C21.9618 10.6197 22.2868 10.7433 22.5385 10.9669C22.7902 11.1906 22.951 11.4988 22.9904 11.8331L23 12.0076C22.9996 12.3579 22.8654 12.6948 22.6248 12.9495C22.3843 13.2042 22.0554 13.3575 21.7056 13.378C21.3557 13.3985 21.0112 13.2847 20.7425 13.0599C20.4737 12.8351 20.301 12.5162 20.2596 12.1684L20.25 11.9939C20.25 11.6294 20.3949 11.2799 20.6527 11.0222C20.9106 10.7644 21.2603 10.6197 21.625 10.6197Z" stroke="currentColor"/>
<path d="M21.625 10.6197C21.9618 10.6197 22.2868 10.7433 22.5385 10.9669C22.7902 11.1906 22.951 11.4988 22.9904 11.8331L23 12.0076C22.9996 12.3579 22.8654 12.6948 22.6248 12.9495C22.3843 13.2042 22.0554 13.3575 21.7056 13.378C21.3557 13.3985 21.0112 13.2847 20.7425 13.0599C20.4737 12.8351 20.301 12.5162 20.2596 12.1684L20.25 11.9939C20.25 11.6294 20.3949 11.2799 20.6527 11.0222C20.9106 10.7644 21.2603 10.6197 21.625 10.6197Z" stroke="url(#paint24_radial_1502_19720)" stroke-opacity="0.25"/>
<path d="M21.625 10.6197C21.9618 10.6197 22.2868 10.7433 22.5385 10.9669C22.7902 11.1906 22.951 11.4988 22.9904 11.8331L23 12.0076C22.9996 12.3579 22.8654 12.6948 22.6248 12.9495C22.3843 13.2042 22.0554 13.3575 21.7056 13.378C21.3557 13.3985 21.0112 13.2847 20.7425 13.0599C20.4737 12.8351 20.301 12.5162 20.2596 12.1684L20.25 11.9939C20.25 11.6294 20.3949 11.2799 20.6527 11.0222C20.9106 10.7644 21.2603 10.6197 21.625 10.6197Z" stroke="url(#paint25_linear_1502_19720)" stroke-opacity="0.15"/>
<path d="M18.875 17.4908C19.2118 17.4909 19.5368 17.6145 19.7885 17.8381C20.0402 18.0618 20.201 18.37 20.2404 18.7043L20.25 18.8788C20.2496 19.2291 20.1154 19.566 19.8748 19.8207C19.6343 20.0754 19.3054 20.2286 18.9556 20.2492C18.6057 20.2697 18.2612 20.1559 17.9925 19.9311C17.7237 19.7063 17.551 19.3874 17.5096 19.0396L17.5 18.8651C17.5 18.5006 17.6449 18.1511 17.9027 17.8933C18.1606 17.6356 18.5103 17.4908 18.875 17.4908Z" stroke="currentColor"/>
<path d="M18.875 17.4908C19.2118 17.4909 19.5368 17.6145 19.7885 17.8381C20.0402 18.0618 20.201 18.37 20.2404 18.7043L20.25 18.8788C20.2496 19.2291 20.1154 19.566 19.8748 19.8207C19.6343 20.0754 19.3054 20.2286 18.9556 20.2492C18.6057 20.2697 18.2612 20.1559 17.9925 19.9311C17.7237 19.7063 17.551 19.3874 17.5096 19.0396L17.5 18.8651C17.5 18.5006 17.6449 18.1511 17.9027 17.8933C18.1606 17.6356 18.5103 17.4908 18.875 17.4908Z" stroke="url(#paint26_radial_1502_19720)" stroke-opacity="0.25"/>
<path d="M18.875 17.4908C19.2118 17.4909 19.5368 17.6145 19.7885 17.8381C20.0402 18.0618 20.201 18.37 20.2404 18.7043L20.25 18.8788C20.2496 19.2291 20.1154 19.566 19.8748 19.8207C19.6343 20.0754 19.3054 20.2286 18.9556 20.2492C18.6057 20.2697 18.2612 20.1559 17.9925 19.9311C17.7237 19.7063 17.551 19.3874 17.5096 19.0396L17.5 18.8651C17.5 18.5006 17.6449 18.1511 17.9027 17.8933C18.1606 17.6356 18.5103 17.4908 18.875 17.4908Z" stroke="url(#paint27_linear_1502_19720)" stroke-opacity="0.15"/>
<path d="M12 20.2393C12.3368 20.2394 12.6618 20.3629 12.9135 20.5866C13.1652 20.8103 13.326 21.1185 13.3654 21.4528L13.375 21.6273C13.3746 21.9776 13.2404 22.3144 12.9998 22.5691C12.7593 22.8238 12.4304 22.9771 12.0806 22.9976C11.7307 23.0182 11.3862 22.9044 11.1175 22.6796C10.8487 22.4548 10.676 22.1359 10.6346 21.7881L10.625 21.6135C10.625 21.2491 10.7699 20.8995 11.0277 20.6418C11.2856 20.3841 11.6353 20.2393 12 20.2393Z" stroke="currentColor"/>
<path d="M12 20.2393C12.3368 20.2394 12.6618 20.3629 12.9135 20.5866C13.1652 20.8103 13.326 21.1185 13.3654 21.4528L13.375 21.6273C13.3746 21.9776 13.2404 22.3144 12.9998 22.5691C12.7593 22.8238 12.4304 22.9771 12.0806 22.9976C11.7307 23.0182 11.3862 22.9044 11.1175 22.6796C10.8487 22.4548 10.676 22.1359 10.6346 21.7881L10.625 21.6135C10.625 21.2491 10.7699 20.8995 11.0277 20.6418C11.2856 20.3841 11.6353 20.2393 12 20.2393Z" stroke="url(#paint28_radial_1502_19720)" stroke-opacity="0.25"/>
<path d="M12 20.2393C12.3368 20.2394 12.6618 20.3629 12.9135 20.5866C13.1652 20.8103 13.326 21.1185 13.3654 21.4528L13.375 21.6273C13.3746 21.9776 13.2404 22.3144 12.9998 22.5691C12.7593 22.8238 12.4304 22.9771 12.0806 22.9976C11.7307 23.0182 11.3862 22.9044 11.1175 22.6796C10.8487 22.4548 10.676 22.1359 10.6346 21.7881L10.625 21.6135C10.625 21.2491 10.7699 20.8995 11.0277 20.6418C11.2856 20.3841 11.6353 20.2393 12 20.2393Z" stroke="url(#paint29_linear_1502_19720)" stroke-opacity="0.15"/>
<path d="M5.125 17.4908C5.46178 17.4909 5.78684 17.6145 6.03851 17.8381C6.29018 18.0618 6.45097 18.37 6.49038 18.7043L6.5 18.8788C6.49961 19.2291 6.36542 19.566 6.12483 19.8207C5.88425 20.0754 5.55544 20.2286 5.20558 20.2492C4.85572 20.2697 4.51123 20.1559 4.24248 19.9311C3.97373 19.7063 3.80102 19.3874 3.75962 19.0396L3.75 18.8651C3.75 18.5006 3.89487 18.1511 4.15273 17.8933C4.41059 17.6356 4.76033 17.4908 5.125 17.4908Z" stroke="currentColor"/>
<path d="M5.125 17.4908C5.46178 17.4909 5.78684 17.6145 6.03851 17.8381C6.29018 18.0618 6.45097 18.37 6.49038 18.7043L6.5 18.8788C6.49961 19.2291 6.36542 19.566 6.12483 19.8207C5.88425 20.0754 5.55544 20.2286 5.20558 20.2492C4.85572 20.2697 4.51123 20.1559 4.24248 19.9311C3.97373 19.7063 3.80102 19.3874 3.75962 19.0396L3.75 18.8651C3.75 18.5006 3.89487 18.1511 4.15273 17.8933C4.41059 17.6356 4.76033 17.4908 5.125 17.4908Z" stroke="url(#paint30_radial_1502_19720)" stroke-opacity="0.25"/>
<path d="M5.125 17.4908C5.46178 17.4909 5.78684 17.6145 6.03851 17.8381C6.29018 18.0618 6.45097 18.37 6.49038 18.7043L6.5 18.8788C6.49961 19.2291 6.36542 19.566 6.12483 19.8207C5.88425 20.0754 5.55544 20.2286 5.20558 20.2492C4.85572 20.2697 4.51123 20.1559 4.24248 19.9311C3.97373 19.7063 3.80102 19.3874 3.75962 19.0396L3.75 18.8651C3.75 18.5006 3.89487 18.1511 4.15273 17.8933C4.41059 17.6356 4.76033 17.4908 5.125 17.4908Z" stroke="url(#paint31_linear_1502_19720)" stroke-opacity="0.15"/>
<path d="M2.375 10.6197C2.71178 10.6197 3.03684 10.7433 3.28851 10.9669C3.54018 11.1906 3.70097 11.4988 3.74038 11.8331L3.75 12.0076C3.74961 12.3579 3.61542 12.6948 3.37483 12.9495C3.13425 13.2042 2.80544 13.3575 2.45558 13.378C2.10572 13.3985 1.76123 13.2847 1.49248 13.0599C1.22373 12.8351 1.05102 12.5162 1.00962 12.1684L1 11.9939C1 11.6294 1.14487 11.2799 1.40273 11.0222C1.66059 10.7644 2.01033 10.6197 2.375 10.6197Z" stroke="currentColor"/>
<path d="M2.375 10.6197C2.71178 10.6197 3.03684 10.7433 3.28851 10.9669C3.54018 11.1906 3.70097 11.4988 3.74038 11.8331L3.75 12.0076C3.74961 12.3579 3.61542 12.6948 3.37483 12.9495C3.13425 13.2042 2.80544 13.3575 2.45558 13.378C2.10572 13.3985 1.76123 13.2847 1.49248 13.0599C1.22373 12.8351 1.05102 12.5162 1.00962 12.1684L1 11.9939C1 11.6294 1.14487 11.2799 1.40273 11.0222C1.66059 10.7644 2.01033 10.6197 2.375 10.6197Z" stroke="url(#paint32_radial_1502_19720)" stroke-opacity="0.25"/>
<path d="M2.375 10.6197C2.71178 10.6197 3.03684 10.7433 3.28851 10.9669C3.54018 11.1906 3.70097 11.4988 3.74038 11.8331L3.75 12.0076C3.74961 12.3579 3.61542 12.6948 3.37483 12.9495C3.13425 13.2042 2.80544 13.3575 2.45558 13.378C2.10572 13.3985 1.76123 13.2847 1.49248 13.0599C1.22373 12.8351 1.05102 12.5162 1.00962 12.1684L1 11.9939C1 11.6294 1.14487 11.2799 1.40273 11.0222C1.66059 10.7644 2.01033 10.6197 2.375 10.6197Z" stroke="url(#paint33_linear_1502_19720)" stroke-opacity="0.15"/>
<path d="M5.125 3.74847C5.46178 3.74852 5.78684 3.87209 6.03851 4.09576C6.29018 4.31943 6.45097 4.62764 6.49038 4.96192L6.5 5.13645C6.49961 5.48672 6.36542 5.82361 6.12483 6.07831C5.88425 6.333 5.55544 6.48627 5.20558 6.5068C4.85572 6.52733 4.51123 6.41356 4.24248 6.18875C3.97373 5.96394 3.80102 5.64505 3.75962 5.29724L3.75 5.12271C3.75 4.75824 3.89487 4.4087 4.15273 4.15098C4.41059 3.89326 4.76033 3.74847 5.125 3.74847Z" stroke="currentColor"/>
<path d="M5.125 3.74847C5.46178 3.74852 5.78684 3.87209 6.03851 4.09576C6.29018 4.31943 6.45097 4.62764 6.49038 4.96192L6.5 5.13645C6.49961 5.48672 6.36542 5.82361 6.12483 6.07831C5.88425 6.333 5.55544 6.48627 5.20558 6.5068C4.85572 6.52733 4.51123 6.41356 4.24248 6.18875C3.97373 5.96394 3.80102 5.64505 3.75962 5.29724L3.75 5.12271C3.75 4.75824 3.89487 4.4087 4.15273 4.15098C4.41059 3.89326 4.76033 3.74847 5.125 3.74847Z" stroke="url(#paint34_radial_1502_19720)" stroke-opacity="0.25"/>
<path d="M5.125 3.74847C5.46178 3.74852 5.78684 3.87209 6.03851 4.09576C6.29018 4.31943 6.45097 4.62764 6.49038 4.96192L6.5 5.13645C6.49961 5.48672 6.36542 5.82361 6.12483 6.07831C5.88425 6.333 5.55544 6.48627 5.20558 6.5068C4.85572 6.52733 4.51123 6.41356 4.24248 6.18875C3.97373 5.96394 3.80102 5.64505 3.75962 5.29724L3.75 5.12271C3.75 4.75824 3.89487 4.4087 4.15273 4.15098C4.41059 3.89326 4.76033 3.74847 5.125 3.74847Z" stroke="url(#paint35_linear_1502_19720)" stroke-opacity="0.15"/>
<defs>
<radialGradient id="paint0_radial_1502_19720" cx="0" cy="0" r="1" gradientUnits="userSpaceOnUse" gradientTransform="translate(2.61945 6.32194) rotate(37.9958) scale(25.0961 48.0577)">
<stop offset="0.025951" stop-color="#E02020" stop-opacity="0.3"/>
<stop offset="0.197364" stop-color="#F7B500" stop-opacity="0.3"/>
<stop offset="0.33762" stop-color="#6DD400" stop-opacity="0.3"/>
<stop offset="0.470811" stop-color="#0091FF" stop-opacity="0.3"/>
<stop offset="0.591474" stop-color="#FA6400" stop-opacity="0.3"/>
<stop offset="0.736251" stop-color="white" stop-opacity="0.1"/>
<stop offset="0.840157" stop-color="#6236FF" stop-opacity="0.3"/>
<stop offset="1" stop-color="#B620E0" stop-opacity="0.3"/>
</radialGradient>
<linearGradient id="paint1_linear_1502_19720" x1="12" y1="1" x2="12" y2="13.375" gradientUnits="userSpaceOnUse">
<stop stop-color="white"/>
<stop offset="1" stop-color="white" stop-opacity="0"/>
</linearGradient>
<radialGradient id="paint2_radial_1502_19720" cx="0" cy="0" r="1" gradientUnits="userSpaceOnUse" gradientTransform="translate(2.61945 6.32194) rotate(37.9958) scale(25.0961 48.0577)">
<stop offset="0.025951" stop-color="#E02020" stop-opacity="0.3"/>
<stop offset="0.197364" stop-color="#F7B500" stop-opacity="0.3"/>
<stop offset="0.33762" stop-color="#6DD400" stop-opacity="0.3"/>
<stop offset="0.470811" stop-color="#0091FF" stop-opacity="0.3"/>
<stop offset="0.591474" stop-color="#FA6400" stop-opacity="0.3"/>
<stop offset="0.736251" stop-color="white" stop-opacity="0.1"/>
<stop offset="0.840157" stop-color="#6236FF" stop-opacity="0.3"/>
<stop offset="1" stop-color="#B620E0" stop-opacity="0.3"/>
</radialGradient>
<linearGradient id="paint3_linear_1502_19720" x1="12" y1="1" x2="12" y2="13.375" gradientUnits="userSpaceOnUse">
<stop stop-color="white"/>
<stop offset="1" stop-color="white" stop-opacity="0"/>
</linearGradient>
<radialGradient id="paint4_radial_1502_19720" cx="0" cy="0" r="1" gradientUnits="userSpaceOnUse" gradientTransform="translate(2.61945 6.32194) rotate(37.9958) scale(25.0961 48.0577)">
<stop offset="0.025951" stop-color="#E02020" stop-opacity="0.3"/>
<stop offset="0.197364" stop-color="#F7B500" stop-opacity="0.3"/>
<stop offset="0.33762" stop-color="#6DD400" stop-opacity="0.3"/>
<stop offset="0.470811" stop-color="#0091FF" stop-opacity="0.3"/>
<stop offset="0.591474" stop-color="#FA6400" stop-opacity="0.3"/>
<stop offset="0.736251" stop-color="white" stop-opacity="0.1"/>
<stop offset="0.840157" stop-color="#6236FF" stop-opacity="0.3"/>
<stop offset="1" stop-color="#B620E0" stop-opacity="0.3"/>
</radialGradient>
<linearGradient id="paint5_linear_1502_19720" x1="12" y1="1" x2="12" y2="13.375" gradientUnits="userSpaceOnUse">
<stop stop-color="white"/>
<stop offset="1" stop-color="white" stop-opacity="0"/>
</linearGradient>
<radialGradient id="paint6_radial_1502_19720" cx="0" cy="0" r="1" gradientUnits="userSpaceOnUse" gradientTransform="translate(2.61945 6.32194) rotate(37.9958) scale(25.0961 48.0577)">
<stop offset="0.025951" stop-color="#E02020" stop-opacity="0.3"/>
<stop offset="0.197364" stop-color="#F7B500" stop-opacity="0.3"/>
<stop offset="0.33762" stop-color="#6DD400" stop-opacity="0.3"/>
<stop offset="0.470811" stop-color="#0091FF" stop-opacity="0.3"/>
<stop offset="0.591474" stop-color="#FA6400" stop-opacity="0.3"/>
<stop offset="0.736251" stop-color="white" stop-opacity="0.1"/>
<stop offset="0.840157" stop-color="#6236FF" stop-opacity="0.3"/>
<stop offset="1" stop-color="#B620E0" stop-opacity="0.3"/>
</radialGradient>
<linearGradient id="paint7_linear_1502_19720" x1="12" y1="1" x2="12" y2="13.375" gradientUnits="userSpaceOnUse">
<stop stop-color="white"/>
<stop offset="1" stop-color="white" stop-opacity="0"/>
</linearGradient>
<radialGradient id="paint8_radial_1502_19720" cx="0" cy="0" r="1" gradientUnits="userSpaceOnUse" gradientTransform="translate(2.61945 6.32194) rotate(37.9958) scale(25.0961 48.0577)">
<stop offset="0.025951" stop-color="#E02020" stop-opacity="0.3"/>
<stop offset="0.197364" stop-color="#F7B500" stop-opacity="0.3"/>
<stop offset="0.33762" stop-color="#6DD400" stop-opacity="0.3"/>
<stop offset="0.470811" stop-color="#0091FF" stop-opacity="0.3"/>
<stop offset="0.591474" stop-color="#FA6400" stop-opacity="0.3"/>
<stop offset="0.736251" stop-color="white" stop-opacity="0.1"/>
<stop offset="0.840157" stop-color="#6236FF" stop-opacity="0.3"/>
<stop offset="1" stop-color="#B620E0" stop-opacity="0.3"/>
</radialGradient>
<linearGradient id="paint9_linear_1502_19720" x1="12" y1="1" x2="12" y2="13.375" gradientUnits="userSpaceOnUse">
<stop stop-color="white"/>
<stop offset="1" stop-color="white" stop-opacity="0"/>
</linearGradient>
<radialGradient id="paint10_radial_1502_19720" cx="0" cy="0" r="1" gradientUnits="userSpaceOnUse" gradientTransform="translate(2.61945 6.32194) rotate(37.9958) scale(25.0961 48.0577)">
<stop offset="0.025951" stop-color="#E02020" stop-opacity="0.3"/>
<stop offset="0.197364" stop-color="#F7B500" stop-opacity="0.3"/>
<stop offset="0.33762" stop-color="#6DD400" stop-opacity="0.3"/>
<stop offset="0.470811" stop-color="#0091FF" stop-opacity="0.3"/>
<stop offset="0.591474" stop-color="#FA6400" stop-opacity="0.3"/>
<stop offset="0.736251" stop-color="white" stop-opacity="0.1"/>
<stop offset="0.840157" stop-color="#6236FF" stop-opacity="0.3"/>
<stop offset="1" stop-color="#B620E0" stop-opacity="0.3"/>
</radialGradient>
<linearGradient id="paint11_linear_1502_19720" x1="12" y1="1" x2="12" y2="13.375" gradientUnits="userSpaceOnUse">
<stop stop-color="white"/>
<stop offset="1" stop-color="white" stop-opacity="0"/>
</linearGradient>
<radialGradient id="paint12_radial_1502_19720" cx="0" cy="0" r="1" gradientUnits="userSpaceOnUse" gradientTransform="translate(2.61945 6.32194) rotate(37.9958) scale(25.0961 48.0577)">
<stop offset="0.025951" stop-color="#E02020" stop-opacity="0.3"/>
<stop offset="0.197364" stop-color="#F7B500" stop-opacity="0.3"/>
<stop offset="0.33762" stop-color="#6DD400" stop-opacity="0.3"/>
<stop offset="0.470811" stop-color="#0091FF" stop-opacity="0.3"/>
<stop offset="0.591474" stop-color="#FA6400" stop-opacity="0.3"/>
<stop offset="0.736251" stop-color="white" stop-opacity="0.1"/>
<stop offset="0.840157" stop-color="#6236FF" stop-opacity="0.3"/>
<stop offset="1" stop-color="#B620E0" stop-opacity="0.3"/>
</radialGradient>
<linearGradient id="paint13_linear_1502_19720" x1="12" y1="1" x2="12" y2="13.375" gradientUnits="userSpaceOnUse">
<stop stop-color="white"/>
<stop offset="1" stop-color="white" stop-opacity="0"/>
</linearGradient>
<radialGradient id="paint14_radial_1502_19720" cx="0" cy="0" r="1" gradientUnits="userSpaceOnUse" gradientTransform="translate(2.61945 6.32194) rotate(37.9958) scale(25.0961 48.0577)">
<stop offset="0.025951" stop-color="#E02020" stop-opacity="0.3"/>
<stop offset="0.197364" stop-color="#F7B500" stop-opacity="0.3"/>
<stop offset="0.33762" stop-color="#6DD400" stop-opacity="0.3"/>
<stop offset="0.470811" stop-color="#0091FF" stop-opacity="0.3"/>
<stop offset="0.591474" stop-color="#FA6400" stop-opacity="0.3"/>
<stop offset="0.736251" stop-color="white" stop-opacity="0.1"/>
<stop offset="0.840157" stop-color="#6236FF" stop-opacity="0.3"/>
<stop offset="1" stop-color="#B620E0" stop-opacity="0.3"/>
</radialGradient>
<linearGradient id="paint15_linear_1502_19720" x1="12" y1="1" x2="12" y2="13.375" gradientUnits="userSpaceOnUse">
<stop stop-color="white"/>
<stop offset="1" stop-color="white" stop-opacity="0"/>
</linearGradient>
<radialGradient id="paint16_radial_1502_19720" cx="0" cy="0" r="1" gradientUnits="userSpaceOnUse" gradientTransform="translate(2.61945 6.32194) rotate(37.9958) scale(25.0961 48.0577)">
<stop offset="0.025951" stop-color="#E02020" stop-opacity="0.3"/>
<stop offset="0.197364" stop-color="#F7B500" stop-opacity="0.3"/>
<stop offset="0.33762" stop-color="#6DD400" stop-opacity="0.3"/>
<stop offset="0.470811" stop-color="#0091FF" stop-opacity="0.3"/>
<stop offset="0.591474" stop-color="#FA6400" stop-opacity="0.3"/>
<stop offset="0.736251" stop-color="white" stop-opacity="0.1"/>
<stop offset="0.840157" stop-color="#6236FF" stop-opacity="0.3"/>
<stop offset="1" stop-color="#B620E0" stop-opacity="0.3"/>
</radialGradient>
<linearGradient id="paint17_linear_1502_19720" x1="12" y1="1" x2="12" y2="13.375" gradientUnits="userSpaceOnUse">
<stop stop-color="white"/>
<stop offset="1" stop-color="white" stop-opacity="0"/>
</linearGradient>
<radialGradient id="paint18_radial_1502_19720" cx="0" cy="0" r="1" gradientUnits="userSpaceOnUse" gradientTransform="translate(2.61945 6.32194) rotate(37.9958) scale(25.0961 48.0577)">
<stop offset="0.025951" stop-color="#E02020" stop-opacity="0.3"/>
<stop offset="0.197364" stop-color="#F7B500" stop-opacity="0.3"/>
<stop offset="0.33762" stop-color="#6DD400" stop-opacity="0.3"/>
<stop offset="0.470811" stop-color="#0091FF" stop-opacity="0.3"/>
<stop offset="0.591474" stop-color="#FA6400" stop-opacity="0.3"/>
<stop offset="0.736251" stop-color="white" stop-opacity="0.1"/>
<stop offset="0.840157" stop-color="#6236FF" stop-opacity="0.3"/>
<stop offset="1" stop-color="#B620E0" stop-opacity="0.3"/>
</radialGradient>
<linearGradient id="paint19_linear_1502_19720" x1="12" y1="1" x2="12" y2="13.375" gradientUnits="userSpaceOnUse">
<stop stop-color="white"/>
<stop offset="1" stop-color="white" stop-opacity="0"/>
</linearGradient>
<radialGradient id="paint20_radial_1502_19720" cx="0" cy="0" r="1" gradientUnits="userSpaceOnUse" gradientTransform="translate(2.61945 6.32194) rotate(37.9958) scale(25.0961 48.0577)">
<stop offset="0.025951" stop-color="#E02020" stop-opacity="0.3"/>
<stop offset="0.197364" stop-color="#F7B500" stop-opacity="0.3"/>
<stop offset="0.33762" stop-color="#6DD400" stop-opacity="0.3"/>
<stop offset="0.470811" stop-color="#0091FF" stop-opacity="0.3"/>
<stop offset="0.591474" stop-color="#FA6400" stop-opacity="0.3"/>
<stop offset="0.736251" stop-color="white" stop-opacity="0.1"/>
<stop offset="0.840157" stop-color="#6236FF" stop-opacity="0.3"/>
<stop offset="1" stop-color="#B620E0" stop-opacity="0.3"/>
</radialGradient>
<linearGradient id="paint21_linear_1502_19720" x1="12" y1="1" x2="12" y2="13.375" gradientUnits="userSpaceOnUse">
<stop stop-color="white"/>
<stop offset="1" stop-color="white" stop-opacity="0"/>
</linearGradient>
<radialGradient id="paint22_radial_1502_19720" cx="0" cy="0" r="1" gradientUnits="userSpaceOnUse" gradientTransform="translate(2.61945 6.32194) rotate(37.9958) scale(25.0961 48.0577)">
<stop offset="0.025951" stop-color="#E02020" stop-opacity="0.3"/>
<stop offset="0.197364" stop-color="#F7B500" stop-opacity="0.3"/>
<stop offset="0.33762" stop-color="#6DD400" stop-opacity="0.3"/>
<stop offset="0.470811" stop-color="#0091FF" stop-opacity="0.3"/>
<stop offset="0.591474" stop-color="#FA6400" stop-opacity="0.3"/>
<stop offset="0.736251" stop-color="white" stop-opacity="0.1"/>
<stop offset="0.840157" stop-color="#6236FF" stop-opacity="0.3"/>
<stop offset="1" stop-color="#B620E0" stop-opacity="0.3"/>
</radialGradient>
<linearGradient id="paint23_linear_1502_19720" x1="12" y1="1" x2="12" y2="13.375" gradientUnits="userSpaceOnUse">
<stop stop-color="white"/>
<stop offset="1" stop-color="white" stop-opacity="0"/>
</linearGradient>
<radialGradient id="paint24_radial_1502_19720" cx="0" cy="0" r="1" gradientUnits="userSpaceOnUse" gradientTransform="translate(2.61945 6.32194) rotate(37.9958) scale(25.0961 48.0577)">
<stop offset="0.025951" stop-color="#E02020" stop-opacity="0.3"/>
<stop offset="0.197364" stop-color="#F7B500" stop-opacity="0.3"/>
<stop offset="0.33762" stop-color="#6DD400" stop-opacity="0.3"/>
<stop offset="0.470811" stop-color="#0091FF" stop-opacity="0.3"/>
<stop offset="0.591474" stop-color="#FA6400" stop-opacity="0.3"/>
<stop offset="0.736251" stop-color="white" stop-opacity="0.1"/>
<stop offset="0.840157" stop-color="#6236FF" stop-opacity="0.3"/>
<stop offset="1" stop-color="#B620E0" stop-opacity="0.3"/>
</radialGradient>
<linearGradient id="paint25_linear_1502_19720" x1="12" y1="1" x2="12" y2="13.375" gradientUnits="userSpaceOnUse">
<stop stop-color="white"/>
<stop offset="1" stop-color="white" stop-opacity="0"/>
</linearGradient>
<radialGradient id="paint26_radial_1502_19720" cx="0" cy="0" r="1" gradientUnits="userSpaceOnUse" gradientTransform="translate(2.61945 6.32194) rotate(37.9958) scale(25.0961 48.0577)">
<stop offset="0.025951" stop-color="#E02020" stop-opacity="0.3"/>
<stop offset="0.197364" stop-color="#F7B500" stop-opacity="0.3"/>
<stop offset="0.33762" stop-color="#6DD400" stop-opacity="0.3"/>
<stop offset="0.470811" stop-color="#0091FF" stop-opacity="0.3"/>
<stop offset="0.591474" stop-color="#FA6400" stop-opacity="0.3"/>
<stop offset="0.736251" stop-color="white" stop-opacity="0.1"/>
<stop offset="0.840157" stop-color="#6236FF" stop-opacity="0.3"/>
<stop offset="1" stop-color="#B620E0" stop-opacity="0.3"/>
</radialGradient>
<linearGradient id="paint27_linear_1502_19720" x1="12" y1="1" x2="12" y2="13.375" gradientUnits="userSpaceOnUse">
<stop stop-color="white"/>
<stop offset="1" stop-color="white" stop-opacity="0"/>
</linearGradient>
<radialGradient id="paint28_radial_1502_19720" cx="0" cy="0" r="1" gradientUnits="userSpaceOnUse" gradientTransform="translate(2.61945 6.32194) rotate(37.9958) scale(25.0961 48.0577)">
<stop offset="0.025951" stop-color="#E02020" stop-opacity="0.3"/>
<stop offset="0.197364" stop-color="#F7B500" stop-opacity="0.3"/>
<stop offset="0.33762" stop-color="#6DD400" stop-opacity="0.3"/>
<stop offset="0.470811" stop-color="#0091FF" stop-opacity="0.3"/>
<stop offset="0.591474" stop-color="#FA6400" stop-opacity="0.3"/>
<stop offset="0.736251" stop-color="white" stop-opacity="0.1"/>
<stop offset="0.840157" stop-color="#6236FF" stop-opacity="0.3"/>
<stop offset="1" stop-color="#B620E0" stop-opacity="0.3"/>
</radialGradient>
<linearGradient id="paint29_linear_1502_19720" x1="12" y1="1" x2="12" y2="13.375" gradientUnits="userSpaceOnUse">
<stop stop-color="white"/>
<stop offset="1" stop-color="white" stop-opacity="0"/>
</linearGradient>
<radialGradient id="paint30_radial_1502_19720" cx="0" cy="0" r="1" gradientUnits="userSpaceOnUse" gradientTransform="translate(2.61945 6.32194) rotate(37.9958) scale(25.0961 48.0577)">
<stop offset="0.025951" stop-color="#E02020" stop-opacity="0.3"/>
<stop offset="0.197364" stop-color="#F7B500" stop-opacity="0.3"/>
<stop offset="0.33762" stop-color="#6DD400" stop-opacity="0.3"/>
<stop offset="0.470811" stop-color="#0091FF" stop-opacity="0.3"/>
<stop offset="0.591474" stop-color="#FA6400" stop-opacity="0.3"/>
<stop offset="0.736251" stop-color="white" stop-opacity="0.1"/>
<stop offset="0.840157" stop-color="#6236FF" stop-opacity="0.3"/>
<stop offset="1" stop-color="#B620E0" stop-opacity="0.3"/>
</radialGradient>
<linearGradient id="paint31_linear_1502_19720" x1="12" y1="1" x2="12" y2="13.375" gradientUnits="userSpaceOnUse">
<stop stop-color="white"/>
<stop offset="1" stop-color="white" stop-opacity="0"/>
</linearGradient>
<radialGradient id="paint32_radial_1502_19720" cx="0" cy="0" r="1" gradientUnits="userSpaceOnUse" gradientTransform="translate(2.61945 6.32194) rotate(37.9958) scale(25.0961 48.0577)">
<stop offset="0.025951" stop-color="#E02020" stop-opacity="0.3"/>
<stop offset="0.197364" stop-color="#F7B500" stop-opacity="0.3"/>
<stop offset="0.33762" stop-color="#6DD400" stop-opacity="0.3"/>
<stop offset="0.470811" stop-color="#0091FF" stop-opacity="0.3"/>
<stop offset="0.591474" stop-color="#FA6400" stop-opacity="0.3"/>
<stop offset="0.736251" stop-color="white" stop-opacity="0.1"/>
<stop offset="0.840157" stop-color="#6236FF" stop-opacity="0.3"/>
<stop offset="1" stop-color="#B620E0" stop-opacity="0.3"/>
</radialGradient>
<linearGradient id="paint33_linear_1502_19720" x1="12" y1="1" x2="12" y2="13.375" gradientUnits="userSpaceOnUse">
<stop stop-color="white"/>
<stop offset="1" stop-color="white" stop-opacity="0"/>
</linearGradient>
<radialGradient id="paint34_radial_1502_19720" cx="0" cy="0" r="1" gradientUnits="userSpaceOnUse" gradientTransform="translate(2.61945 6.32194) rotate(37.9958) scale(25.0961 48.0577)">
<stop offset="0.025951" stop-color="#E02020" stop-opacity="0.3"/>
<stop offset="0.197364" stop-color="#F7B500" stop-opacity="0.3"/>
<stop offset="0.33762" stop-color="#6DD400" stop-opacity="0.3"/>
<stop offset="0.470811" stop-color="#0091FF" stop-opacity="0.3"/>
<stop offset="0.591474" stop-color="#FA6400" stop-opacity="0.3"/>
<stop offset="0.736251" stop-color="white" stop-opacity="0.1"/>
<stop offset="0.840157" stop-color="#6236FF" stop-opacity="0.3"/>
<stop offset="1" stop-color="#B620E0" stop-opacity="0.3"/>
</radialGradient>
<linearGradient id="paint35_linear_1502_19720" x1="12" y1="1" x2="12" y2="13.375" gradientUnits="userSpaceOnUse">
<stop stop-color="white"/>
<stop offset="1" stop-color="white" stop-opacity="0"/>
</linearGradient>
</defs>
</svg>
