<svg width="40" height="40" viewBox="0 0 40 40" fill="none" xmlns="http://www.w3.org/2000/svg">

  <path
    d="M28.5714 35.3043H11.4286C10.5193 35.3043 9.64719 34.9379 9.00421 34.2856C8.36122 33.6333 8 32.7486 8 31.8261V7.47826C8 6.55577 8.36122 5.67106 9.00421 5.01876C9.64719 4.36646 10.5193 4 11.4286 4H23.4286L32 12.6957V31.8261C32 32.7486 31.6388 33.6333 30.9958 34.2856C30.3528 34.9379 29.4807 35.3043 28.5714 35.3043Z"
    stroke="currentColor" stroke-width="2.25" stroke-linecap="round" stroke-linejoin="round" />
  <path
    d="M23.4285 4V10.9565C23.4285 11.4178 23.6091 11.8601 23.9306 12.1863C24.2521 12.5124 24.6881 12.6957 25.1428 12.6957H31.9999"
    stroke="currentColor" stroke-width="2.25" stroke-linecap="round" stroke-linejoin="round" />
  <path fill-rule="evenodd" clip-rule="evenodd"
    d="M21.8816 17.3043H14V29.3043H16.3814V19.6878H21.8816V17.3043ZM20.0013 25.2193C21.0564 25.2193 21.9149 24.3607 21.9149 23.3057C21.9149 22.2506 21.0564 21.3894 20.0013 21.3894C18.9463 21.3894 18.085 22.2479 18.085 23.3057C18.085 24.3634 18.9436 25.2193 20.0013 25.2193ZM18.1184 26.9229H23.6165V17.3043H26V29.3043H18.1184V26.9229Z"
    fill="currentColor" />
</svg>
