<svg width="88" height="88" viewBox="0 0 88 88" fill="none" xmlns="http://www.w3.org/2000/svg">
<g clip-path="url(#clip0_5220_6037)">
<rect width="88" height="88" rx="10.2667" fill="#0B1013"/>
<rect width="88" height="88" rx="10.2667" fill="url(#paint0_linear_5220_6037)" fill-opacity="0.2"/>
<path d="M51.1705 28.8198H28.8111V67.9126H19.1304V19.1304H51.1705V28.8198ZM67.9127 19.1304V67.9126H35.8726V58.2319H58.2232V19.1304H67.9127ZM43.5269 35.7368C47.8158 35.7368 51.3061 39.238 51.3062 43.5269C51.3062 47.8158 47.8159 51.3062 43.5269 51.3062C39.2271 51.306 35.7369 47.8267 35.7369 43.5269C35.737 39.2271 39.2382 35.737 43.5269 35.7368Z" fill="#D2E7F6"/>
<path d="M51.1705 28.8198H28.8111V67.9126H19.1304V19.1304H51.1705V28.8198ZM67.9127 19.1304V67.9126H35.8726V58.2319H58.2232V19.1304H67.9127ZM43.5269 35.7368C47.8158 35.7368 51.3061 39.238 51.3062 43.5269C51.3062 47.8158 47.8159 51.3062 43.5269 51.3062C39.2271 51.306 35.7369 47.8267 35.7369 43.5269C35.737 39.2271 39.2382 35.737 43.5269 35.7368Z" fill="url(#paint1_radial_5220_6037)"/>
<path d="M51.1705 28.8198H28.8111V67.9126H19.1304V19.1304H51.1705V28.8198ZM67.9127 19.1304V67.9126H35.8726V58.2319H58.2232V19.1304H67.9127ZM43.5269 35.7368C47.8158 35.7368 51.3061 39.238 51.3062 43.5269C51.3062 47.8158 47.8159 51.3062 43.5269 51.3062C39.2271 51.306 35.7369 47.8267 35.7369 43.5269C35.737 39.2271 39.2382 35.737 43.5269 35.7368Z" fill="url(#paint2_radial_5220_6037)"/>
</g>
<defs>
<linearGradient id="paint0_linear_5220_6037" x1="44" y1="-26.5833" x2="44" y2="88" gradientUnits="userSpaceOnUse">
<stop stop-color="white"/>
<stop offset="1" stop-color="white" stop-opacity="0.04"/>
</linearGradient>
<radialGradient id="paint1_radial_5220_6037" cx="0" cy="0" r="1" gradientTransform="matrix(34.0192 31.6342 -31.6342 38.2899 27.9999 30.1497)" gradientUnits="userSpaceOnUse">
<stop stop-color="#F9EFD2"/>
<stop offset="1" stop-color="#F9EFD2" stop-opacity="0"/>
</radialGradient>
<radialGradient id="paint2_radial_5220_6037" cx="0" cy="0" r="1" gradientTransform="matrix(-30.4014 28.7246 -28.7246 -34.2179 64.2365 24.7019)" gradientUnits="userSpaceOnUse">
<stop stop-color="#FDE7D7"/>
<stop offset="1" stop-color="#FDE9DA" stop-opacity="0"/>
</radialGradient>
<clipPath id="clip0_5220_6037">
<rect width="88" height="88" rx="17.6" fill="white"/>
</clipPath>
</defs>
</svg>
