<svg width="182" height="182" viewBox="0 0 182 182" fill="none" xmlns="http://www.w3.org/2000/svg">
<g filter="url(#filter0_d_5220_6037)">
<g clip-path="url(#clip0_5220_6037)">
<rect x="46.9333" y="41.0667" width="88" height="88" rx="10.2667" fill="#0B1013"/>
<rect x="46.9333" y="41.0667" width="88" height="88" rx="10.2667" fill="url(#paint0_linear_5220_6037)" fill-opacity="0.2"/>
<path d="M98.1038 69.8865H75.7444V108.979H66.0638V60.197H98.1038V69.8865ZM114.846 60.197V108.979H82.806V99.2986H105.157V60.197H114.846ZM90.4603 76.8035C94.7491 76.8035 98.2394 80.3047 98.2395 84.5935C98.2395 88.8825 94.7492 92.3728 90.4603 92.3728C86.1605 92.3727 82.6702 88.8933 82.6702 84.5935C82.6703 80.2938 86.1715 76.8036 90.4603 76.8035Z" fill="#D2E7F6"/>
<path d="M98.1038 69.8865H75.7444V108.979H66.0638V60.197H98.1038V69.8865ZM114.846 60.197V108.979H82.806V99.2986H105.157V60.197H114.846ZM90.4603 76.8035C94.7491 76.8035 98.2394 80.3047 98.2395 84.5935C98.2395 88.8825 94.7492 92.3728 90.4603 92.3728C86.1605 92.3727 82.6702 88.8933 82.6702 84.5935C82.6703 80.2938 86.1715 76.8036 90.4603 76.8035Z" fill="url(#paint1_radial_5220_6037)"/>
<path d="M98.1038 69.8865H75.7444V108.979H66.0638V60.197H98.1038V69.8865ZM114.846 60.197V108.979H82.806V99.2986H105.157V60.197H114.846ZM90.4603 76.8035C94.7491 76.8035 98.2394 80.3047 98.2395 84.5935C98.2395 88.8825 94.7492 92.3728 90.4603 92.3728C86.1605 92.3727 82.6702 88.8933 82.6702 84.5935C82.6703 80.2938 86.1715 76.8036 90.4603 76.8035Z" fill="url(#paint2_radial_5220_6037)"/>
</g>
</g>
<defs>
<filter id="filter0_d_5220_6037" x="3.8147e-06" y="-1.38283e-05" width="181.867" height="181.867" filterUnits="userSpaceOnUse" color-interpolation-filters="sRGB">
<feFlood flood-opacity="0" result="BackgroundImageFix"/>
<feColorMatrix in="SourceAlpha" type="matrix" values="0 0 0 0 0 0 0 0 0 0 0 0 0 0 0 0 0 0 127 0" result="hardAlpha"/>
<feOffset dy="5.86667"/>
<feGaussianBlur stdDeviation="23.4667"/>
<feComposite in2="hardAlpha" operator="out"/>
<feColorMatrix type="matrix" values="0 0 0 0 1 0 0 0 0 1 0 0 0 0 1 0 0 0 1 0"/>
<feBlend mode="normal" in2="BackgroundImageFix" result="effect1_dropShadow_5220_6037"/>
<feBlend mode="normal" in="SourceGraphic" in2="effect1_dropShadow_5220_6037" result="shape"/>
</filter>
<linearGradient id="paint0_linear_5220_6037" x1="90.9333" y1="14.4833" x2="90.9333" y2="129.067" gradientUnits="userSpaceOnUse">
<stop stop-color="white"/>
<stop offset="1" stop-color="white" stop-opacity="0.04"/>
</linearGradient>
<radialGradient id="paint1_radial_5220_6037" cx="0" cy="0" r="1" gradientTransform="matrix(34.0192 31.6342 -31.6342 38.2899 74.9333 71.2164)" gradientUnits="userSpaceOnUse">
<stop stop-color="#F9EFD2"/>
<stop offset="1" stop-color="#F9EFD2" stop-opacity="0"/>
</radialGradient>
<radialGradient id="paint2_radial_5220_6037" cx="0" cy="0" r="1" gradientTransform="matrix(-30.4014 28.7246 -28.7246 -34.2179 111.17 65.7686)" gradientUnits="userSpaceOnUse">
<stop stop-color="#FDE7D7"/>
<stop offset="1" stop-color="#FDE9DA" stop-opacity="0"/>
</radialGradient>
<clipPath id="clip0_5220_6037">
<rect x="46.9333" y="41.0667" width="88" height="88" rx="17.6" fill="white"/>
</clipPath>
</defs>
</svg>
