<svg width="21" height="20" viewBox="0 0 21 20" fill="none" xmlns="http://www.w3.org/2000/svg">

  <path
    d="M10.832 17.5C14.9742 17.5 18.332 14.1421 18.332 10C18.332 5.85786 14.9742 2.5 10.832 2.5C6.6899 2.5 3.33203 5.85786 3.33203 10C3.33203 14.1421 6.6899 17.5 10.832 17.5Z"
    stroke="currentColor" stroke-width="1.5" stroke-linecap="round" stroke-linejoin="round" />
  <path d="M3.83203 7.5H17.832" stroke="currentColor" stroke-width="1.5" stroke-linecap="round"
    stroke-linejoin="round" />
  <path d="M3.83203 12.5H17.832" stroke="currentColor" stroke-width="1.5" stroke-linecap="round"
    stroke-linejoin="round" />
  <path
    d="M10.4138 2.5C9.0099 4.74968 8.26563 7.34822 8.26562 10C8.26563 12.6518 9.0099 15.2503 10.4138 17.5"
    stroke="currentColor" stroke-width="1.5" stroke-linecap="round" stroke-linejoin="round" />
  <path
    d="M11.25 2.5C12.6539 4.74968 13.3982 7.34822 13.3982 10C13.3982 12.6518 12.6539 15.2503 11.25 17.5"
    stroke="currentColor" stroke-width="1.5" stroke-linecap="round" stroke-linejoin="round" />
</svg>
