<svg width="24" height="24" viewBox="0 0 24 24" fill="none" xmlns="http://www.w3.org/2000/svg">
    <path fill-rule="evenodd" clip-rule="evenodd"
        d="M12.7071 2.29289C12.3166 1.90237 11.6834 1.90237 11.2929 2.29289L2.29292 11.2929C2.00692 11.5789 1.92137 12.009 2.07615 12.3827C2.23093 12.7564 2.59557 13 3.00003 13H4.00003V19C4.00003 19.7957 4.3161 20.5587 4.87871 21.1213C5.44132 21.6839 6.20438 22 7.00003 22H17C17.7957 22 18.5587 21.6839 19.1213 21.1213C19.684 20.5587 20 19.7957 20 19V13H21C21.4045 13 21.7691 12.7564 21.9239 12.3827C22.0787 12.009 21.9931 11.5789 21.7071 11.2929L12.7071 2.29289ZM11 12C10.4477 12 10 12.4477 10 13V15C10 15.5523 10.4477 16 11 16H13C13.5523 16 14 15.5523 14 15V13C14 12.4477 13.5523 12 13 12H11Z"
        fill="currentColor" />
</svg>
