<svg width="24" height="24" viewBox="0 0 24 24" fill="none" xmlns="http://www.w3.org/2000/svg">

  <path
    d="M8.693 4.69001L11.029 3.30001C11.3348 3.12978 11.679 3.04044 12.029 3.04044C12.379 3.04044 12.7232 3.12978 13.029 3.30001L19.029 6.87301H19C19.3062 7.04981 19.5601 7.30464 19.7358 7.61153C19.9115 7.91843 20.0026 8.26641 20 8.62001V15.156C20 15.402 19.955 15.641 19.87 15.863M17.71 17.71L12.971 20.737C12.674 20.902 12.3398 20.9885 12 20.9885C11.6602 20.9885 11.326 20.902 11.029 20.737L5.029 16.904C4.71736 16.7309 4.45763 16.4777 4.27671 16.1706C4.0958 15.8634 4.00026 15.5135 4 15.157V8.62001C4.00008 8.26337 4.09553 7.91323 4.27646 7.60589C4.45739 7.29854 4.71721 7.04516 5.029 6.87201L6.183 6.18501"
    stroke="currentColor" stroke-width="2" stroke-linecap="round" stroke-linejoin="round" />
  <path d="M3 3L21 21" stroke="currentColor" stroke-width="2" stroke-linecap="round"
    stroke-linejoin="round" />
</svg>
