<svg width="38" height="38" viewBox="0 0 38 38" fill="none" xmlns="http://www.w3.org/2000/svg">
<rect width="38" height="38" rx="19" fill="currentColor"/>
<g clip-path="url(#clip0_7379_14809)">
<path d="M13 27C13 25.3431 14.3431 24 16 24H18C19.6569 24 21 25.3431 21 27V28C21 28.5523 20.5523 29 20 29H14C13.4477 29 13 28.5523 13 28V27Z" fill="white"/>
<path d="M17 23C18.1046 23 19 22.1046 19 21C19 19.8954 18.1046 19 17 19C15.8954 19 15 19.8954 15 21C15 22.1046 15.8954 23 17 23Z" fill="white"/>
<path d="M25 14V11C25 10.7348 24.8946 10.4804 24.7071 10.2929C24.5196 10.1054 24.2652 10 24 10H14C13.4696 10 12.9609 10.2107 12.5858 10.5858C12.2107 10.9609 12 11.4696 12 12M12 12C12 12.5304 12.2107 13.0391 12.5858 13.4142C12.9609 13.7893 13.4696 14 14 14H26C26.2652 14 26.5196 14.1054 26.7071 14.2929C26.8946 14.4804 27 14.7348 27 15V18M12 12V16.5M27 22V25C27 25.2652 26.8946 25.5196 26.7071 25.7071C26.5196 25.8946 26.2652 26 26 26H23.5" stroke="white" stroke-width="2" stroke-linecap="round" stroke-linejoin="round"/>
<path d="M28 18V22H24C23.4696 22 22.9609 21.7893 22.5858 21.4142C22.2107 21.0391 22 20.5304 22 20C22 19.4696 22.2107 18.9609 22.5858 18.5858C22.9609 18.2107 23.4696 18 24 18H28Z" stroke="white" stroke-width="2" stroke-linecap="round" stroke-linejoin="round"/>
<path d="M13 23.5C14.3807 23.5 15.5 22.3807 15.5 21C15.5 19.6193 14.3807 18.5 13 18.5C11.6193 18.5 10.5 19.6193 10.5 21C10.5 22.3807 11.6193 23.5 13 23.5Z" fill="white" stroke="currentColor" stroke-linecap="round" stroke-linejoin="round"/>
<path d="M12 23.5C10.067 23.5 8.5 25.067 8.5 27V28C8.5 28.8284 9.17157 29.5 10 29.5H16C16.8284 29.5 17.5 28.8284 17.5 28V27C17.5 25.067 15.933 23.5 14 23.5H12Z" fill="white" stroke="currentColor"/>
</g>
<defs>
<clipPath id="clip0_7379_14809">
<rect width="24" height="24" fill="white" transform="translate(7 7)"/>
</clipPath>
</defs>
</svg>
