<svg width="16" height="16" viewBox="0 0 16 16" fill="none" xmlns="http://www.w3.org/2000/svg">
<g clip-path="url(#clip0_7307_459140)">
<path fill-rule="evenodd" clip-rule="evenodd" d="M3.24985 1.91782C3.62492 1.54274 4.13363 1.33203 4.66406 1.33203H11.3307C11.6844 1.33203 12.0235 1.47251 12.2735 1.72256C12.5236 1.9726 12.6641 2.31174 12.6641 2.66536V3.9987C13.0177 3.9987 13.3568 4.13917 13.6069 4.38922C13.8569 4.63927 13.9974 4.97841 13.9974 5.33203V7.33203C13.9974 7.70022 13.6989 7.9987 13.3307 7.9987C12.9625 7.9987 12.6641 7.70022 12.6641 7.33203V5.33203H4.66406C4.43477 5.33203 4.20953 5.29266 3.9974 5.21765V6.33203C3.9974 6.70022 3.69892 6.9987 3.33073 6.9987C2.96254 6.9987 2.66406 6.70022 2.66406 6.33203V3.33203C2.66406 2.8016 2.87478 2.29289 3.24985 1.91782ZM3.9974 3.33203C3.9974 3.50884 4.06763 3.67841 4.19266 3.80344C4.31768 3.92846 4.48725 3.9987 4.66406 3.9987H11.3307L11.3307 2.66536L4.66406 2.66536C4.48725 2.66536 4.31768 2.7356 4.19266 2.86063C4.06763 2.98565 3.9974 3.15522 3.9974 3.33203ZM13.3307 9.33203C13.6989 9.33203 13.9974 9.63051 13.9974 9.9987V11.9987C13.9974 12.3523 13.8569 12.6915 13.6069 12.9415C13.3568 13.1916 13.0177 13.332 12.6641 13.332H10.9974C10.6292 13.332 10.3307 13.0336 10.3307 12.6654C10.3307 12.2972 10.6292 11.9987 10.9974 11.9987H12.6641V9.9987C12.6641 9.63051 12.9625 9.33203 13.3307 9.33203Z" fill="currentColor"/>
<path fill-rule="evenodd" clip-rule="evenodd" d="M11.3359 8.0013C11.1591 8.0013 10.9896 8.07154 10.8645 8.19656C10.7395 8.32159 10.6693 8.49116 10.6693 8.66797C10.6693 8.84478 10.7395 9.01435 10.8645 9.13937C10.9896 9.2644 11.1591 9.33464 11.3359 9.33464H13.3359V8.0013H11.3359ZM9.92172 7.25376C10.2968 6.87868 10.8055 6.66797 11.3359 6.66797H14.0026C14.3708 6.66797 14.6693 6.96645 14.6693 7.33464V10.0013C14.6693 10.3695 14.3708 10.668 14.0026 10.668H11.3359C10.8055 10.668 10.2968 10.4573 9.92172 10.0822C9.54665 9.70711 9.33594 9.1984 9.33594 8.66797C9.33594 8.13754 9.54665 7.62883 9.92172 7.25376Z" fill="currentColor"/>
<path d="M3.9974 10.6667C4.73378 10.6667 5.33073 10.0697 5.33073 9.33333C5.33073 8.59695 4.73378 8 3.9974 8C3.26102 8 2.66406 8.59695 2.66406 9.33333C2.66406 10.0697 3.26102 10.6667 3.9974 10.6667Z" fill="currentColor"/>
<path d="M1.33594 13.332C1.33594 12.2275 2.23137 11.332 3.33594 11.332H4.66927C5.77384 11.332 6.66927 12.2275 6.66927 13.332V13.9987C6.66927 14.3669 6.37079 14.6654 6.0026 14.6654H2.0026C1.63441 14.6654 1.33594 14.3669 1.33594 13.9987V13.332Z" fill="currentColor"/>
<path fill-rule="evenodd" clip-rule="evenodd" d="M4.83243 14.6667C4.37261 14.6662 4 14.2933 4 13.8333C4 12.7967 4.63091 11.9075 5.5297 11.5286C6.20222 11.8508 6.66667 12.5378 6.66667 13.3333V14C6.66667 14.3682 6.36819 14.6667 6 14.6667L4.83333 14.6667C4.83303 14.6667 4.83273 14.6667 4.83243 14.6667ZM7.15496 14.6667C7.2684 14.4706 7.33333 14.2429 7.33333 14V13.3333C7.33333 12.5374 6.9846 11.8229 6.43159 11.3343C6.45432 11.3336 6.47712 11.3333 6.5 11.3333H6.83333C8.21404 11.3333 9.33333 12.4526 9.33333 13.8333C9.33333 14.2936 8.96024 14.6667 8.5 14.6667H7.15496ZM6 9.33333C6 9.68469 5.90939 10.0149 5.75027 10.3018C5.98919 10.528 6.31173 10.6667 6.66667 10.6667C7.40305 10.6667 8 10.0697 8 9.33333C8 8.59695 7.40305 8 6.66667 8C6.31173 8 5.98919 8.13869 5.75027 8.36482C5.90939 8.65177 6 8.98197 6 9.33333Z" fill="currentColor"/>
</g>
<defs>
<clipPath id="clip0_7307_459140">
<rect width="16" height="16" fill="white"/>
</clipPath>
</defs>
</svg>
