<svg xmlns="http://www.w3.org/2000/svg" width="18" height="18" viewBox="0 0 18 18" fill="none">
  <path fill-rule="evenodd" clip-rule="evenodd" d="M9.5404 4.16448C10.0406 4.00259 10.4421 3.62164 10.632 3.13477L14.8654 7.36818C14.3785 7.55805 13.9976 7.95963 13.8357 8.45979L9.5404 4.16448ZM13.8357 9.53858L9.5404 13.8339C10.0406 13.9958 10.4421 14.3767 10.632 14.8636L14.8654 10.6302C14.3785 10.4403 13.9976 10.0387 13.8357 9.53858ZM8.46175 13.8338L4.16634 9.53844C4.0045 10.0386 3.62358 10.4402 3.13672 10.6301L7.37005 14.8635C7.55996 14.3766 7.96157 13.9957 8.46175 13.8338ZM8.46175 4.16452L4.16634 8.45993C4.0045 7.95975 3.62358 7.55814 3.13672 7.36823L7.37005 3.1349C7.55996 3.62176 7.96157 4.00268 8.46175 4.16452Z" fill="black"/>
  <circle cx="9" cy="2.5" r="1.75" stroke="black" stroke-width="1.5"/>
  <circle cx="9" cy="15.5" r="2.5" fill="black"/>
  <circle cx="2.5" cy="9" r="2.5" fill="black"/>
  <circle cx="15.5" cy="9" r="2.5" fill="black"/>
</svg>
