<svg viewBox="0 0 24 24" xmlns="http://www.w3.org/2000/svg">
  <path d="M 22 10.726 L 22 21.21 C 22 21.604 21.68 21.924 21.286 21.924 L 12.715 21.924 C 12.321 21.924 12.001 21.604 12.001 21.21 L 12.001 19.258 C 12.04 16.864 12.293 14.572 12.824 13.529 C 13.143 12.901 13.668 12.56 14.272 12.377 C 15.412 12.035 17.412 12.269 18.261 12.229 C 18.261 12.229 20.826 12.331 20.826 10.878 C 20.826 9.709 19.68 9.801 19.68 9.801 C 18.416 9.834 17.454 9.748 16.83 9.503 C 15.786 9.092 15.751 8.339 15.747 8.087 C 15.695 5.177 11.405 4.828 7.624 5.55 C 3.491 6.336 7.67 12.26 7.67 20.168 L 7.67 21.224 C 7.662 21.612 7.349 21.926 6.958 21.926 L 2.714 21.926 C 2.32 21.926 2 21.606 2 21.211 L 2 3.078 C 2 2.684 2.32 2.364 2.714 2.364 L 6.704 2.364 C 7.098 2.364 7.418 2.684 7.418 3.078 C 7.418 3.664 8.077 3.99 8.553 3.649 C 9.988 2.621 11.829 2.073 13.89 2.073 C 18.507 2.073 21.997 4.764 21.997 10.726 L 22 10.726 Z M 14.336 8.598 C 14.336 7.754 13.652 7.07 12.808 7.07 C 11.964 7.07 11.28 7.754 11.28 8.598 C 11.28 9.442 11.964 10.126 12.808 10.126 C 13.652 10.126 14.336 9.442 14.336 8.598 Z" fill="currentColor"></path>
</svg>
