<svg width="40" height="40" viewBox="0 0 40 40" fill="none" xmlns="http://www.w3.org/2000/svg">

  <path d="M4.33789 5L34.3379 35" stroke="currentColor" stroke-width="3.33333"
    stroke-linecap="round" stroke-linejoin="round" />
  <path
    d="M29.3371 30H11.0038C6.67378 30 3.16211 26.6417 3.16211 22.5C3.16211 18.3583 6.67378 15 11.0038 15C11.1904 14.1667 11.5121 13.3783 11.9504 12.6533M15.4404 9.40666C15.9888 9.11666 16.5738 8.875 17.1904 8.69C20.3571 7.73 23.8521 8.36666 26.3571 10.3567C28.8621 12.3433 29.9988 15.385 29.3371 18.3333H31.0038C32.2077 18.3335 33.3821 18.7062 34.3658 19.4002C35.3496 20.0943 36.0945 21.0757 36.4983 22.2099C36.9022 23.344 36.9452 24.5754 36.6215 25.735C36.2979 26.8946 35.6233 27.9256 34.6904 28.6867"
    stroke="currentColor" stroke-width="3.33333" stroke-linecap="round" stroke-linejoin="round" />
</svg>
