<svg width="38" height="38" viewBox="0 0 38 38" fill="none" xmlns="http://www.w3.org/2000/svg">
<path d="M38 19C38 29.4934 29.4934 38 19 38C8.50659 38 0 29.4934 0 19C0 8.50659 8.50659 0 19 0C29.4934 0 38 8.50659 38 19Z" fill="currentColor"/>
<path d="M20.8132 16.1853C20.5644 15.9351 20.2886 15.7132 19.9908 15.5239C19.2021 15.0189 18.2853 14.7505 17.3488 14.7505C16.0489 14.7481 14.8019 15.2646 13.8844 16.1853L9.4332 20.64C8.51724 21.5577 8.00242 22.8011 8.0016 24.0977C7.99988 26.8034 10.1919 28.9982 12.8976 29C14.1954 29.0045 15.4413 28.4905 16.3585 27.5722L20.0328 23.8979C20.0996 23.8317 20.1368 23.7414 20.1363 23.6474C20.1352 23.4541 19.9776 23.2984 19.7843 23.2995H19.6444C18.8767 23.3022 18.1159 23.1548 17.4048 22.8656C17.2738 22.8116 17.1232 22.8421 17.0234 22.9425L14.3813 25.5881C13.5609 26.4085 12.2308 26.4085 11.4104 25.5881C10.59 24.7677 10.59 23.4375 11.4104 22.6171L15.8791 18.1519C16.6988 17.3332 18.0268 17.3332 18.8466 18.1519C19.399 18.6719 20.2608 18.6719 20.8132 18.1519C21.0509 17.914 21.195 17.5985 21.2191 17.2631C21.2447 16.8622 21.0968 16.4696 20.8132 16.1853Z" fill="white"/>
<path d="M27.5634 9.435C25.6501 7.52168 22.548 7.52168 20.6347 9.435L16.9638 13.1023C16.863 13.2036 16.834 13.356 16.8903 13.4873C16.9461 13.619 17.0763 13.7035 17.2193 13.7007H17.3487C18.1155 13.6993 18.8751 13.8479 19.5848 14.1382C19.7159 14.1921 19.8664 14.1617 19.9662 14.0612L22.6013 11.4296C23.4217 10.6092 24.7518 10.6092 25.5722 11.4296C26.3927 12.2501 26.3927 13.5802 25.5722 14.4006L22.2898 17.6795L22.2618 17.711L21.114 18.8518C20.2943 19.6705 18.9663 19.6705 18.1465 18.8518C17.5941 18.3319 16.7323 18.3319 16.1799 18.8518C15.9407 19.0915 15.7965 19.4098 15.774 19.7476C15.7484 20.1485 15.8962 20.5411 16.1799 20.8255C16.585 21.2322 17.0588 21.5639 17.5797 21.8053C17.6531 21.8402 17.7266 21.8683 17.8001 21.8997C17.8736 21.9312 17.9506 21.9557 18.0241 21.9837C18.0975 22.0117 18.1745 22.0362 18.248 22.0572L18.4545 22.1132C18.5944 22.1482 18.7344 22.1762 18.8779 22.2007C19.0507 22.2263 19.2247 22.2427 19.3993 22.2497H19.6652L19.8752 22.2252C19.9522 22.2217 20.0327 22.2042 20.1237 22.2042H20.2426L20.4841 22.1692L20.5961 22.1482L20.799 22.1062H20.8376C21.6971 21.8903 22.482 21.4453 23.1086 20.8184L27.5633 16.3638C29.4768 14.4504 29.4768 11.3483 27.5634 9.435Z" fill="white"/>
</svg>
