<svg
  width="24"
  height="24"
  viewBox="0 0 24 24"
  fill="none"
  xmlns="http://www.w3.org/2000/svg"
>
  <path
    d="M15.707 3.793C16.098 3.402 16.731 3.402 17.121 3.793L20.207 6.879C20.598 7.269 20.598 7.902 20.207 8.293L16.136 12.364L14.577 16.521C14.529 16.65 14.452 16.767 14.352 16.863L13.206 17.966C12.814 18.344 12.192 18.338 11.807 17.953L6.047 12.193C5.662 11.808 5.656 11.186 6.034 10.794L7.137 9.648C7.233 9.548 7.35 9.471 7.479 9.423L11.636 7.864L15.707 3.793Z"
    fill="currentColor"
  />
  <path
    d="M8.293 14.293C8.684 13.902 9.316 13.902 9.707 14.293C10.098 14.684 10.098 15.316 9.707 15.707L5.207 20.207C4.816 20.598 4.184 20.598 3.793 20.207C3.402 19.816 3.402 19.184 3.793 18.793L8.293 14.293Z"
    fill="currentColor"
  />
</svg>
