<svg width="24" height="24" viewBox="0 0 24 24" fill="none" xmlns="http://www.w3.org/2000/svg">
<g id="note">
<path id="&#244;&#129;&#153;&#160;" d="M1.85 6.84649C1.85 9.02244 3.66138 10.843 5.84649 10.843C8.02288 10.843 9.83426 9.03116 9.83426 6.84649C9.83426 4.65287 8.02266 2.85 5.84649 2.85C3.65287 2.85 1.85 4.65287 1.85 6.84649ZM8.0602 6.84649C8.0602 8.04545 7.03745 9.0602 5.84649 9.0602C4.6388 9.0602 3.63277 8.04617 3.63277 6.84649C3.63277 5.63809 4.64753 4.62405 5.84649 4.62405C7.03673 4.62405 8.0602 5.64681 8.0602 6.84649ZM11.5404 6.85521C11.5404 7.36319 11.9367 7.77276 12.4492 7.77276H21.2237C21.7317 7.77276 22.15 7.36764 22.15 6.85521C22.15 6.34278 21.7317 5.93766 21.2237 5.93766H12.4492C11.9367 5.93766 11.5404 6.34723 11.5404 6.85521ZM1.85 16.9293C1.85 19.1142 3.6616 20.9258 5.84649 20.9258C8.02288 20.9258 9.83426 19.114 9.83426 16.9293C9.83426 14.7357 8.02266 12.9329 5.84649 12.9329C3.65265 12.9329 1.85 14.7447 1.85 16.9293ZM8.0602 16.9293C8.0602 18.1283 7.03744 19.1431 5.84649 19.1431C4.6388 19.1431 3.63277 18.129 3.63277 16.9293C3.63277 15.7293 4.64788 14.7069 5.84649 14.7069C7.03673 14.7069 8.0602 15.7297 8.0602 16.9293ZM11.5404 16.9468C11.5404 17.4548 11.9367 17.8643 12.4492 17.8643H21.2237C21.7317 17.8643 22.15 17.4592 22.15 16.9468C22.15 16.4344 21.7317 16.0292 21.2237 16.0292H12.4492C11.9367 16.0292 11.5404 16.4388 11.5404 16.9468Z" fill="currentColor" stroke="currentColor" stroke-width="0.3"/>
</g>
</svg>
