<svg width="24" height="24" viewBox="0 0 24 24" fill="none" xmlns="http://www.w3.org/2000/svg">
<path d="M12 2C6.48 2 2 6.48 2 12C2 17.52 6.48 22 12 22C17.52 22 22 17.52 22 12C22 6.48 17.52 2 12 2ZM12 20C7.58 20 4 16.42 4 12C4 7.58 7.58 4 12 4C16.42 4 20 7.58 20 12C20 16.42 16.42 20 12 20Z" fill="currentColor"/>
<path d="M12.0001 17C14.7615 17 17.0001 14.7614 17.0001 12C17.0001 9.23858 14.7615 7 12.0001 7C9.23864 7 7.00006 9.23858 7.00006 12C7.00006 14.7614 9.23864 17 12.0001 17Z" fill="currentColor"/>
</svg>
