<svg width="40" height="40" viewBox="0 0 40 40" fill="none" xmlns="http://www.w3.org/2000/svg">
<g clip-path="url(#clip0_4297_17466)">
<path d="M28.5714 35.3043H11.4286C10.5193 35.3043 9.64719 34.9379 9.00421 34.2856C8.36122 33.6333 8 32.7486 8 31.8261V7.47826C8 6.55577 8.36122 5.67106 9.00421 5.01876C9.64719 4.36646 10.5193 4 11.4286 4H23.4286L32 12.6957V31.8261C32 32.7486 31.6388 33.6333 30.9958 34.2856C30.3528 34.9379 29.4807 35.3043 28.5714 35.3043Z" stroke="black" stroke-width="2" stroke-linecap="round" stroke-linejoin="round"/>
<path d="M23.4285 4V10.9565C23.4285 11.4178 23.6091 11.8601 23.9306 12.1863C24.2521 12.5124 24.6881 12.6957 25.1428 12.6957H31.9999" stroke="black" stroke-width="2" stroke-linecap="round" stroke-linejoin="round"/>
<path fill-rule="evenodd" clip-rule="evenodd" d="M21.8816 17.3047H14V29.3047H16.3814V19.6882H21.8816V17.3047ZM20.0013 25.2196C21.0564 25.2196 21.9149 24.3611 21.9149 23.306C21.9149 22.251 21.0564 21.3897 20.0013 21.3897C18.9463 21.3897 18.085 22.2483 18.085 23.306C18.085 24.3638 18.9436 25.2196 20.0013 25.2196ZM18.1184 26.9233H23.6165V17.3047H26V29.3047H18.1184V26.9233Z" fill="#0B1013"/>
</g>
<defs>
<clipPath id="clip0_4297_17466">
<rect width="40" height="40" fill="white"/>
</clipPath>
</defs>
</svg>
