<svg xmlns="http://www.w3.org/2000/svg" width="16" height="18" viewBox="0 0 16 18" fill="none">
  <path d="M13.098 3.17609C14.1798 2.6062 15.058 1.78787 15.6376 0.809578C15.7358 0.643852 15.7375 0.438152 15.6421 0.270773C15.5467 0.103359 15.3689 0 15.1762 0H0.825293C0.632637 0 0.454782 0.103359 0.359403 0.270738C0.264024 0.438152 0.265747 0.643852 0.363938 0.809543C0.943524 1.78784 1.82173 2.6062 2.90356 3.17605C3.83252 3.66543 4.8799 3.9543 5.95902 4.02237V5.4H3.42471C2.47714 5.4 1.67576 6.10924 1.56059 7.04974L0.477633 15.8937C0.412278 16.4272 0.579164 16.9641 0.935403 17.3666C1.29164 17.7691 1.80425 18 2.34176 18H13.66C14.1975 18 14.7101 17.7691 15.0664 17.3666C15.4226 16.9641 15.5895 16.4272 15.5242 15.8937L14.4412 7.04981C14.3261 6.10928 13.5247 5.40007 12.5771 5.40007H10.0425V4.02244C11.1216 3.9543 12.169 3.66543 13.098 3.17609ZM12.5771 6.47248C12.9836 6.47248 13.3273 6.77668 13.3767 7.18017L14.4597 16.0241C14.4881 16.2563 14.4184 16.4807 14.2633 16.6559C14.1082 16.8311 13.894 16.9276 13.66 16.9276H2.34172C2.10776 16.9276 1.89352 16.8311 1.73848 16.6559C1.5834 16.4807 1.51365 16.2563 1.54209 16.0241L2.62501 7.18017C2.67441 6.77675 3.0182 6.47251 3.42468 6.47251L12.5771 6.47248ZM7.03143 5.40003V4.03836H8.97005V5.40003H7.03143ZM9.54619 2.96592H6.45529C4.63714 2.96592 2.96909 2.25879 1.88719 1.07248H14.1143C13.0324 2.25875 11.3643 2.96592 9.54619 2.96592Z" fill="currentColor"/>
  <path d="M8.00089 7.30557C5.57779 7.30557 3.60647 9.27693 3.60647 11.7C3.60647 14.1231 5.57782 16.0945 8.00089 16.0945C10.424 16.0945 12.3953 14.1231 12.3953 11.7C12.3953 9.27689 10.424 7.30557 8.00089 7.30557ZM8.00089 15.022C6.16915 15.022 4.67895 13.5317 4.67895 11.7C4.67895 9.86829 6.16918 8.37805 8.00089 8.37805C9.83261 8.37805 11.3228 9.86829 11.3228 11.7C11.3228 13.5317 9.83261 15.022 8.00089 15.022Z" fill="currentColor"/>
  <path d="M8.38006 11.3208C8.17066 11.1114 7.83113 11.1114 7.62177 11.3208L6.33069 12.6119C6.12127 12.8213 6.12127 13.1608 6.33069 13.3702C6.43539 13.4749 6.57264 13.5273 6.70985 13.5273C6.84707 13.5273 6.98432 13.4749 7.08901 13.3702L8.38009 12.0792C8.58945 11.8698 8.58945 11.5302 8.38006 11.3208Z" fill="currentColor"/>
</svg>
