<svg width="24" height="24" viewBox="0 0 24 24" fill="none" xmlns="http://www.w3.org/2000/svg">
<path d="M3 7V6C3 5.20435 3.3163 4.44152 3.87891 3.87891C4.44152 3.3163 5.20435 3 6 3H8C8.55228 3 9 3.44772 9 4C9 4.55228 8.55228 5 8 5H6C5.73478 5 5.4805 5.10543 5.29297 5.29297C5.10543 5.4805 5 5.73478 5 6V7C5 7.55228 4.55228 8 4 8C3.44772 8 3 7.55228 3 7Z" fill="currentColor"/>
<path d="M3 18V17C3 16.4477 3.44772 16 4 16C4.55228 16 5 16.4477 5 17V18L5.00488 18.0986C5.02757 18.3276 5.12883 18.5429 5.29297 18.707C5.48051 18.8946 5.73478 19 6 19H8C8.55228 19 9 19.4477 9 20C9 20.5523 8.55228 21 8 21H6C5.20435 21 4.44151 20.6837 3.87891 20.1211C3.38671 19.6289 3.08291 18.9835 3.01465 18.2969L3 18Z" fill="currentColor"/>
<path d="M19 7V6C19 5.73478 18.8946 5.48051 18.707 5.29297C18.5429 5.12883 18.3276 5.02757 18.0986 5.00488L18 5H16C15.4477 5 15 4.55228 15 4C15 3.44772 15.4477 3 16 3H18L18.2969 3.01465C18.9835 3.08291 19.6289 3.38671 20.1211 3.87891C20.6837 4.44151 21 5.20435 21 6V7C21 7.55228 20.5523 8 20 8C19.4477 8 19 7.55228 19 7Z" fill="currentColor"/>
<path d="M19 18V17C19 16.4477 19.4477 16 20 16C20.5523 16 21 16.4477 21 17V18C21 18.7957 20.6837 19.5585 20.1211 20.1211C19.5585 20.6837 18.7957 21 18 21H16C15.4477 21 15 20.5523 15 20C15 19.4477 15.4477 19 16 19H18C18.2652 19 18.5195 18.8946 18.707 18.707C18.8946 18.5195 19 18.2652 19 18Z" fill="currentColor"/>
<path d="M12.2219 5.20316C12.4189 5.02068 12.7119 4.9523 12.9821 5.03432C13.291 5.12813 13.4999 5.39699 13.4999 5.70013V9.90005H17.2498C17.5319 9.90005 17.7905 10.0476 17.9185 10.2822C18.0305 10.4874 18.0259 10.7291 17.9119 10.9288L17.8563 11.0115L11.8564 18.7114C11.6654 18.9566 11.3268 19.0595 11.0178 18.9657C10.709 18.8719 10.5 18.603 10.5 18.2999V14.1H6.75014C6.46807 14.1 6.20947 13.9524 6.08146 13.7178C5.95347 13.4833 5.97785 13.2014 6.14371 12.9885L12.1435 5.28861L12.2219 5.20316ZM8.223 12.7H11.25C11.6642 12.7 12 13.0134 12 13.4V16.1473L15.777 11.3H12.75C12.3358 11.3 12 10.9866 12 10.6V7.85204L8.223 12.7Z" fill="currentColor"/>
</svg>
