<svg width="52" height="52" viewBox="0 0 52 52" fill="none" xmlns="http://www.w3.org/2000/svg">
<path d="M43.9995 10.8334L44.2217 10.844C45.314 10.9551 46.1662 11.8784 46.1662 13C46.1662 14.1217 45.314 15.045 44.2217 15.1561L43.9995 15.1667H8.12467C6.92806 15.1667 5.95801 14.1967 5.95801 13C5.95801 11.8034 6.92806 10.8334 8.12467 10.8334H43.9995Z" fill="currentColor"/>
<path d="M17.5002 23.8334L17.7202 23.844C18.8133 23.9544 19.6668 24.8779 19.6668 26C19.6668 27.1222 18.8133 28.0457 17.7202 28.1561L17.5002 28.1667H8.12467C6.92806 28.1667 5.95801 27.1967 5.95801 26C5.95801 24.8034 6.92806 23.8334 8.12467 23.8334H17.5002Z" fill="currentColor"/>
<path d="M19.4997 36.8334L19.7218 36.844C20.8141 36.9552 21.6663 37.8784 21.6663 39C21.6663 40.1217 20.8141 41.0449 19.7218 41.1561L19.4997 41.1667H8.12467C6.92806 41.1667 5.95801 40.1967 5.95801 39C5.95801 37.8034 6.92806 36.8334 8.12467 36.8334H19.4997Z" fill="currentColor"/>
<path d="M43.834 30.0005C43.834 25.1222 39.8785 21.167 35.0002 21.1667C30.1216 21.1667 26.1663 25.122 26.1663 30.0005C26.1666 34.8788 30.1218 38.8344 35.0002 38.8344C39.8783 38.8341 43.8337 34.8787 43.834 30.0005ZM48.1673 30.0005C48.1671 37.2719 42.2715 43.1674 35.0002 43.1677C27.7286 43.1677 21.8333 37.2721 21.833 30.0005C21.833 22.7288 27.7284 16.8334 35.0002 16.8334C42.2717 16.8336 48.1673 22.7289 48.1673 30.0005Z" fill="currentColor"/>
<path d="M36.4691 25.4681C37.3152 24.6222 38.6868 24.622 39.5329 25.4681C40.3786 26.3141 40.3786 27.6858 39.5329 28.5319L38.0645 30.0003L39.5329 31.4687L39.681 31.6316C40.3756 32.4827 40.3263 33.7391 39.5329 34.5325C38.7395 35.3259 37.483 35.3752 36.632 34.6806L36.4691 34.5325L35.0006 33.0641L33.5322 34.5325C32.6862 35.3782 31.3145 35.3782 30.4684 34.5325C29.6224 33.6865 29.6226 32.3149 30.4684 31.4687L31.9368 30.0003L30.4684 28.5319L30.3203 28.3668C29.6262 27.5158 29.6752 26.2613 30.4684 25.4681C31.2617 24.6748 32.5162 24.6259 33.3672 25.3199L33.5322 25.4681L35.0006 26.9365L36.4691 25.4681Z" fill="currentColor"/>
<path d="M41.0299 37.4089C41.8535 36.6478 43.1098 36.6465 43.9329 37.3729L44.0916 37.5295L48.717 42.5293L48.8587 42.6986C49.5192 43.576 49.4199 44.8292 48.5964 45.591C47.7729 46.3523 46.5166 46.3534 45.6934 45.627L45.5347 45.4704L40.9093 40.4706L40.7676 40.3013C40.1071 39.4239 40.2064 38.1707 41.0299 37.4089Z" fill="currentColor"/>
</svg>
