<svg width="24" height="24" viewBox="0 0 24 24" fill="none" xmlns="http://www.w3.org/2000/svg">
<path d="M11.9989 3C14.3347 5.06658 17.3833 6.14257 20.4989 6C20.9524 7.54302 21.0912 9.16147 20.907 10.7592C20.7227 12.3569 20.2192 13.9013 19.4263 15.3005C18.6333 16.6998 17.5672 17.9254 16.2913 18.9045C15.0154 19.8836 13.5556 20.5962 11.9989 21C10.4421 20.5962 8.98234 19.8836 7.7064 18.9045C6.43047 17.9254 5.36437 16.6998 4.57145 15.3005C3.77854 13.9013 3.27499 12.3569 3.09073 10.7592C2.90647 9.16147 3.04527 7.54302 3.49886 6C6.61439 6.14257 9.66303 5.06658 11.9989 3" stroke="white" stroke-width="2" stroke-linecap="round" stroke-linejoin="round"/>
<path d="M12 3V21" stroke="white" stroke-width="2" stroke-linecap="round" stroke-linejoin="round"/>
<path d="M12 11H20.9" stroke="white" stroke-width="2" stroke-linecap="round" stroke-linejoin="round"/>
<path d="M12 8H20.9" stroke="white" stroke-width="2" stroke-linecap="round" stroke-linejoin="round"/>
<path d="M12 5H15.1" stroke="white" stroke-width="2" stroke-linecap="round" stroke-linejoin="round"/>
<path d="M12 17H18.2" stroke="white" stroke-width="2" stroke-linecap="round" stroke-linejoin="round"/>
<path d="M12 14H20" stroke="white" stroke-width="2" stroke-linecap="round" stroke-linejoin="round"/>
</svg>
