<svg width="24" height="24" viewBox="0 0 24 24" fill="none" xmlns="http://www.w3.org/2000/svg">
<path d="M20.1154 18.8889C20.0934 18.669 20.0074 18.4602 19.8673 18.2893L19.7931 18.2072L13.7931 12.2072C13.4935 11.9077 13.4153 11.4519 13.5978 11.0696C14.0434 10.1365 14.1886 9.08766 14.0138 8.06857C13.8389 7.04963 13.3522 6.11019 12.6212 5.37912C11.8901 4.64799 10.9499 4.16139 9.93079 3.98654C9.41472 3.89804 8.89131 3.89191 8.37904 3.96506L10.7072 6.29318C10.8946 6.48071 11.0001 6.73507 11.0001 7.00022V10.0002C11.0001 10.5524 10.5523 11.0001 10.0001 11.0002H7.00013C6.73498 11.0002 6.48062 10.8947 6.2931 10.7072L3.96497 8.37912C3.89182 8.89139 3.89796 9.4148 3.98646 9.93088C4.1613 10.95 4.64791 11.8902 5.37904 12.6213C6.1101 13.3523 7.04955 13.839 8.06849 14.0139C9.08757 14.1887 10.1364 14.0435 11.0695 13.5979L11.215 13.5412C11.5626 13.4378 11.9449 13.5309 12.2072 13.7932L18.2072 19.7932L18.2892 19.8674C18.4887 20.031 18.7399 20.1213 19.0001 20.1213L19.1105 20.1154C19.3673 20.09 19.609 19.9773 19.7931 19.7932C20.0034 19.5829 20.1212 19.2976 20.1212 19.0002L20.1154 18.8889ZM22.1173 19.1545C22.0791 19.9261 21.756 20.6584 21.2072 21.2072C20.6583 21.7561 19.926 22.0792 19.1544 22.1174L19.0001 22.1213C18.2241 22.1213 17.478 21.8321 16.9054 21.3137L16.7931 21.2072L11.2638 15.6779C10.1354 16.0801 8.91918 16.1885 7.7306 15.9846C6.30388 15.7398 4.98758 15.059 3.964 14.0354C2.94064 13.0119 2.25956 11.6963 2.01478 10.2697C1.77001 8.84314 1.97405 7.37571 2.59779 6.06955L2.65638 5.96311C2.80683 5.7267 3.05135 5.56288 3.33118 5.51486C3.65107 5.46006 3.97766 5.56369 4.20716 5.79318L7.41419 9.00022H9.00013V7.41428L5.7931 4.20725C5.5636 3.97775 5.45997 3.65116 5.51478 3.33127C5.56967 3.01131 5.77653 2.73778 6.06947 2.59787L6.31556 2.48557C7.55835 1.95002 8.93206 1.78537 10.2697 2.01486C11.6962 2.25964 13.0118 2.94072 14.0353 3.96408C15.0589 4.98766 15.7397 6.30397 15.9845 7.73068C16.1884 8.91927 16.0801 10.1355 15.6779 11.2639L21.2072 16.7932L21.3136 16.9055C21.832 17.4781 22.1212 18.2242 22.1212 19.0002L22.1173 19.1545Z" fill="currentColor"/>
</svg>
