<svg xmlns="http://www.w3.org/2000/svg" width="31" height="24" viewBox="0 0 31 24" fill="none">
  <path d="M12 7C12 5.34315 10.6569 4 9 4C7.34315 4 6 5.34315 6 7C6 8.65685 7.34315 10 9 10C10.6569 10 12 8.65685 12 7ZM14 7C14 9.76142 11.7614 12 9 12C6.23858 12 4 9.76142 4 7C4 4.23858 6.23858 2 9 2C11.7614 2 14 4.23858 14 7Z" fill="currentColor"/>
  <path d="M19 7C19 5.34315 20.3431 4 22 4C23.6569 4 25 5.34315 25 7C25 8.65685 23.6569 10 22 10C20.3431 10 19 8.65685 19 7ZM17 7C17 9.76142 19.2386 12 22 12C24.7614 12 27 9.76142 27 7C27 4.23858 24.7614 2 22 2C19.2386 2 17 4.23858 17 7Z" fill="currentColor"/>
  <path d="M11 16L11.2969 16.0146C11.6831 16.053 12.0833 15.8481 12.1801 15.4723L12.2676 15.1325C12.3979 14.6267 12.1091 14.0964 11.5904 14.0347C11.4769 14.0212 11.3628 14.0116 11.248 14.0059L11 14H7C5.67392 14 4.40253 14.5272 3.46484 15.4648C2.52716 16.4025 2 17.6739 2 19V21C2 21.5523 2.44772 22 3 22C3.55228 22 4 21.5523 4 21V19C4 18.2044 4.3163 17.4415 4.87891 16.8789C5.44152 16.3163 6.20435 16 7 16H11Z" fill="currentColor"/>
  <path d="M20 16L19.7031 16.0146C19.3169 16.053 18.9167 15.8481 18.8199 15.4723L18.7324 15.1325C18.6021 14.6267 18.8909 14.0964 19.4096 14.0347C19.5231 14.0212 19.6372 14.0116 19.752 14.0059L20 14H24C25.3261 14 26.5975 14.5272 27.5352 15.4648C28.4728 16.4025 29 17.6739 29 19V21C29 21.5523 28.5523 22 28 22C27.4477 22 27 21.5523 27 21V19C27 18.2044 26.6837 17.4415 26.1211 16.8789C25.5585 16.3163 24.7956 16 24 16H20Z" fill="#0B1013"/>
  <path d="M10.5 19H18.5M18.5 19L15 15.5M18.5 19L15 22.5" stroke="currentColor" stroke-width="2" stroke-linecap="round" stroke-linejoin="round"/>
</svg>
