<svg width="25" height="24" viewBox="0 0 25 24" fill="none" xmlns="http://www.w3.org/2000/svg">
<path d="M19 10.5V8.66406L14.3359 4H6V20H10.5C11.0523 20 11.5 20.4477 11.5 21C11.5 21.5523 11.0523 22 10.5 22H5.75C5.28587 22 4.84089 21.8155 4.5127 21.4873C4.18451 21.1591 4 20.7141 4 20.25V3.75C4 3.28587 4.18451 2.84088 4.5127 2.5127C4.84088 2.18451 5.28587 2 5.75 2H14.75L14.8486 2.00488C15.0776 2.02757 15.2929 2.12883 15.457 2.29297L20.707 7.54297C20.8946 7.7305 21 7.98478 21 8.25V10.5C21 11.0523 20.5523 11.5 20 11.5C19.4477 11.5 19 11.0523 19 10.5Z" fill="currentColor"/>
<path d="M13.75 3C13.75 2.44772 14.1977 2 14.75 2C15.3023 2 15.75 2.44772 15.75 3V7.25H20C20.5523 7.25 21 7.69772 21 8.25C21 8.80228 20.5523 9.25 20 9.25H14.75C14.1977 9.25 13.75 8.80228 13.75 8.25V3Z" fill="currentColor"/>
<path d="M21.5 18C21.5 15.7909 19.7091 14 17.5 14C15.2909 14 13.5 15.7909 13.5 18C13.5 20.2091 15.2909 22 17.5 22C19.7091 22 21.5 20.2091 21.5 18ZM23.5 18C23.5 21.3137 20.8137 24 17.5 24C14.1863 24 11.5 21.3137 11.5 18C11.5 14.6863 14.1863 12 17.5 12C20.8137 12 23.5 14.6863 23.5 18Z" fill="currentColor"/>
<path d="M16.8557 17.553C17.0873 17.0899 17.6298 16.885 18.1038 17.0647L18.1975 17.1057L19.6975 17.8557L19.7864 17.9065C20.2145 18.1778 20.3763 18.7344 20.1448 19.1975C19.9132 19.6606 19.3707 19.8655 18.8967 19.6858L18.803 19.6448L17.303 18.8948L17.2141 18.844C16.786 18.5727 16.6242 18.0161 16.8557 17.553Z" fill="currentColor"/>
<path d="M16.75 18V16.125C16.75 15.5727 17.1977 15.125 17.75 15.125C18.3023 15.125 18.75 15.5727 18.75 16.125V18C18.75 18.5523 18.3023 19 17.75 19C17.1977 19 16.75 18.5523 16.75 18Z" fill="currentColor"/>
</svg>
