<svg width="32" height="32" viewBox="0 0 24 24" fill="none" xmlns="http://www.w3.org/2000/svg">
    <rect width="24" height="24" rx="12" fill="white"/>
    <path d="M11.3429 18.23V16.895C10.5829 16.835 9.94293 16.66 9.42293 16.37C8.90293 16.07 8.45293 15.7 8.07293 15.26L9.28793 14.15C9.57793 14.49 9.90293 14.77 10.2629 14.99C10.6229 15.2 11.0279 15.335 11.4779 15.395V12.35C10.3779 12.12 9.58293 11.77 9.09293 11.3C8.61293 10.82 8.37293 10.21 8.37293 9.47C8.37293 8.67 8.63293 8.03 9.15293 7.55C9.67293 7.06 10.4029 6.76 11.3429 6.65V5.3H12.8279V6.65C13.4579 6.72 13.9979 6.875 14.4479 7.115C14.9079 7.355 15.3079 7.685 15.6479 8.105L14.4179 9.17C14.2179 8.93 13.9779 8.72 13.6979 8.54C13.4279 8.36 13.0929 8.23 12.6929 8.15V10.94C13.7629 11.19 14.5479 11.54 15.0479 11.99C15.5479 12.43 15.7979 13.04 15.7979 13.82C15.7979 14.59 15.5479 15.255 15.0479 15.815C14.5479 16.365 13.8079 16.71 12.8279 16.85V18.23H11.3429ZM10.1879 9.395C10.1879 9.745 10.2879 10.015 10.4879 10.205C10.6979 10.395 11.0279 10.55 11.4779 10.67V8.135C10.6179 8.285 10.1879 8.705 10.1879 9.395ZM13.9979 13.955C13.9979 13.655 13.9029 13.395 13.7129 13.175C13.5329 12.945 13.1929 12.76 12.6929 12.62V15.38C13.1129 15.29 13.4329 15.12 13.6529 14.87C13.8829 14.61 13.9979 14.305 13.9979 13.955Z" fill="#26A07B"/>
</svg>
