<svg width="25" height="24" viewBox="0 0 25 24" fill="none" xmlns="http://www.w3.org/2000/svg">
<path d="M0.5 12C0.5 5.37258 5.87258 0 12.5 0C19.1274 0 24.5 5.37258 24.5 12C24.5 18.6274 19.1274 24 12.5 24C5.87258 24 0.5 18.6274 0.5 12Z" fill="currentColor"/>
<path d="M14.1104 11.2601C13.656 11.009 13.1729 10.8177 12.6946 10.6192C12.4172 10.5044 12.1517 10.3705 11.9174 10.1839C11.4558 9.81563 11.5443 9.21774 12.0848 8.98097C12.2378 8.91401 12.3981 8.89248 12.5607 8.88292C13.1873 8.84944 13.7828 8.96423 14.3496 9.23687C14.6318 9.37319 14.7251 9.33014 14.8207 9.03598C14.9212 8.72507 15.0049 8.40939 15.0982 8.09609C15.1603 7.88563 15.0838 7.74692 14.8853 7.65843C14.5218 7.49819 14.1487 7.3834 13.7565 7.32122C13.2447 7.24229 13.2447 7.2399 13.2423 6.72571C13.2399 6.00106 13.2399 6.00106 12.5129 6.00106C12.4076 6.00106 12.3024 5.99867 12.1972 6.00106C11.8576 6.01063 11.8002 6.07042 11.7906 6.41241C11.7858 6.56548 11.7906 6.71854 11.7882 6.87399C11.7858 7.32839 11.7834 7.32122 11.3482 7.47906C10.2959 7.86171 9.64536 8.57919 9.576 9.72715C9.51382 10.7436 10.0448 11.43 10.8794 11.9298C11.3936 12.2383 11.9628 12.4201 12.5081 12.6616C12.7209 12.7549 12.9242 12.8625 13.1012 13.0108C13.625 13.4437 13.5293 14.1635 12.9075 14.4362C12.575 14.5821 12.2235 14.6179 11.8624 14.5725C11.3051 14.5031 10.7718 14.3572 10.2696 14.0966C9.9754 13.9435 9.8893 13.9842 9.78886 14.3022C9.70276 14.5773 9.62623 14.8547 9.5497 15.1321C9.44686 15.5052 9.48512 15.5937 9.84147 15.7683C10.2959 15.9883 10.7814 16.1007 11.2764 16.1796C11.6639 16.2418 11.6758 16.2586 11.6806 16.6603C11.683 16.8421 11.683 17.0263 11.6854 17.208C11.6878 17.4376 11.7978 17.5715 12.0346 17.5763C12.3024 17.5811 12.5727 17.5811 12.8405 17.5739C13.0605 17.5691 13.1729 17.4496 13.1729 17.2271C13.1729 16.9784 13.1849 16.7273 13.1753 16.4786C13.1634 16.2251 13.2734 16.0959 13.5173 16.029C14.0794 15.8759 14.5577 15.5746 14.926 15.1249C15.9496 13.8813 15.5597 12.0613 14.1104 11.2601Z" fill="white"/>
</svg>
