<svg width="21" height="20" viewBox="0 0 21 20" fill="none" xmlns="http://www.w3.org/2000/svg">
  <path
    d="M14.6666 6.66683V4.16683C14.6666 3.94582 14.5788 3.73385 14.4225 3.57757C14.2662 3.42129 14.0543 3.3335 13.8333 3.3335H5.49992C5.05789 3.3335 4.63397 3.50909 4.32141 3.82165C4.00885 4.13421 3.83325 4.55814 3.83325 5.00016C3.83325 5.44219 4.00885 5.86611 4.32141 6.17867C4.63397 6.49123 5.05789 6.66683 5.49992 6.66683H15.4999C15.7209 6.66683 15.9329 6.75463 16.0892 6.91091C16.2455 7.06719 16.3333 7.27915 16.3333 7.50016V10.0002M16.3333 13.3335V15.8335C16.3333 16.0545 16.2455 16.2665 16.0892 16.4228C15.9329 16.579 15.7209 16.6668 15.4999 16.6668H5.49992C5.05789 16.6668 4.63397 16.4912 4.32141 16.1787C4.00885 15.8661 3.83325 15.4422 3.83325 15.0002V5.00016"
    stroke="currentColor" stroke-width="1.5" stroke-linecap="round" stroke-linejoin="round" />
  <path
    d="M17.1667 10V13.3333H13.8334C13.3914 13.3333 12.9675 13.1577 12.6549 12.8452C12.3423 12.5326 12.1667 12.1087 12.1667 11.6667C12.1667 11.2246 12.3423 10.8007 12.6549 10.4882C12.9675 10.1756 13.3914 10 13.8334 10H17.1667Z"
    stroke="currentColor" stroke-width="1.5" stroke-linecap="round" stroke-linejoin="round" />
</svg>
