<svg width="24" height="24" viewBox="0 0 24 24" fill="none" xmlns="http://www.w3.org/2000/svg">
<path d="M3 18L3 6.375V5.92683C3 4.31038 4.31039 3 5.92683 3H16C17.1046 3 18 3.89543 18 5H6C5.44772 5 5 5.44772 5 6C5 6.55228 5.44772 7 6 7H13.7667H18C19.1046 7 20 7.89543 20 9V10H16.7271C14.4662 10 12.6333 11.8328 12.6333 14.0938C12.6333 16.3547 14.4662 18.1875 16.7271 18.1875H20V19C20 20.1046 19.1046 21 18 21H6C4.34315 21 3 19.6569 3 18Z" fill="currentColor"/>
<path d="M15 14C15 12.8954 15.8954 12 17 12H20C20.5523 12 21 12.4477 21 13V15C21 15.5523 20.5523 16 20 16H17C15.8954 16 15 15.1046 15 14Z" fill="currentColor"/>
</svg>
